<mxfile host="app.diagrams.net" modified="2024-07-07T13:48:47.499Z" agent="Mozilla/5.0 (Macintosh; Intel Mac OS X 10_15_7) AppleWebKit/537.36 (KHTML, like Gecko) Chrome/126.0.0.0 Safari/537.36" etag="TbzHHYdMhWFJaVSaoD9M" version="24.6.4" type="device">
  <diagram name="Page-1" id="tEd9-aepxz5J72TWHjZa">
    <mxGraphModel dx="984" dy="548" grid="1" gridSize="10" guides="1" tooltips="1" connect="1" arrows="1" fold="1" page="1" pageScale="1" pageWidth="850" pageHeight="1100" math="0" shadow="0">
      <root>
        <mxCell id="0" />
        <mxCell id="1" parent="0" />
        <mxCell id="H2bbFuzn8sbZbmYjsPZt-6" value="" style="rounded=1;whiteSpace=wrap;html=1;" parent="1" vertex="1">
          <mxGeometry x="335" y="450" width="220" height="120" as="geometry" />
        </mxCell>
        <mxCell id="H2bbFuzn8sbZbmYjsPZt-1" value="application.properties&lt;br&gt;(plain text with passwords)" style="rounded=1;whiteSpace=wrap;html=1;" parent="1" vertex="1">
          <mxGeometry x="210" y="260" width="150" height="60" as="geometry" />
        </mxCell>
        <mxCell id="H2bbFuzn8sbZbmYjsPZt-2" value="" style="endArrow=classic;html=1;rounded=0;exitX=0.5;exitY=1;exitDx=0;exitDy=0;entryX=0.25;entryY=0;entryDx=0;entryDy=0;" parent="1" source="H2bbFuzn8sbZbmYjsPZt-1" target="H2bbFuzn8sbZbmYjsPZt-5" edge="1">
          <mxGeometry width="50" height="50" relative="1" as="geometry">
            <mxPoint x="270" y="420" as="sourcePoint" />
            <mxPoint x="235" y="420" as="targetPoint" />
          </mxGeometry>
        </mxCell>
        <mxCell id="H2bbFuzn8sbZbmYjsPZt-3" value="Local Encryption" style="text;html=1;align=center;verticalAlign=middle;whiteSpace=wrap;rounded=0;" parent="1" vertex="1">
          <mxGeometry x="260" y="380" width="60" height="30" as="geometry" />
        </mxCell>
        <mxCell id="H2bbFuzn8sbZbmYjsPZt-5" value="application.enc.properties&lt;br&gt;(encrypted file)" style="rounded=1;whiteSpace=wrap;html=1;" parent="1" vertex="1">
          <mxGeometry x="370" y="480" width="150" height="60" as="geometry" />
        </mxCell>
        <mxCell id="H2bbFuzn8sbZbmYjsPZt-7" value="Git Repository" style="text;html=1;align=center;verticalAlign=middle;whiteSpace=wrap;rounded=0;" parent="1" vertex="1">
          <mxGeometry x="412.5" y="570" width="65" height="30" as="geometry" />
        </mxCell>
        <mxCell id="H2bbFuzn8sbZbmYjsPZt-9" value="" style="points=[[0,0.5,0],[0.24,0,0],[0.5,0.28,0],[0.995,0.475,0],[0.5,0.72,0],[0.24,1,0]];verticalLabelPosition=bottom;sketch=0;html=1;verticalAlign=top;aspect=fixed;align=center;pointerEvents=1;shape=mxgraph.cisco19.key;fillColor=#005073;strokeColor=none;" parent="1" vertex="1">
          <mxGeometry x="278.89" y="412" width="22.22" height="10" as="geometry" />
        </mxCell>
        <mxCell id="H2bbFuzn8sbZbmYjsPZt-11" value="" style="rounded=1;whiteSpace=wrap;html=1;" parent="1" vertex="1">
          <mxGeometry x="520" y="230" width="220" height="120" as="geometry" />
        </mxCell>
        <mxCell id="H2bbFuzn8sbZbmYjsPZt-12" value="Kubernetes Cluster" style="text;html=1;align=center;verticalAlign=middle;whiteSpace=wrap;rounded=0;" parent="1" vertex="1">
          <mxGeometry x="555" y="200" width="145" height="30" as="geometry" />
        </mxCell>
        <mxCell id="H2bbFuzn8sbZbmYjsPZt-13" value="Kubernetes Secret" style="rounded=1;whiteSpace=wrap;html=1;" parent="1" vertex="1">
          <mxGeometry x="555" y="260" width="150" height="60" as="geometry" />
        </mxCell>
        <mxCell id="H2bbFuzn8sbZbmYjsPZt-14" value="" style="endArrow=classic;html=1;rounded=0;exitX=0.75;exitY=0;exitDx=0;exitDy=0;entryX=0.5;entryY=1;entryDx=0;entryDy=0;" parent="1" source="H2bbFuzn8sbZbmYjsPZt-5" target="H2bbFuzn8sbZbmYjsPZt-13" edge="1">
          <mxGeometry width="50" height="50" relative="1" as="geometry">
            <mxPoint x="630" y="730" as="sourcePoint" />
            <mxPoint x="680" y="680" as="targetPoint" />
          </mxGeometry>
        </mxCell>
        <mxCell id="H2bbFuzn8sbZbmYjsPZt-15" value="CD pipeline Decryption" style="text;html=1;align=center;verticalAlign=middle;whiteSpace=wrap;rounded=0;" parent="1" vertex="1">
          <mxGeometry x="555" y="382" width="105" height="30" as="geometry" />
        </mxCell>
        <mxCell id="H2bbFuzn8sbZbmYjsPZt-16" value="" style="points=[[0,0.5,0],[0.24,0,0],[0.5,0.28,0],[0.995,0.475,0],[0.5,0.72,0],[0.24,1,0]];verticalLabelPosition=bottom;sketch=0;html=1;verticalAlign=top;aspect=fixed;align=center;pointerEvents=1;shape=mxgraph.cisco19.key;fillColor=#005073;strokeColor=none;" parent="1" vertex="1">
          <mxGeometry x="596.39" y="414" width="22.22" height="10" as="geometry" />
        </mxCell>
        <mxCell id="H2bbFuzn8sbZbmYjsPZt-17" value="" style="verticalLabelPosition=bottom;html=1;verticalAlign=top;align=center;strokeColor=none;fillColor=#00BEF2;shape=mxgraph.azure.github_code;pointerEvents=1;" parent="1" vertex="1">
          <mxGeometry x="335" y="540" width="30" height="30" as="geometry" />
        </mxCell>
        <mxCell id="H2bbFuzn8sbZbmYjsPZt-18" value="" style="shape=image;verticalLabelPosition=bottom;labelBackgroundColor=default;verticalAlign=top;aspect=fixed;imageAspect=0;image=data:image/png,iVBORw0KGgoAAAANSUhEUgAABLAAAASMCAYAAACYmXQZAAAABGdBTUEAALGPC/xhBQAAACBjSFJNAAB6JgAAgIQAAPoAAACA6AAAdTAAAOpgAAA6mAAAF3CculE8AAAABmJLR0QA/wD/AP+gvaeTAAAACXBIWXMAAERnAABEZwES/6BQAAAAB3RJTUUH5goZCgMr4W593gAAgABJREFUeNrs3Xd8XeWZ7v3fs9Zu6nLv3bhgjC3JxvTeIXRCgFDSJgmWIX3mzJnyvnPOmT7zJmCYnJyZE0xLTyCBNEhIo9syvRc3yb2pa++91v3+sSRwEiAuktYu1/fz8diCDFw2W3utde37eR6HiIiISBlrXNGGj0cQhuDs7b/u+c4PA6sHxgJTgInAVGA6MB6oB+r6f64E0kASSPT/I/JAFugDuoAOYA+wA9gMbAA29v+8CdgZYHt9vBDeyZHKJckl8qy5dWLcf1QiIiIisXFxBxAREREZTsua2/BzVfQmO9/+axm/0vXme+pwNgmYBywE5hCVVZOIiqpKonJqsO6fDMgBncBeoBV4A3ip/8erQGuQCDv8vLfP/4ujZeWkuP8YRURERIaVCiwREREpeYuWbyHjjCwhjoEaiGpgJtAEHE1UWs0ARhFNUsUpSzSp9RrQAjwBPAO2AVz3wP/Ir2rH5abx5L9XxhxXREREZGipwBIREZGS1djc+vavQxfizBvpYBFwKnAscDjREkHv4P4NwyYPbAGeBx4GfgO8CLS//b8waLlVk1kiIiJSmlRgiYiISElZfNMGvHxi3/2saoimrM4ATiMqrWriznmIdgPPAA8CPyMqs3oAzAPD4+mbJ8SdUURERGTQqMASERGRktC4vA0wcGDmfOdsNlFpdRGwFKiNO+MQ2Q48BtwLPJTocRvzFf1/DkHI2tumxJ1PRERE5JCpwBIREZGi1tDc+s4NjZHBsRS4CjgbmEb53O/kgZeBHwHfwfEcRh7AecaamyfHnU9ERETkoJXLDZ2IiIiUmFNru9hz7R4ADOocnEJUXJ0GjIw7X8w2Az8G7gIeB3oh2rx+rU4wFBERkSKkAktERESKytLPbCXI5zHAg5EGZwHXA8cDOo7v9+0m2idrFfBroAuiG8A1KrJERESkiKjAEhERkaLQcEMbzjPMDOfcOOBcouJqGZCOO1+B6wR+Cdzh4KEQ9jo0kSUiIiLFQwWWiIiIFLTGFW1ghnOGmZsMXABcBzQAybjzFZke4HdEE1k/BXYCEELLbSqyREREpHCpwBIREZGCs+wTO8mlewEIsj34qYoZwKXAh4EjAD/ujEUuCzxBVGTdb7AVwELH07dNjDubiIiIyB9RgSUiIiIFo+nTbZgPYITmOc+Fc4APEm3OPhfduwy2PNAC3GVwr+fYaAaec6y+RUWWiIiIFA7dBIqIiEjsGm7aAKGPM3DmeebCBUSl1eXArLjzlYEQeB64G/huX97eTCccIRBYwHO3To07n4iIiJQ5FVgiIiISm8bmNqLNxA1zJJyxGLgauARQazL8DHgF+BbwzSzhKyk8A8BByy3aJ0tERETioQJLREREhl1j8yYGbkMcLmXYUuBa4APAhLjzCQBvAt8F7sHZc5gLceAH8JQ2fBcREZFhpgJLREREhk3DijZcaODAIOPgOKLi6lxgdNz55F1tBO4D7sTRYkY+uoE0WlZOjjubiIiIlAkVWCIiIjLkGpvbwFm0QM2ownEycB1wBlAfdz7ZL1uAB4BVBk+46CRDzBxrb9WG7yIiIjK0VGCJiIjIkBl3STuTJnYCBo46jDOIJq5OAarjzicHZSfwU2AV8Dugx4huKltWammhiIiIDA0VWCIiIjLoGm7ciAtd/wbt3iiwc4gmro4DKuLOJ4NiL/ALoomshx10RLeWoZYWioiIyKBTgSUiIiKDZtFNbfiB9X9l48GdT1RcHQWk4s4nQ6IL+A2wyuF+bthugO7OHC/fPj3ubCIiIlIiVGCJiIjIITmtopvdH9sLhHghhB5TgIuAa4AGIBF3RhkWvcBjREsLf+xw2w3DWcCaW6fGnU1ERESKnAosEREROShLP7OVXC7Ac4afbCfI1c4ELgeuAhYAftwZJRY54CngTuCH4NrAcOZYo83eRURE5CCpwBIREZED0rCiFRcCDnLmuaQL5xCVVlcAc9D9hUQC4BngLuD7gbP1vrnoNMqqdlr+8fC484mIiEgR0Q2miIiI7JfFza04F03SOHO+OVsAfBi4FJgZdz4pWCHwEvAN4FtZr/31VFiL8wxzHi1f0VSWiIiI/GkqsEREROR9LWluIzQDB+Ys6cwtBq4FLgSmxJ1PisprwLeBe1zCXra8Cw0IPXjm5klxZxMREZECpgJLRERE3lVjcxvR8IwDI43jKKITBc8HxsWdT4raOuAHwJ3meM4ZeWdghLTcqk5URERE/pgKLBEREfk9DStacfb2lxXA8cD1wFnAqLjzSUlpA34ErHLGanPkDHAYLSsnx51NRERECogKLBEREQGgqbkNi8ZgAGqAk4mKq9OAurjzSUnbBvwUuN2wxxyuF6KX4tqVWlooIiIiKrBERETK3pGf2kwiEUZfOEZgnE5UXJ0EVMWdT8rKbuBB4HaM3+DoGvgbLSqyREREypoKLBERkTK1pLmVEMAZmBsDnENUXB0DZOLOJ2WtA3gYuB34JbAXAHO03KpTC0VERMqRCiwREZEyM7DHVbTXEBOJNmW/DlgCpOLOJ7KPbuARoiLrZ8BOgBwBz62cGnc2ERERGUYqsERERMrAmAs7mDK5E1yIFzpCz6YBFwPXAEcCibgziryPPuBJYJXB/R5sNQAHLbdoaaGIiEg5UIElIiJSwhpu3IgLATzeWjmRGc1ts4HLgauB+YAXd0aRA5AD1gJ3AveC2wSGH8JTt6nIEhERKWUqsERERErQopva8IPoOEHn5Z2FifnAlcAVwGFx5xM5RAHwAnAX8L2eKnuzossBRjpvPPbVKXHnExERkUGmAktERKSENDZvxghw0SXeJ1oeeDVwKTA97nwig8yAV4BvAt80cq86kgYQevD0zZrKEhERKRUqsEREREpAw4o2PDMMMGdJZ66JaH+rCwE9xUs5eBP4DnC34V5wWOgAPJ81N4+PO5uIiIgcIhVYIiIiRaxxeevbV3OHSxt2DHAtcB4wNu58IjHYCPwAuMvB0wY5MDzPsVoTWSIiIkVLBZaIiEgRamzexD6X8UrgROA64ExgZNz5RArAFuAB4HawpwzX5zDAo2XlxLiziYiIyAFSgSUiIlJEoomrgcu31QKnEhVXpwK1cecTKUA7gZ8Ctxv2iMP1QLR51tqVmsgSEREpFiqwREREisD85dupcNn+r9xIsLOIiqsTiCawROT97QV+AXwd+DXQAeBwrNFEloiISMFTgSUiIlLAmm5owzzDARbtaXUeUXF1NJCOO59IEeoiKrBuBx4CdgNQ2UHLP8+LO5uIiIi8BxVYIiIiBajhpg24wAdnYG4S0WmC1wBNQDLufCIloBd4lKjI+imwHQDP0XKzJrJEREQKjQosERGRAtH02c1YzgDD9SaxTG46cClwNXAk4MedUaQEZYHVwCoc92O0AQQePKNTC0VERAqGCiwREZGYLW1uJcAAR+g851k4G/hQ/495gBd3RpEykAeeBe4EfpDMu/W5hGmPLBERkQKhAktERCQmDStawRwOAws9nHc4cBVwOTA77nwiZSoEXgLuBr5bXV3/WmfnHsAgdLTcpqksERGROKjAEhERGWaNyzdHe1thGC7hsCOBa4GLgalx5xORt70GfAv4BoQvgxcaYKHj6ds0lSUiIjKcVGCJiIgMk8bmTZg5nANwKbAlRCcKfgCYEHc+EXlP64HvAneHZs96zgUAnnOsvkVFloiIyHBQgSUiIjLEGptb3/61GRnnOBa4HjgbGBN3PhHZb23AfcAdwBoghzlCZzy9UksLRUREhpIKLBERkSHS0LwJ986ltgo4iai4OgOojzufiBy0bcCPgVWYexxnvQN/o0VFloiIyJBQgSUiIjLILv7Y66yvqADAHHXOOI2ouDoZqIk7n4gMmt3Az4Hbgd8CXQA4R4uWFoqIiAwqFVgiIiKD5Mjlm0m4EAMcjCJaIng9cBxQEXc+ERkyHcDDREXWL4D2gTcCTWSJiIgMDhVYIiIih6hhRSvOoouqwXjgPKLi6iggFXc+ERk23cDvgFUYP8WxCyCVD3n8q1PiziYiIlLUVGCJiIgcpMXNrXiAMzDHFOBC4FqgAUjEnU9EYtMHPAGsAnvAcFsdEHrw9M2ayBIRETkYKrBEREQOwLzl26n2coRm+GGewEvMBC4DrgYWAH7cGUWkYOSAFuBO4D7P2BQ6cJ7PmpvHx51NRESkqKjAEhER2Q9Nn24DHwwj4SdcPsjPBa4ArgTmoGuqiLy3AHgOuBv4fi7seTPpVeB50Lk3x8urpsedT0REpODpZltEROR9LL5pAy70+/e4cp5hRwBXAZcDM+POJyJFxYBXgG8A30olwlezec/A4bs8T90yNe58IiIiBUsFloiIyLtobG7DOTAzzJFwRgNwDXARoN2YReRQvQl8G7gH572AhaEBHo41KyfGnU1ERKTgqMASERHZR2PzJjAPnOGcS5nZMqKN2c8nOmFQRGQwbQR+ANxlsNZB3uEwF9Jyy+S4s4mIiBQMFVgiIiJEE1fR6h7AXAXOjgeuA84GRsWdT0RK3hbgR8AdDvekmWXNgecZa25WkSUiIqICS0REylpjcxs4G+iuqoFTiIqr04G6uPOJSNnZAfwUWGXwiIMeiN6i1q6cFHc2ERGR2KjAEhGRsjTrmj3U1XVFXzjqMc4kWip4MlAVdz4RKXt7gQeBVcCvgE4ceCGsvlVFloiIlB8VWCIiUlYabtyICx3OOcwYDZxLNHF1LJCJO5+IyB/oBH4NrDLHgxh7ogMmNJElIiLlRQWWiIiUhUU3tuGH/XtcYRPAXUA0cbUESMWdT0TkT+gFHgHuAH5MtNQQQmi5TUWWiIiUPhVYIiJSsmzhPTSddAoQ4gcQ+EwFLgE+DCwCEnFnFBE5QDngSeBO4Ic4NpuBhY6nb5sYdzYREZEhowJLRERKzsLlm0l4hjNjZ89ERlW0zQI+CFwFHA54cWcUETlEeeBp4G6D7/seG8IQPOdYfYuKLBERKT0qsEREpGQ0rGjFhYCDwHOeH9pcotLqg8Bh6LonIqUnBF4E7gG+07Kx6/XGKVWEQGABz906Ne58IiIig0I38iIiUvQWN7fiYYADcz7OFhItE7wUmB53PhGRYfIq8G3gnjzhywm8aOM/By23aJ8sEREpbiqwRESkaC25sY0wsKi3wpIO10i0MfuFgJ7WRKRcrQO+B9yNs2cxF+AcfmA8pQ3fRUSkSKnAEhGRotPU3IY5w6LuKg0cDVwPnAuMjTufiEiBaAV+CNyBc2swy0V/2WhZOTnubCIiIgdEBZaIiBSNhhWtOOv/wlGJcQJRcXUmMDLufCIiBWob8GNglcFjDvoG/kbLSk1kiYhIcVCBJSIiBa9pRRtmA80VtcApRMXVqf1fi4jIn7YL+DmwCvgN0G1Ex7KuUZElIiIFTgWWiIgUrMbPbIZ8GH3hGIlxJlFxdQJQGXc+EZEi1Q48DNxu8EsXfY2WFoqISCFTgSUiIgVn8Y2teCEQnSw4lmhvq+uJ9rpKx51PRKREdAO/JZrI+hnRhBZ9PXle+K9pcWcTERH5PSqwRESkYAzsceUAi04RvIDoVMEmIBl3PhGREtUHPA7cAdzvcNsMw3Mhq2+ZEnc2ERERQAWWiIjEbOxFWSZP2gkuxAscoW/TgUuAa4CFgB93RhGRMpEDWoA7gXvNXKtzhsOxZuXEuLOJiEiZU4ElIiKxaPzUekj4gIN8JSS65wAfBK4E5qNrlIhIXALgOeBu4LsBrPMBnJHqG8HjX6uKO5+IiJQhPRyIiMiwWnTjZvwgBAfOBZ6ZfzhRafVBYHbc+URE5G0GvAx8E/hmaMFrnvPNeYY5j5avaCpLRESGjwosEREZFo3NmzEX4MyBOR9ni4GrgUuBqXHnExGR9/UG8B3gbufbixa40IDQg2dunhR3NhERKQMqsEREZEg1rGjDGYBhzlLO3BKijdk/AOjjexGR4rIBuBe4wxzPOCPvGZjzWLNyQtzZRESkhKnAEhGRIdG4vBXr3/wXcxmcHQtcB5wDjIk7n4iIHJLNwAPA7c54yhxZAxxGy8rJcWcTEZESpAJLREQGVWPzJnAODAyqHJxEVFydAYyIO5+IiAyqHcDPgK8bPOqgB6LNs9au1NJCEREZPCqwRERkUDQub+2/qjhwVodxGlFxdQpQE3c+EREZUnuAXwBfB34NdA78jRYVWSIiMghUYImIyCFZsHwbaZcb+HIUcDZRcXU8UBF3PhERGVadRAXW7cBDRMUWDlijIktERA6BCiwRETkoTTe0YZ7hMAw3jmhT9muBZUAq7nwiIhKrHuBRYBXwE4MdDsgT8uzKKXFnExGRIqQCS0REDsjimzbgBT44A3OTgYuAa4BGIBF3PhERKShZ4ClglcH9Hmw2AActt2giS0RE9p8KLBER+ZNO/VSWPYntAKS7K+mr7J4BXAZcDRwB+HFnFBGRgpYHngHuBH4AbgMYfghP3aYiS0RE/jQVWCIi8p6alm/GvADM4TzPWRjOAa4ArgTmouuIiIgcmBB4Ebgb+O6alRNfb2puA4x03njsq1peKCIi704PHiIi8kcW3diGHwIYzpln5hYQTVtdDsyMO5+IiBQ9A14DvgV8w8i/7EgYQOjB0zdrKktERH6fCiwREXnbkuYtGCEWbcyecNhiov2tLgb0sbiIiAyFdcB3gbsNnnMQOADfseYrE+POJiIiBUIFloiI0Ni8CTOHc+CcS5vZUqITBT8AjI87n4iIlIVW4D7gDgctBjkwPM+xWhNZIiJlTwWWiEgZa1zeGv3CgRkVznEscD1wDjAq7nwiIlKWtgEPAKvAHjdcn3MG5tGyUhNZIiLlSgWWiEgZalixCWf9lwCjGsfJRMXV6UBd3PlERESAXcDPgdsN+63DdUO0edbalZrIEhEpNyqwRETKSGNzW7S7FQ6weqLC6nrgJKA67nwiIiLvoh14GPh6/8/tAA7HGk1kiYiUDRVYIiJloPHT68FPAGC40Q47B7gOOA7IxJ1PRERkP3QDvwVuJ5rM2oWBH1Tw1FdHxp1NRESGmAosEZES1rS8DXNG9HZvE4DziYqrpUAq7nwiIiIHoQ94nKjI+jHOtmEOPEfLzZrIEhEpVSqwRERK0KIVG/HNG/hyKnARcA2wGEjEnU9ERGQQ5IAWYBWOHxLSigNCaLlNe2SJiJQaFVgiIiVi3vLtVHk5zIyabAUdqe5Z4C4HrgIWAN4h/itEREQKUQA8B9wJ/MDzvbfCINQeWSIiJUYFlohIkWv6dBuhH92oO+c7s2Ae8CHgCmAOeq8XEZHyYMBLwDeA7yQSyVfz+ZyBQeg0lSUiUuT0UCMiUqQW37QBF/o4A8N8h1sIXA1cCsyIO5+IiEiM3gC+DdwD4YvghQZY6Hj6Nk1liYgUIxVYIiJFpnF5K85zmIE5SzqjkWh/qwuByXHnExERKSAbgO8Dd4XwjAd5AM85Vt+iIktEpJiowBIRKRKNKzZh5uEwnHNpM1sGXA+cC4yLO5+IiEgB2wz8CLgDeArIOiAIjadv02c/IiLFQAWWiEiBa2xu7f+Vw6DSYccTFVdnASPjziciIlJEdgA/AVY5eMSg13A4QlpWqsgSESlkKrBERApUU3MbFm1wBVADnApcB5wG1MadT0REpIjtAR4EVhnuVw7rAsA5WrS0UESkIKnAEhEpMItu3IYf5qIvHCMwziQqrk4EquLOJyIiUkI6gYeJlhY+BOzBAActK3VqoYhIIVGBJSJSIBo/vQF8v/8rNwbsPKLi6mggE3c+ERGREtYDPAKswvgpjh0AicB48j+0tFBEpBCowBIRidmiGzfjhyE4B2YTgQuAa4ElQDLufCIiImUkCzxJNJH1I4MtDjAz1t6qIktEJE4qsEREYtLYvBkISQQhed+bBlwKfBg4EvAP6R8uIiIihyIPPA3cCfzAc2wMDZznWHOz9sgSEYmDCiwRkWG05MY3CYI0zkFvvpJMovsw4IPAVcA8wIs7o4iIiLwtBF4A7gG+k+3pfSNVkcE56GrP8fKq6XHnExEpGyqwRESGQdMN/ScKOghDPM9jPnAlcAUwO+58IiIi8r4MeBX4FvBNz9nLYf+F3Xd5nrplatz5RERKngosEZEhtGjFRnxzgMOZS5izhcA1wCXAtLjziYiIyAF7C/gucA/Oew4LAwM8HGtWanmhiMhQUYElIjIEmla0YWE0cWVYyuGaiDZmvwDQ3a2IiEjxawXuBe40aHGQczjMhbTcog3fRUQGmwosEZFB1NC8CXDRm6uRwXE0cD1wLjAm7nwiIiIy6LYCDwB3OHjcjD5z4HnGmptVZImIDBYVWCIig6BhRSvOol+bo8oZJxIVV2cAI+LOJyIiIkNuF/AzYJXBbx10Q7R51tqVk+LOJiJS9FRgiYgcgqYVbZjZwJe1wGlExdUpQE3c+URERGTYtQO/AFYBvwQ6ADyD1beqyBIROVgqsEREDsJxn9tBT7YPw3C4kcDZwHXA8UBl3PlEREQkdl3Ab4mKrJ8Z7HZoIktE5GCpwBIROQBLVrQRmhHdfrpxwHlExdUyIB13PhERESk4vcDjwB1Ee2VtAyCElttUZImI7C8VWCIi+2HxjW14oUW1FUwGLgSuAZqARNz5REREpODlgNXAXcB9OFrNwELH07fpgGIRkT9FBZaIyHuY96U+qnt3EYYhyRzkkswALgWuBhYCftwZRUREpOgEwLPA3Qbf8z3WhSF4zrH6FhVZIiLvRQWWiMgfaPzUevCS4BkV6Yzr6eudA1wBfAiYh947RURE5NAZ8BLwDeDbmYR7tTdvWGjkXchzt06NO5+ISEHRQ5iISL+GG9pwzqJ3xtB5eLYAuAq4HJgVdz4REREpWa8D3wHuDsLwJd/zQjBwjpZbtE+WiAiowBIRobF5M+YCnDkwl8DZYqL9rS4C9PGniIiIDJf1wA+AO8GeBZfHOfzAeEobvotImVOBJSJlq2F5K85FB1qbs5Qzt5ToRMHzgQlx5xMREZGy1QbcD6zCudWYZaO/bLSsnBx3NhGRWKjAEpGy07i8FTwDc5i5CufsWOB64GxgdNz5RERERPptB34K3A48CvQO/I2WlZrIEpHyogJLRMpGY/MmcC7aMtVZNeZOIiquTgfq484nIiIi8h72AA8SFVm/BrogephboyJLRMqECiwRKXmNza3vfOGowziDaKngyUB13PlERERE9lMH8CtgFfAQsDf6y1paKCKlTwWWiJSsRZ/ZjJ8PB74cDZxDVFwdC1TEnU9ERETkIPUAjxAVWT8BdgLksgHPfU3nz4hIaVKBJSIlp+mGNswznBnm3HjgA0TF1VIgFXc+ERERkUHSBzxFVGTd73BbDMNzIatvmRJ3NhGRQaUCS0RKRkPzBhw+OANzU4CLgWuAxUAi7nwiIiIiQyQPrAXuAn5g5jY6Zzgca1ZOjDubiMigUIElIkXtgr/tZdOOneCgOphIp982C7gMuBpYAHhxZxQREREZJiHwPPAN4Nvdjjcro8NrSPWN4PGvVcWdT0TkoKnAEpGitHRFGyGGGXihc6Fn84AP9f84DL2/iYiISPky4FXgW8A3zMJXnPPMeYY5j5avaCpLRIqPHvBEpKgsurENPzQAnOd8C+0Iommry4AZcecTERERKTBvAd8F7nKevWChCwxwAbT8x6S4s4mI7DcVWCJSFJbeuJkwNAwDSAINRPtbXQTo3GgRERGR97cJuA+4w2Ctg5wzCBw8vVJFlogUPhVYIlLQGm9oA69/4sq5tJktA64FzgfGxZ1PREREpMhsBR4AbnfGk+boM8BhtKzUZ4IiUrhUYIlIQWpc3tr/DmWAqwSOB64HzgJGxp1PREREpMjtBH4OfN3gEQfdEN15rdVElogUIBVYIlJQGlZswtnbb001wClExdVpQG3c+URERERKzF7gYeDr/T93DPyNFhVZIlJAVGCJSEFobG6NfmEOnI0AziAqrk4EdOaziIiIyNDqAn4L3E40mbUbogfGNSqyRKQAqMASkVg1rViHWXLgyzHAucB1wDFAJu58IiIiImWmF3gcWAU8YLDdAQHGM9ojS0RipAJLRGLRtLwNcwbmgQsnAhcQbc6+hOiUQRERERGJTw5YDdwB/NBBmwE4aLlFE1kiMvxUYInIsGq4aSMu8Pr3ZmcacAnwYWAR4MedT0RERER+TwA8C9wJ/MDBOiM6JHr1rSqyRGT4qMASkSF3xOe3kuwNcM54/osPcMS/nHsYuMuBq4D5gBd3RhERERF5XyHwMnA38J3KLnutu8oBRjpvPPbVKXHnE5ESpwJLRIZM06fbCP0QhyMIPc/3wvnAlcAHgcPiziciIiIiB+V14NvAPRC8BH4IYGasvVX7ZInI0FCBJSKDrqF5PbgEzsAw3+EWAVcDlwLT4s4nIiIiIoNiA/A94C6iZYZ5B+A71nxlYtzZRKTEqMASkUHTuLwV5znMwJwlnbEEuAa4ENBdjIiIiEhpagN+BKxysMYgC4bnHKu14buIDBIVWCJyyJpWtBKaw2E45zJmdjRwPXAOMDbufCIiIiIyLLYDPwFuB3sMXG80ku9oWakiS0QOjQosETlojc2tb//acJUOO5GouDoTGBF3PhERERGJxW7gQeB2w37jcF0QHUK9VkWWiBwkFVgicsCamtsIsYE3kFrgNOA64JT+r0VEREREOoCHgVXAL4C94HDAmpXaXUJEDowKLBHZb4tXbMGzAACDkQ7OIpq4Oh6ojDufiIiIiBSkHuAR4HZwPwXbiYEXplj9H2PiziYiRUIFloj8SU0rNmLmDXw5FjifaOJqGZCOO5+IiIiIFIUs8ATRRNYDONuCOZw51tyqiSwReX8qsETkPTXc0Ibzoo03cTYJuIjoVMFGIBl3PhEREREpSnlgLXAHcJ/BRgcQQstt2iNLRN6dCiwR+SONK9rADN8PCQJvBnApcDWwEPDjziciIiIiJSEEngfuBr7nJ5NvBLkcIfC0NnsXkT+gAktEAFhy4xsEQQbnwPlJZ0FuDvBB4EpgHnq/EBH5I2b9P/q/du6dN0vr//sQ/TXnoh8iIvJHDHgV+AbwrZzvXkkG0bur5xyrb1GZJSJ6IBUpe003tGHOwIFF9wgLgKuAy4FZcecTESk0ZhAaJHyoq/IYP8Jn0qgEY+s96qs80sno9qo3Z+zpDNm2J6B1Z8CW3QHtXSH5EDyVWSIi7+Ut4NvAN3D2POYCAyx0PH2b9skSKWe6dRIpU4tv2oAXeIDDGQlzLCLa3+oSYErc+URECk0Ydf2MrfdZNDPFsrlpDp+aZMJIn6qMR+I9FljnA6Oz12jbGfDC+ixPvNLHs29m2dEeYkRlloiI/JFNwA+AuwzWOsgB/RNZKrJEypFumUTKTMPyNpyL1rQYlnK4pcC1wAeACXHnExEpNGaAg2ljE5zVWMFpizNMH5cgmTi426hs3nhzc56Hnu7hoZZeNmzPA5rIEhF5D1uB+4lOLnwS6HNAEBpP3zY57mwiMox0qyRSJhqaNwFu4Ju+AjgGuB44Bxgddz4RkUIUhjC6zuOCoyu56JhKpoxJDOo/f93WPD94tJv7n+xmV3uI58X9OxYRKVg7gZ8Btzv4nTl6MAeEtKxUkSVSDlRgiZS4hhWt9A9cYY5qZ5xEVFydDtTHnU9EpBCZRRNRR81N84mza2iYlRqyCakwhNWv9fF/ftpBy+tZ+ge+RETk3e0FfkE0kfVLoBMA52jR0kKRkqb7I5ES1djcxjvnYlFHVFhdD5wMVMedT0SkUJlBJuW47Pgqrj+jmpE1wzMWtX1vwP/9WSf3PtZNX860pFBE5P11Ab8G7iCazNoz8AlAy0qdWihSinRrJFJilt20jVyQG/hyFNESwWuB44mWDoqIyHsIDeoqPT55bg2XHl9J6iD3uTpYvVnjW7/p4j9/2kFXr0osEZH90As8CtyB8WMc2wF8M566VUsLRUqJbotESsSSFa2EMLDb8HiiTdmvAZYBqbjziYgUOjOoq/K46aJaPrCsEj+m/ajyAXzvkS5u/VE7nT0qsURE9lMOWE00kfVDM9qcAzNjrYoskZKgWyKRIrf4xja80KKJaccUjIuIiqsGYHB3GxYRKVFmUJl23HRRLZceVxX7Zur5AL7x607+4/4OerMqsUREDkAAPAPcBXzfw60PMZznWHOz9sgSKWa6HRIpQvO+1Et1727CMKQyC90pZgKXAVcDRwA6x0pE5AB4Hnz0zBo+fnY1Sb8wbo+yOePW+zu4++HOaLhWREQORAi8BHwD+PaEGRNf2/xWG85BNujludtmxZ1PRA5QYdyhich+aVqxHguT4IxkIuly+dxc4EPAFcBc9D0tInLAQoMzGyv4qyvrqKkorP5/T2fI3961h9881xv7VJiISBF7Dfg28A3P2UuhuRDAdwFP3TI17mwisp/0sCtSBBpuaMM5i75jQ+fj2QKiaavLgJlx5xMRKVahwYxxCf7l4yOZNaEwV12/tCHHF/9rF607AzzduYmIHIr1wPeAu4mWGQYGeDjWrNTyQpFCp9sgkQLWuKINCMEcmEvibDHRiYIXAlPiziciUuwSvuPPL6/jkuMq447ynszgnl918uV72wnDuNOIiJSENuCHwJ0Gqx1kAXBGyy3a8F2kUKnAEilADctb39mw11kac0uB64HzgPFx5xMRKQVBCCcckeYfrh9BdYEtHfxDe7pCvvifu1j9alZLCUVEBs924MfAKuAxoDfactBYu1JFlkihUYElUkAal7eCM/q/NSuA44CPAGcBo+LOJyJSKozo1MF/uH4EJxyRiTvOfvnZmh7+n7v2kM1rR3cRkUG2G3gQWGXwawddEF0r1q6cFHc2EemnAkukADQ2t2I4HAZYNbhTiCauTgPq4s4nIlJqghBOWpjhHz86gopUcdwOdfSEfOH/7OaJV/rwNYUlIjIUOoCHiSayHgLaATyD1beqyBKJW2HuVipSJhqa2/pLK3BQD5wB7iPACUB13PlEREpVOuk4Z0lF0ZRXADUVHmc1VdDyeh+hhrBERIZCDXABcDrwO+AO4CeBY1djcytmsFZFlkhsiueuTaSELLqpDT94++ljDHAO0cTV0URLB0VEZIiEIcydnGTl8pGMrvXjjnNA2nYFLF+5k3Xb8jqRUERk6PUBTwB3Aj9yjq3WfzD4Gi0tFBl2msASGUZNN7RhnuECI4QJLvqE51pgCZCKO5+ISLk4am6aUTXFVV4BjK/3aTosxVtb8/oYUkRk6KWBE4FjgU+YcSdwr2Gbooksx9pbJ8adUaRsqMASGQYNzRtw+IRegAu9aQYXuai4OhJ9H4qIDKuKtOOoual3TnstIp4XlW8/eqKbfBB3GhGRspEAjgKagI+Du8fgu6mkvdnY3IrnYPUtmsgSGWp6cBYZIhf+TZ6NO7eCg+fHrOSI7c2zXehdDlwFHA5oC14RkWEWGoyt95k9MRl3lIM2b3KSUbU+W3YFRVnCiYgUMR9YBBzp4CO5PN8E9y0Pe6WxudXMjDAZ8MyXp8WdU6Qk6bZHZJAtumEjCd/DDFzoPPNsHvCh/h+z0fediEhsghBOXZThnz46gmSiON+Oe7LG5/73Lh57WacRiogUgDeB7wJ3hWH4gud5IRg4R4umskQGlSawRAbJohvb8AeOhXL4GEeaZ1cDlwH6GEZEpAA4YOaERNGWVwAVKceM8Qkee7kv7igiIgIzgS8BV3qedy/RyYVPY+Qbm1vxQ3jqNhVZIoNBBZbIIVp642aCMIzWpTiSGE0Wcg1wEaBdHUVECojnwdQxxX/7M3VsQqcQiogUlinACuBycA8AtwNPBR59jc2tgNGycnLcGUWKWvHfwYnEZPHyNnxHVF5FJ5QcjXEdcB4wNu58IiLy+4xoemlsffGdPviHxtX7JBNoI3cRkcIzHvgYcCHwc+DrGI/gXE/jilYALS0UOUgqsEQOUOPy1v5drAxwlcAJwPXAmcDIuPOJiMh7MEgnHXWVxb9xVF2VRzrpyOVNG7mLiBSm0USHN52L45dEE1kPY3Q2NrfigDUrVWSJHAgVWCL7qXHFJrC3nxJqgVMNuw44tf9rEREpcEnfUZkp/sanMuNI+o7owxQRESlg9cAlwJkYvwFWAT832KOlhSIHRgWWyJ8QXVgchICzEcDZwLXAiUBl3PlERGT/eR79xU9xSyUcXvEPkomIlJNq4FyiD78fIyqyHgC3o7G5ldACnr51atwZRQqaCiyR97Dk01sI/bc3FxmLs/OBa4BjiPa8EhGRYmMQWvFPLfkeeFo7KCJSjDLAKcBxwGqiUwt/6Lnk5sbmVpwLWXPLlLgzihQkFVgif6BpeRvmjMAFOGMScCHYNUATkIw7n4iIHLwQiM7eKG6eQ3tfiYgUtxRwLHAU8GcQ3gl838LEhmiPLMealTrQXGRfKrBE+jXctBEXeODyYP50Z1wKXA0cCRT/kVUiIoLnoumlYud5TgWWiEhpSACNwGLgY7jwG8C3M1b9emNzKzgj1T2Cx/+rKu6cIrFTgSVl7chPbcb3DeeMfGUviY7MHDP/CuBDwHz6zxsUEZHiZ0RTS55X/G/tvhf9XgxdqERESoQHHAH8T+D6HtfxbeAeM17OVuwJG5o34ZnHmls1lSXlSwWWlKWmT7dhiRAsJAw9zzk7PNGRuQq4HJgddz4RERkajmgKq9iVyu9DRET+iAMOA/478GGH+x5wF/CsOQsam1shgJb/mBR3TpFhpwJLykpD83pwCSzawDcBHOl54TVER9vq2A8RkTJQ/Fu4A06TVyIiZWAa8DngCof7EdHJhS34ZJuaWwlDWHubiiwpHyqwpCw0Lm/t3+3WsGjDxCbMXQd8ANAcroiIFBcrkSJORET2xyTgU0Qfuv8EuB3jcefR27C8FedByy0qsqT0qcCSktbQ3LrvlxngGGd8BDgbGBN3PhERGT4OCA2CEjiFMB9Gvw9NYYmIlJWxwHXABeZ4EPg68FuMrsbmVgxYu1JFlpQuFVhSkhp/v7iqAk4C+whwGjAi7nwiIhKPfGD0Zot/dqk3a+SD4v99iIjIQRkBfBA42zl+RVRk/dJBe/Qc5GhZqUUmUnpUYElJaWhu3ffT6DqiwuojwElATdz5REQkXvmAkiiwerIh+SDuFCIiErNa4ALgdOAR4HbgpxDuamxuxTlYo6WFUkJUYElJWPLJNsJk9EBiMMpFSwSvA44DKuPOJyIiBcBBLjC6+4p/DWF3n5HLm9YQiogIRM87ZwAnAk+AWwU8EIZsbWxuJfRCnr55StwZRQ6ZCiwpak0rNmLmEWA4GA+c7+Ba4CggHXc+EREpHA7I5oz27uKfwGrvCunLm/orERHZV5qoxDoWaHGOO4D7/MDb1NjcijlYq4ksKWIqsKQoNSxvwzkjDME5pji4kKi4akCvaxEReQ/5AHZ1FP/au12dIUHQf8CuiIjI70sQfaDfBHzCHHcB308GvNnY3IpnsPpWFVlSfPSgL0WlcUUbmJHy82QDf6ZzXAp8GFgA+HHnExGRwmbAjvbiX0K4sz3E0ApCERF5Xz6wCDgS+Fje4x7g26nAvdrY3GpgpPPGY1/V8kIpDiqwpOAt+8ROculeAHzfd0E+Pzcb+FcAVwJz0P27iIjsJzPYujvArHinl8xgS//vQVdAERHZDw6YB/wdcH1vwr4N3AP2Yl/CCxpXtGKhsfbWyXHnFHlfKrCkYDV9ug18I0cvZs53zhYE+fxVREfGzog7n4iIFKdtewP6ckYmVZztT1/O2L6n+JdBiohILGYCfwFcDd4PgDuBp51z+YYVrTjP0fKViXFnFHlXKrCk4Cy+aQNe4GPRxuxJYLFzdg1wMaCPBURE5KA5Bzv2BnT3FW+B1dVnbG8PinaCTERECsIU4Ebggxj3A6uApwisr7F5E55zrNaG71JgVGBJwYg2ZgcCg+gEjaUG1wEfAMbFnU9ERIqfA3Z3huzqCBhZ48Ud56Ds6gjY3RFq9aCIiAyG8cDHgYud8ROiIuuR0OhpbN4EOFpWqsiSwqACS2LXuGITmCPaWtdVAMcB1wNnA6PiziciIqXDOejsMbbsDpg9MRl3nIOyZXdAV69pAktERAbTKKLDsT4A7iHgduBXQGdDcysAa1VkScxUYElsGla04oyot4Jq4BSw64DTgbq484mISGnqyxmbdhTvHlKtO6I9vFRgiYjIEKgDLgXOAvdrYJWDB4E9jc1tOIw1KrIkJiqwZNg1NrcBIYSAox44g2ip4ElERZaIiMiQCQ3e2pKPO8ZBe2tLntDAV4ElIiJDpxo4DzgNeJRoaeFPQtje2NyKCxKs+Q/t8iLDSwWWDJsjP72ZhB/SP3I1Gse5wLVESwYzcecTEZHysXF7nt5s8W3k3ps1Nm4v3vJNRESKTgY4FTgebLWLiqz7SeTaGptbceZYc6tOLZThoQJLhlzD8k0453AuwMxNAC4Adw2wFEjFnU9ERMqLc7B5V0B7d0gm5ccd54Ds7Q5p26UTCEVEZNilgGOBZcCfmbk7gXtDZ+sbm1shhJbbtLRQhpYKLBkyi29swwsN5zkstKlm7hLgaqABKK4nBhERKRkDJxFu3RMwtr64Lkdbdwfs6dQJhCIiEhsfaCJ6pvu4g3uA7048Ys9rNLdiBmtvVZElQ0MFlgyq0yq62fvxvYQWMu8teHkasy20y4ErgQVAcZ5ZLiIiJcM56OoN2bQjYOH0uNMcmNYdAV29oSawREQkbh5wBPD3wEfaXqz/JvBNg5cam1vNYTjnWH2LyiwZPCqwZFAc3ryVDAG72U3CJVxo4fyXp9mHgCuAOXHnExER2Vc+gPVbi28vqXXb8uQD8PRxkIiIFI7DgL8GrvUc3wXuAp4LjaBheRvOC2m5ZXLcGaUEqMCSQzL3unVU1iRx5AHnAwvzYf7DREevTo87n4iIyLsxYP22PEEIfpGUQUEIG7blo6NQRERECs804PPAhwx3H3AH0IK5XGNzK46ANSunxp1RiliR3LJJIVrS3Ep1TRKzgXXQ9mXgfqI3relx5xMREXk/bTuj5XjFoqs3pHVnXvtfiYhIoZsE3ADc55zdRrT5e9LwaVrRFnc2KWKawJID1rC8DeeMhDmXdbbQc3wMuByYEHc2ERGR/eE52L43YG9XSG1lcXyet7crZPte7X8lIiJFYxzwceAC4F7ga57z1jY2t4aBwTPa7F0OkAos2W9LbmwjtBAwMKZlnX0E+AigOVARESkuDjp6okJoypi4w+yfbXtDOntCNIIlIiJFZizwZ8B5QRjcAfxn0rM3G5tb8ZzP6lvGx51PikRxfOQosWta3koYGkANxvVEDfrfoPJKRESKkAN6ssaW3UHcUfbb1t0BPVlTfyUiIsVqEvDfgPtCc58E6gILaGhujTuXFAlNYMn7amzeCHj4IS7vOBpzXwTOATJxZxMRETkUQQhbdhXPSYRbdkWbzntqsEREpLgdAdwMnOvgn0PHo43NrYZvtHxFpxXKe9MElrynxhva6H+JjM57/DfgO8DFqLwSEZESYBYtyysW2/aGmI4gFBGR0pAi2hvr257x34DR5D2amrXJu7w3TWDJHzn849vJZPpwuyqxkV3HAH8NnAn4cWcTEREZTDvbA4IQ/AL/SC8fwI724lnuKCIisp8mAn8HnICzv6tOph5rbG6lwq/kka+MiDubFJgCv12T4da0YhOZTA6gykZ23QB8i2jJoMorEREpObs6Q3qzhT/W1JszdncUz7SYiIjIAfCBs4FvduSyn8ZcZU/QTcNy7Y0lv08FlrytoXkzZg5gCrgvA/8W/VpERKT0OAd7OkN6iqHA6gvZ3RnitP+ViIiUrqnAv+Psy8AU50HTjZviziQFRAWWANDY3Eoq0QdwDNjdwMfRXlciIlLCHNDRE9LRXfiTTe09RmdPqBMIRUSk1GWATwB3YSwL+zwalqvEkogKLKGxuRUwP5dPfgi4Czgh7kwiIiLDoTdr7O4s/AJrd0f/pJgaLBERKQ8nAne5pF3mMK+hWcsJRQVWWVv4pRdpXN6KQQW4zwC3ATPjziUiIjIcnBsosAp/c/TdnQG9OVN/JSIi5WQ28FWc14yRblSJVfZ0CmGZWvzZNrxuw0Ed8FfAcqAi7lwiIiLDKR/Ajr2FP4G1fW9IEKA9sEREpNyMAv7BOcYB/9i4orUjHYQ8dpu2ai5HmsAqQ0tubMXLGTgbY45/BT6DyisRESlDZrBtb+FPYG3fG2CFv9e8iIjIUKgEvgj8I8bIPs+jsXl93JkkBiqwysyi5a2E0QfN4zH3ZeCjaBJPRETKlBFNNxVyOWTWX2DFHURERCQ+SeCTwL+BjYEEx6zYGHcmGWYqsMpIw/ItJKKlBxOAm4Er0WtARETK3K6OgGy+cOuhvpyxq6PwlzmKiIgMMR+4Fty/OxjTZ3qULTf6L15GnAswGA98GbgMnWUkIiJlzgF7OkN6s4VbYA2clKiLtoiICB5wlcG/OhjV2NwWdx4ZRiqwykRD9I09CvgX4HJUXomIiICDvd0hPQVcYPVkjb1doa7cIiIiEQ+42uDvgbrGFTqdsFyowCoDjctbAWqA/0G0bFC3wCIiIkQXxJ4+o6O7cJfo7e2OJsR08RYREXmbD3wU7K/BVfY/80qJU4FV4hpuaAVnaYd9Efg40Te6iIiIALhoj6m9XQVcYHWF9OZMHz+JiIj8vgSwHLMVBskmLScseSqwStji5ZsB54H7GPA5opMbREREpJ8DenPGngIusPZ0hmRzmsASERF5FxngvznHlZ7DLVu+I+48MoRUYJWohuWbSNGL8+xc4G+BqrgziYiIFKIggN2dhVtg7eoICQo3noiISNzqgP8VmJ2S9XpYuGJT3HlkiKjAKlGe55F3qSOBfwLGxp1HRESkUBmws6NwG6KdHQFWuHvMi4iIFILJwD878w5LmmaWS5UKrBLU2NyGYWOBfwQOjzuPiIhIITOLlukVqj2dIeqvRERE/qQm4H+C1Tcu135YpUgFVolpWNEGWArjC8BZcecREREpdGbRRulhAbZEQRhlU4MlIiKyXy4GdwMO/+jPbIw7iwwyFVglZMGndlHdnQO4GPgk+u8rIiLyJzkHHT0huXzhtUTZnNHRoxMIRURE9lMS+CzYmdm8H3cWGWQqOEpIOtFNV0ViHvA3QG3ceURERIpFR4+RzRVggZU3OnpC9VciIiL7bzTwt2BTG5q1oXspUYFVIhpvbANcJfCXaN8rERGR/eYcdPaE9OXjTvLH+nJGpyawREREDtRRwOeBVOMnN8SdRQaJCqwS4aUcwOXAZXFnERERKSYO6O4z+gpwAqsna/RmTf2ViIjIgXHAdQ53Dqlk3FlkkKjAKgFNzW2EvXYY8CWgIu48IiIixSYfGD19hXcSYXefkQsKr1gTEREpAnXAX2DhxCadSlgSVGAVuWjpICmwG4H5cecREREpRrl8NO1UaHr6jLwKLBERkYN1FPBngLfk+s1xZ5FDpAKryFlgGHYicDXaIUNEROTAuYEJrMIrirr7QnL5aJ8uEREROWAe8HFz1hhUF951Xg6MCqwidswXtuIcdcBngRFx5xERESlGDsgFBTqBldUEloiIyCGaBNzkjEzjCp1KWMxUYBWxjo4+gAuB0+LOIiIiUsyCQp3A6jXCwoslIiJSbC7A2amEGmkuZiqwilTTjW2kkv444NNAOu48IiIixcygIE8h7M0ZVnixREREik0tsBxHbWOzNnQvViqwilR1XS/ApcCSuLOIiIgUOzPI5guvKSrETCIiIkXqFOAsKLxTh2X/qMAqQkc176Bjd3oC8FEgEXceERGRUpDLx53gj2Vz0XSYiIiIHLIK4BPg6hYt115YxUgFVhHa6+2AaO+rRXFnERERKQVGYU475Qowk4iISBE7Hjgt4akKKUb6r1ZkFt+4kaqwdjRwDZq+EhERGTSFWGBl86YRLBERkcFTAVwXmlXFHUQOnAqsIuMHCcBOB5riziIiIlJKggLcEiMfqr8SEREZZCc7WNbU3Bp3DjlAKrCKjLmwErgKnTwoIiJS8nQCoYiIyKCrBa7EtKKp2KjAKiKN0UZzTcAJcWcRERERERERKVJnmWNO0yfb4s4hB0AFVjEx84CLgfq4o4iIiJQaz8Wd4I/5BZhJRESkBEwCzqNDF9piogKrSJxx9RvgeZOAs+POIiIiUooSftwJ/pjvg26tRUREBp0HXGCjwvq4g8j+U4FVJLaPrAQ4EZgddxYREZFS44BkAY47JX2nBktERGRoLMJoalihZYTFQgVWkfBCSwLnA8m4s4iIiJSidKrwmqJ0svAyiYiIlIga4FzzTBfbIqECq1g4mwEcE3cMERGRUuQcZAqwwMqknAawREREhs4pLmBM3CFk/6jAKgJNK1oBjgUmx51FRESkFHkOKtOFVxVVZRyu8GKJiIiUirkOGpbc1Bp3DtkPKrCKQwI4FSjA7WVFRESKX8J3VBbgBFZVxuHpbk1ERGSoVAIng5YRFgPdEhUBM8YDR8WdQ0REpBSZQUXaMaKm8D4nqqv0SCcdFncQERGR0nV8GLrauEPIn6YCq8DNXfEmwJHA1LiziIiIlCIzmDTKZ9Kowiuwxo/0qa/yMDVYIiIiQ2Uexqy4Q8ifpgKrwH1hxwyINm+viDuLiIhIqVo6J01tZeHdFo2u9ZkxLqECS0REZOiMBJYsWaF9sApd4d2pye+5bXRbBbAk7hwiIiKlyAxG1HicfGSmIDdLz6QcS+ektQ+WiIjI0PGAo8Dpalvg9B+owDljAjAv7hwiIiKlKDQ49vA086Yk447yno5bkGF8vU+oKSwREZGhsig0GxF3CHl/KrAK2OLPvAVReTU+7iwiIiKlxgxG1XhcelwVqUQBjl/1mz4uwekN2klARERkCE0HpsUdQt6fCqwC5mczAIuBTNxZREREStH5yypZOD0Vd4z35Xtw6fGVzJqQIAzjTiMiIlKSRgALGpa3xZ1D3ocKrELmBUmgIe4YIiIipSYMYcG0JB86qYpE4R0++EemjU3wibNrqKl02tBdRERk8PlAo6NwJ7JFBVZBM7xRwPy4c4iIiJSSgY3bP3VuDRNGFkF71e+0xRk+cmYNqaRKLBERkSGwCBdWxx1C3psKrIJms4DJcacQEREpFQakEo7rz6jm6PnFtUI/4TuuPLmKD59aRTKhEktERGSQHQZMiDuEvDcVWAWqqXkzwEKgNu4sIiIipcIBFx9byeUnVOEX4V1QJun4+Fk1XHd6NWlNYomIiAymMcC8pTe0xp1D3kMR3rqVCec8oAm0CFdERGQwmMHZTRV88rwaKlLFe3nNpBwfO6uaT51XQ1VGJZaIiMggSQMN2eLZXaDsqMAqUGZBLXBE3DlERERKxWkNGT5zcS31VcV/+5NOOq4+pZpPnVdLOlm8ZZyIiEiBafBDCvt44jJW/HdwpWsKMCPuECIiIsXODOqrPD52Zg1j6krnY9WEDycekaa20tMUloiIyOCYj2NM3CHk3anAKkBHLN8KcDgwKu4sIiIixc6AdMpRVwKTV38omXAk/Oj3KCIiIodsIjAr7hDy7krvTq4E9LgEQCOQiDuLiIhIKUgnHcnSGb56W8KDlJYQioiIDJZqYFHD8k1x55B3oQKrANXRWwEsjjuHiIhISbBo4/OEX3pFj++7aA8sjWCJiIgMBgc0mlNXUoj0H6UwjQfmxB1CRESkFBhQkYyW2pUa34umy9RfiYiIDJojHK4+7hDyx1RgFZimT2wDmAuMizuLiIhIqcikHH4JTmAlfEdGSwhFREQG03QH0+IOIX9MBVaBsYo+gEVARdxZRERESkW0hDDuFIMv4Ue/NxERERk0I4AFi1ZoH6xCowKrwLjQJYg2cBcREZFBYAN7YHmlV/QkfEdFymFaQygiIjJYfKBRl9bCowKrwBhuFHB43DlERERKhXNQkXa40uuv8Er49yYiIhKjRQmjKu4Q8vtUYBWemcDkuEOIiIgUM7PoR2gQhkZFCS+zq0w7zExTWCIiIoPnMHAT4g4hv08FVgFpbG4DWAjUxZ1FRESkUL1TTEEQQj6IfoZoIimddNRXe4wf6TNzfIKG2WnmTkrGHXvITBqVYMqYBCNrPDIph9d/dxda9OcShNGfVdhf6omIiMifNBaY1/SZdXHnkH0k4g4g73DgLNr/qnQ/JhYREfkTrP//mPX/mqiY8jxIJhxVaUdVxqO+2mNktceImujnkbU+o2s96qs8qis8qjOOqgqPdNKRKd3+iouPq+TkRRk6u0Pae0L2dhm7OwJ2doTRj/aAHe0he7tCunpDunuNvry9XWpBdOPhXPQL3YSIiIiQBhrCvsr74w4i71CBVUAMqyWawBIRESl5AwXVwFSQ58D3IJ1y1FRERdSYOp8JI33G1fuMHeExptanvtqjrioqqFJJRypR3pVLRcpRMdKHke9+zGIub/TljO4+Y29XyO6ukO17ArbuiX7esidg256A3Z0hHd0hvVkjH77z38W5fQouERGR8tHgErkUkI07iERUYBWWyUR7YImIiJSMgZJq36Iq4UNVJiqixtX7TBrlM2l0gsmjfcbU+Yys8RhRHS2JSyfVnByKZMKRTDiqK2Bs/R+XXNm80ZONyq2d7SFbdgW07szTtiugbWfA1j0Bezqj6a1c8AfFlia2RESkdM3H3GigLe4gElGBVSDmr3gTjMOBUXFnEREROVh/WFYl/GhCqL7KY/wInyljEkwbG/0YW+8zus6jtiIqqjThE49UIppiq6v0mDoGmBX9dTPozRodvSHb94S07cyzfluejdujgmtr/9RWT5+9vQeZSi0RESkhk4iuiiqwCoTuLwrFh/+cxvob/wH4i7ijiIiI7K/wD8qqyrRjZE00UTVzQpLZExJMHpNgXL3HiGqfyrSKqmIXGvT0L0ds25XnrS153tqaZ/3WPK07A3Z1BHT3Gfkg+t87F03diYiIFBkDVmDerS236kDCQqAJrALROOLGCoxFcecQERF5L7bPxuqeg0zKMbLGY/LoBIdNTHDYpCRTxyaYMMKnriqaqpLS4zmoyjiqMj4TR/ksOSwNRNNae7pCtuwOeGtLnldbc7y5Oc+mHXl2dYb0ZY3Q3tlPS0WmiIgUOAc0OcMDwrjDiAqswmGMA+bGHUNERGSA2Tun1CV8qK30mDjSZ9bEBIdNTHLYpCSTR/uMqvWpUFlV9jIpx/iUz/gRPotnpoBoUmtHe8DG7QGvteV4eWOOt7bm2bo7oKM7JB+q0BIRkYJ2hHlWD+yKO4iowCoITR/7FQaHAePjziIiIuVr38IqlYD6ao9JoxLMmZRk/pSosJo0yqe20sPz4k4rxaAi7ZgyJsGUMQmOPTxNPoCOnpDWnQGvbsrxwoYsr27K0bozoL07JB+o0BIRkYIyHWwqKrAKgm4NCkBD82Yc4ReBf447i4iIlI99lwQmfKiv8pg6JsG8qUmOmJZi7uQE4+p9qivUVsnQMIP2npC2HQGvb87x/LocL23MsmlHQHtX/4SWNoYXEZH4BMB1+cC7+9n/0D5YcdMEVgFw5BPgNcadQ0RESt/ApuueBzUV0XTM/KlJjpieYt7kaMJKhZUMF+egrtKjbqrH/KlJzl8GHd0hrTsCXtyQY+2bfby6KcfmXQFdvdEeWp6ms0REZPj4QGNg7u64g4gKrALhjQQOjzuFiIiUHtvnlMB0yjG2zmPO5CSLZ6Y4YnqK6WMT1FV5KgSkIDiivdZq+wuti46tZE9nyFtbczz7Vo5n34qWHO5oD8jm+5cbeprOEhGRIbUo5QdVQFfcQcqdCqyCYDPATYk7hYiIlIaBvaw8F01ZTRuXYNHMFE2z08yeGC0LTCb0yC+Fz/dgVK3HqNo0Sw5Lk80ZbbsCXlifo+WNPl5Yn2PTjjxdvRZNFmo6S0REBt9hzjEBeD3uIOVOl/iYNSzfjHPhx4CvAVqzISIiB2VgaWDCh9G1PnMmJ2mYlWLxzBQzx0dTViKlxAx2dYa8uTnH2jeyrH6tj9fb8uztCglClVkiIjJoeoHLzHkPrL1F+2DFSRNYMXOe57CwCZVXIiJygAZKq1QCJtT7LJiWYtncNItnpZg0yied1NO7lC7nYFSNx6iaNEvnpLn6lGrWb8uz9vU+nno1y8v9Sw3zgcosERE5JBlgsU/wQNxByp0KrLhZUAMsjDuGiIgUh4HSKp2EiaMSLJqRYumcNAtnJJkw0ifp6yldylNVxnH41CSHT01y2QnGph0Bz7yZ5YmX+3h+fZZtewJyKrNEROTgNIa4JJCLO0g5U4EVO5sMzIo7hYiIFK59J60mj4z2szpmfprFM1OMrffxNcMr8nvSScesCQlmTUjwgaMraNsZ0PJ6lsde6uO5dVm279VkloiIHJD5GKOBzXEHKWcqsGJ07ge3s4XsfGB03FlERKSwDGzEnvBh8iifRTNSHD0/TcOsNONHqLQS2V9J3zFtbIJpYxOcf1QFG3cEtLzexyMv9vHC+iw727VnloiI/EmTiAZPVGDFSJfpGE38n28yfkv6fwL/Pe4sIiISPwPC/gfpUbUeR0xLcfwRGZbOSTFpVEKllcgg6ssZ67flefKVPn73Qh8vbczR3h2CgafvNRER+X0GNGN2W8utk+POUrY0gRWjCVvSGYPFcecQEZF4hQYY1FQ65k5Ocuz8DMfMTzNjfEIbsYsMkXTSMWdSkjmTklx8bBWvbMrxyIu9PPZSH29tydOTNZyLCmURESl7Dmhy0eFrYdxhypUKrBgZjAXmxZ1DRESG38ASwVQCpo9JcPS8NCctzHD41CTVFRr/EBlOVRlH4+wUjbNTXHVyyLNvZfnN87089WofW3YF5MNoKktdlohIWTvCnKsDdscdpFypwIrXYcD4uEOIiMjwCcNon52RNR6LZqY4eWGGpXPTjKv3tf+OSAEYVetxyqIMJy7MsGlHnsdf6uPhZ3t5YX2Wzh4DTWWJiJSr6WBTUYEVG11+Y9K4fBM49zng3+LOIiIiQ2tg2iqdhBnjkpy0MMNJR2aYNUFLBEWKQWev8eL6LL9+rpdHX+pj0/Y8uUBTWSIiZSYPXJtKhN94/MtT4s5SljSBFReHDzTGHUNERIZOaNHPI6o9GmalOL2hgiWHpRhT58cdTUQOQHXGcdTcNEvnpNm8K+Cxl/v4xdoenluXpaPHdIKhiEh5SACNSWffiDtIuVKBFRdzI3EsiDuGiIgMroGTBBM+zBiX4OSFGU5ZlGHOpKSmrUSKnHMwcZTPpcdVcnZTBc++leWhp3t4/KU+tuwOolNEtYWdiEgpW9yd8yqB7riDlCMVWHFxTAemxh1DREQGx8AywaqM4/CpSc5orOD4BRkmjtS0lUgpqso4jpmfZtncNOu25fn1c7388ukeXmvN05vTVJaISIk6zGAC8EbcQcqRLqsxWHLjFsIw+Ajwn0THcIqISJEaWCY4qsbj6HlpzmysoGF2ihqdJChSdnZ1hDz1ah8/fqqHtW/00d6tIktEpMT0ApfmgvyPn/uPaXFnKTuawIqHI9r/Sk83IiJFamCp0JTRPicdmeGsxgrmTUmS8PWkKlKuRtZ4nNVUwYkLMzz3Vpafru7hkZf62L4nwNDphSIiJSADLM746R/HHaQcqcCKgYVhNXBk3DlEROTAhSEkEzB3cpLTGyo4bXGGqWMSmrAQkbdVpKJN35sOS/N6W44H1/bwy6d72bAtT6B9skREil1DEIZJIBd3kHKjAisGBpOA2XHnEBGR/TOwMXsm6Th8ZpIPLKvkhAVpRus0QRF5H74Xld1zJye5+NgqHn6mh5+s7uG11hy5vIosEZEidTjORgOb4w5SblRgDbPGG9oAmw+MjjuLiIi8v303Zl88M8X5yyo5Zl6a+mo9dYrIgZk0yufDp1Zz9pJKfvt8L/c/0c0L63PRhu+eNqYVESkik3DMRAXWsFOBNcwsGeACrwFIxZ1FRETe3UBxVVsZLQP6wLJKlhyWpiqjR0wROTSjaz0uPraSUxZleOzFPn70RDfPvJmlq09FlohIkagFFjY1tz6yZuWkuLOUFRVYw8wFXhpYHHcOkQNh6IZaysO+xdXR89JcdGwVjbNSZFL6DhCRwVVf5XHO0gpOOCLDU6/2ce9j3ax+rY+uXhVZUtqM6HqLRb/+Q47o5E7tLSkFzAFNWOgBYdxhyokKrOE3FpgXdwiRPzTw4A7RKUm+B57nSPjRDUQQQhAYoUEQvFNq6QZDSsHA67+uyuPY+WkuOLqSBhVXIjIMqiscpyzKsGxemidf6eMHj6rIktJi1v8DSPhQlXbUVXrUVnrUVHpUpNzb95o9fSF7u4327pC9XSG9OSMMo3tNneIpBWaheV4dsDvuIOVEBdbwmw1MiDuECLzz0J7wYESNx+QxCWaMSzBlTIJxI3zqqzwySXDOkQ+N7l5jT1fI5l0Bm3bkWb81T9uugL1dYXSqksosKTIDm7PXVjqOOzzDxcdWsnhmilRSL2QRGV6VacfJR2Y4ak6aJ17t414VWVLkwhBwUFPhmD4uweFTU8yfmmT62ASj63xqKhzJhMPv31bSLCqxsnljT2fI1t0Br7XleG5djpc2ZNm8O3j78AN9P0gBmIExBRVYw0rf+8OoYcUmnLnPAP9f3FmkvA18Cjai2mPRjBTHHp7myBkpJo7yqc54+1VCBSF09IS07Qx4fl2WJ17p4/l1ObbvDTDTyUpS2AaKq+pMtFTwkuOraJqdIq3iSkQKRHef8eQrfXz/kS6eei1LT5+9/aAvUsjCEJIJmDk+yXEL0hw7P8PsiQnqqg7uBZwPjC27A9a8luUXT/ew9o0sHT0qdiV2eeAa36W++dQtY+LOUjb0PT+MGpo3+Q73deCauLNIeRoorsbV+5y6OMPZTRXMnZwclIf2bN5YtzXPr57t5eFnenm9LUc+1Li3FJ4gjCYdlsxJc+lxlRw1N02FlgqKSIHq6jUeebGX7/6ui2fezJHtP7VQpNCEIaSSsHB6dGrvcYenGVPnD+q/o7vPWPtGlu890sXjL/XRkzXda0qc/iXlV33p8a/Ux52jbOjbfRg1NreOBn4GNMadRcpPaNGeA6ctruCKk6qYNyU5ZBf8bXsCHlrby32Pd/N6Ww4zLS2U+A18IrxoZorLT6jiuMMzOlVQRIrG3q6QXz3by/cf6ebFjVnyeU07S2Gw/j1U50xO8sETqzh1UYb6g5y22l/dfcbDz/Sw6qFOXm/L6z5T4vJz4OKWlZO64w5SLvStPowam1ubiAqsUXFnkfISGswcn+DjZ9dw6qLMsC2TatsV8L3fdXHfY93sbA91oy2xCA18F91YX3pcJac1VAz5jbWIyFDZ2R7y0NoefvBoN6+15QhN084Sn4GTey84upIPnVTNpFGDO3H1p6zfludrP+ngwZYe8oE+MJVhtw44rWXlpDfjDlIu9C0+TJpWbMTMuw74L2B439ml7B07P82NF9Vy2MTksP+7wxDWvN7H//5xBy1vZEHTWDJMBj4RnjY2wYXHVHLu0grG1uvtV0RKw5ZdAT96spsfPtbNpp3B2ycDiwyX0OCwiQk+dV4tJx6RJuHH8wLs7AlZ9VAndz/cRW/W9H0gw6kHuLSiMvWTR/5Z+2ANB93JD5MJyz7nwH0EOCbuLFJezl5SwZ9/sI4pY+I5dNQ5mDQqwbJ5afJ5eGNznpw+IZMhZICFMLrO49LjqvjsxbWcfGSGqoymrkSkdFRXeDTNTnPU3DS+c7TtDOjqix7edYmVoWT9U38nHZnhL6+op2l2Ci/GMcBU0rF4VopUwvHsuiy5vO4zZdgkgef7unO/27pG57QNBxVYw2TC0s9X49xngelxZ5HyYMA5TRV84bI6RtXG/61enfFYOifNqBqPVzbl6ezRJ2Qy+MLwnb3ePntJHRceXcmIGhVXIlK6Rtb4HDM/w5EzUvTmjC27ArI5PcDL0AgtOgjlqpOruenCWiYO85LB9+J7jgXTopUGz7yVIzAVuTJsdvu+u3fzk/8exh2kHMQzklGOnJsIzI47hpSH0KJlg5+5uJYR1YXz8J5OOi47oYqpYxN85b52XtyQ074dMihCg4QPTbNTfOjkao6dnyajkwVFpEz4HjTOTnH41CSPvtTHN37VydNvZskH2h9LBk8YwviRPp88t4bzllaQTBTWiyuZcHz41Gq27gn4/qPaU1uGzeFmjAK2xB2kHBRGZV7iFn9mMy6044HrUGkoQyw0mDE+wV9dWc/UmJYN/imTRidYclia7XsD1m/L65RCOWhm0bThtLEJPn5WDTecX8v8qcnY9uEQEYlTwnfMGJ/ghCMyjKr1adsZsKcrGgrQdVYORWgwf2qSv7yijtMWV+AXaDOaTDjmTk7y/Locm3cFet3LcEgDP9781L9vjDtIOVCBNQymLP4M5rkPAafHnUVKmxGNdX/mojqOnpeOO877qq/yOGpumiCEV1tzOjlGDlgQQn21x0XHVPL5S+o4cWFGU1ciIkBFynHkjBRHz0vjPNi4PaCnT0v35eCduDDDX36ongXTUnFH+ZOqKzzG1Pk88mIffTm97mXIpXE8NWHZ59dsfvLf485S8lRgDYPxx3wxDawA5sWdRUqbhXBWUwXXn1FdFBMomZSj6bAUNRUez6/L0aubDNkPoUEyES2T/ewldVx2fBWjagtnqayISKGor/ZYNjfDwulJ9nYbm3cF5EN9YCT7xyxannr+skq+cFktk0YV5mT/u5k40mfrnpAXNuT0epeh5oDN5nhgy5P/bnGHKXXF8y5UzMzGAPPjjiGlzQzG1Ht86KRq0sniuVKnEo4PnlhFbaXHzfe1s21voP065F0NLBecPi7BlSdXcc6SCmoqVFyJiLyfhA9L56SZPyXJg2t7uedXnbzRlgdUZMl7M4uW411xYhWfOKe66K63Cd9xyXGV/Pq5Xrbt0VJCGXILHdQCe+IOUupUYA2PWcDEuENIaTODk4+sYN6UZNxRDpjvwblHVVBd4fjn7+6lbUeAV1z3STLEwhBqKh1nNVVy5clVzByvy5eIyIGorvC4+NhKlhyW4pu/7uLHT/WwuzPE1/VW/oAZpJKOa06t4qNn1VBRpMvzZ09MctLCDN/+TZcKLBlqMzCmoAJryGkJ4RBrXN4KjguBC9BprjJEzKCuymP5B2qZVCDHGR8oRzRZM31ckmfXZdnbreWEEr22PQ8aZqX43MV1fOikKkbXFudrXESkENRVRcsK501JsrM9ZMuugECHqUg/s+jU6OtPr+ZjZ9UU9d6Snou2q/jVc71kc3qNy5DKAL+d0PjnL2xe/a9xZylp+sxliBnmAY2ovJIhFBocPi3J/CKcvvpDxx2e5i+vqGfyKJ9Qq8jLWhjC6DqPPzunhn/+2EhOXJgpuCO7RUSKUcKP9hH8x4+O4MYLa5k82icMo2XaUr4Glg1ee3o1HzmzuLakeC/zpyQ5bGJS95Qy1BJAo8sV9iFapUAF1hBzzo0Ajog7h5Q2z8GyuWkq0sV/owFwzPw0X7q8jvEjVGKVo7B/09iTFmb454+N5BNn12iTdhGRIVBf5XHNadX868dHcs7SCtIJp+tumTKiYvOqU6r4yBmlUV5BtHS2cXZKkwQyHBaFld0VcYcodXoiGHpTgWlxh5DSZQbVFdFx2aXkhCMyfOHSWkbXerqZLiNhCJNH+3z24jr+x3X1LJ6Z0si/iMgQmzs5yV9fWc9ffLCOmeMThBbdX0j58BxcelwVnzi7uJcNvpsjpqdIl9jvSQrSXIzxcYcodSqwhlBD8waABcCIuLNI6TJgXL3PlDGlt6n1qYsqWHFBLbUVTjfSJS40SPqOs5oq+NePj+TKk6uK7sQjEZFiVpF2XHhMJf/2iZFcclwllWlHGMadSoaDAWc3VfCp82qoLJFp/n1NG5ugrsrTvaQMtXEOm9P0iW1x5yhpejoYQv3vkU1os3wZQmYwaXSC2srSu+FwDs47qpJPnBN9Gqgbj9IUhjBljM/nL63lb66uZ+7k4t/LTUSkWE0fl+DPL6vjb66uZ/7UJKZprJIWGpywIMNNF9VSV1Waj4Yjqj1G16rAkiFXASymIhd3jpJWeiMbBcRzXjXGkXHnkNI3foRPqkQ3t/Y9+OCJVezpDFn1i06CUCcilIrQIJVwnNyQ4aNnVqu4EhEpEKmk48zGChZMS3HXLzq5/8luOnsMrzT7jbIVhrBoZorPXVLLmLrS/by9IuUYVePpkAIZDo2ELgHk4w5SqlRgDSVjAnBY3DGktDkHo2pK+44ylXBcf2Y1OztCfvh4d9xxZBCEIUwa7XPt6dWct7SSqoxqSRGRQjNplM/nLqll8awU//fnnbzamsOB9iYsAWEIMyck+OJltUwbW9qPhMmEo7pCE1gyLA43bBSwNe4gpaq0361idOSntgDBXGBs3FmktDmgqgz2CqrOeCz/QC27O0N+/Vwvnm6ei5L1nzB4wpEZPnF2NQumldbhAyIipSaZiPYnnD8lyaqHOvnpmh66+0zX4SIWGowb4fOFS+vK4jrsHGRSTsWrDIfJwExUYA2Z0n/qjUkyGQA0AOm4s0jpS5bu1PfvGV3r8flLalk8M6WNZYtQGMKoWo9Pn1/D311TXxY3zSIipWLq2ARfuryOv7zinZMKpfiYQV2lx00X1nL0/PJ5TFF3JcOkDli4dHlr3DlKlgqsIRKGLkVUYIkMuaCMypwpYxJ88bI6Zk9MqMQqEgMj+02Hpfj760fwkTNqqK3U5UdEpNikk47zjqrknz82krOXVJDwUZFVRMyiSaRPnlvDmU0VZVXq9OVNSwhlODig0ZmV07fXsNITxBBxzkYD8+POIaXPgK7e8roiHz41yRcuq2PCKF83zgUuNKjKOK46uYq/v34ES+ekNcIvIlLkZk1I8FcfquemC2sZV+/rA6UiYEDChw+fWs2lx1fil9FTYC5vdPWY7j9kuCzMe6427hClqozeuobdLGBS3CGk9JnB7s4g7hjDbtncNJ+5qJaR1Z5KrAIVhjBjXIK//FA9N15Yy9j6MlnrKiJSBqoyjqtOqebvrx/BUXOjpWiacClcnoPLjq/i+jOqS/bk6vfSmzN2d6lllWEzE5gSd4hSpQJrCDREa16PBKrjziLlYeuegKD8OixOb6ig+YJaaiqcbpoLiBl4HpzWkOGfPjaCc5ZUkCyzm2URkXLRODvF/7q+nmtOq6a6wulDpQJ13tJKPnVeDZXp8rsed/QYO/cGmsCS4TIKOPzYT6yPO0dJUoE1BJzhAU1ov0AZBg7YvDOgs7f8PlnyHHxgWSV/dk4NFWmVWIUgDKG+yuNT59bwt1fXc9jEZNyRRERkiI2u9Wn+QA1/fVU9syZog/dCYsAZDRXceGFt2e4/uXlnnj1doQosGS5JoKG+oyvuHCUpEXeAUmQe9Q6OiDuHlAfnogmsbXsC6qrK78Yk4cMVJ1YRhPC1n3TQ06c9DuISGsydnOTT59dwwoIMXvm9HEVEylbCd5zRUMGM8Um+en87v36ulyBE1+QYmUXT6l+4tJZRteV7UX61NU9Xn2myQIbT4i2j6yqAnriDlJryfScbQg6mAtPjziHlwTnY0xXyamsu7iixSSaiTcI/cXYNmZQmsYbbwJLBMxsr+IePjuCkhSqvRETK1ewJCf7m6no+cU4NtVWeNniPiRmctjjDFy+rZXRd+e5BmQ+MZ97M6nUow20uMC7uEKWofN/NhsiiGzbgOe9U4CpUEMowyQdQX+1xwoJM2X7S6XuOBdOSJHzHs29lyQf61Hc4hGH02vvImdXccH4N47RRu4hI2UsnHYtnpZkxLsGbW3Ls7NDyreFkBqcuzvCly+rK/gCVtl0BX3+wkw6dQijDKw08VH/hdW/s+OVX485SUlSwDDIjBGhE5aAMI+fg6TeybNtbhju57yOZcHz41Co+dla1JrGGQRjCzAkJ/vqqej56Rg01FbqkSPxCg96s0dVbvm8AXb1Gb9a0D5HEyvfglEUZ/vGjIzl9cQbP6ZTC4WAW/bmrvIqseS3Llt0BnsorGV6VwOKq1jFx5yg52gNrkCW8RBWwKO4cUl48B5t25Fn9ah/nL6uMO06sUgnHNadVExr835910pfTJ26DzSwqTY8/Is2KC2qZM0kbtcvwGiip2rtD9nSGbN8b7QO4dU/Alt0hm3flWTQjxfIP1Jbd978ZfP3BDp55M8uEkQnGj/AYV+8ztt5n3Aif+iqP2kqPVNLpgU6Gxczx0QcdM8Z38c1fR5Mweu0NDTM4+cgMX7pc5RVAT9b45TO95PJRoSoyzBrDRJAA8nEHKSUqsAbfeGBO3CGk/GTz8PO1vZy2uIKKMjwieV+phOO606qjB7mfq8QaTKFBRcpx6XGVfOTMGkbW6I5Qhk5o0N0bsrszZPveqJhq2xWwaXtA26482/eG7O0K6c0a2bwR9O9xEgTG5NGJsvy+dw52toc8/lIfvp8Foge3VMJRkXaMqPYYXeczvt5n8hifqWMSTB6dYHStR12VRzrltNGxDLraSo8/O6eaGeMT/Mf97WzcHmivxEFmBicujMorLeePPPtWlrVv9KkwlbgcTuiNArbGHaSUqMAaRMtW7CRnvXOBsXFnkfLjOVj7eh8tb2Q57vB03HFil0o6rjs9KrFuf1Al1mAIQxhb7/Nn59bwgWUVpBL6A5XBkwuM9i5jZ0dA646AdVvzvLU1x8bt0XRVe3dUVOWD6Fh4iMoaxzv73b3zCbujOlO+r8/qCofvu9+bOMjmjb6csbsz5I3N0YfBDkgmoDLtMbImmtSaMsZn2rgE08clmTLaZ1StT2Xa6f1TDlnCd5yzpILJo31uua+d1a9lof97WA6NGZxwRIa/+GAd40eovALI5oz7Huumvds0fSVxmQLMQAXWoFKBNYiyQTfO8xqATNxZpPw4Bx09xvd+10XDrBSVZT6FBdEmstef0V9iPdRJViXWQQsN5k5J8pmLajl6ngpSOTShQUd3tPRv/baA11pzvNaWY9OOgB17A7r6orJlYL8cz/H2g+7+TG04B5WZ8n1iqUx77/peN1D47dsYBCG0d4fs7Q55c0uex16O/rwzKUd9lcf4kT7TxyaYOSHBrAlJpo5NMKrWI5PUm6kcnIXTU/yP60bwf37Swf1P9JDN69p8KMzg+AVplVd/4KlX+/jdC72avpI41QILm27c8Piam6fGnaVkqMAaRJ5LJI2wIe4cUr48Dx5/uY/fPN/L2U0VcccpCOmk4yNnRiXWql+oxDpQA/tdnbQww40X1jJzvC4bcuCyeWNne8j6rXlea8vxamuOdVvzbNkd0N5tZHOG8c40lXPvlFYHw0FZl/hV6QNbBvhuxVZvztiyO6BtV0DL61k8BxVpx6gaj8ljEhw2McmcSUlmT0wwYaRPTYWn91bZb+PqfT5/aR3Txib4vz/vZE9XqKLhIJjB8f2TVxNGqrwasKcr5K6Hu+joNi1VlTh5QCNe6HhneFwOkZ5EBpE5Gw3MjzuHlC8H9PQZd/6ik0UzUrqZ6ZdOOj56VjWep+WEB8Is+rO75LhKPnaW9ruS/debM7btCXijLc8rm3K8tDEqrHa0B/T0vXM6njdQVg3BS6uqjJcQVg7C732g0PL3+Uf1ZI2NOwI2bA949MU+kgmoq/SYOMrnsElJFkxNMWdytKdWXaUKLXl/FSnH1adUM3FUglt+2M76rXmVDQdgYM+rP79c5dW+QoMfPNrN6lf79HqSQnCk5RO1wN64g5QKFViDymYBk+NOIeXN8+ClDTnu/EUnn7m4VvsU9RtYTug5+PqDnfRmVWK9n9BgRJXHx8+u4dLjK0lruZC8j1ze2L435PXNOV5Yn+OF9Vne2pJnZ0dIX7Z/usq988Mf4peTc9EyunL1XksID9Xb+431/7PDEHZ1hOxoD3n2rRz3+d3UVHhMGu0zf0qShdNTzJuSZOJIn+qK8v3vIe/N8+C0xRnG1Xt8+d52Wl7P6tq8H/Y9bVDLBn/f6tf6+MbDnQQhei1JIZgJbjIqsAaNCqxBsqS5jRBbCNTEnUUE4L7Hu5k3JckHjq7UBqn90knHdWdEk1j/9TOVWO8lDGHKWJ8bL6zl1EUVWtYhf8SAPZ0h67bmeW5dlmffzPJaW55tewJ69ymsvCGarvpTfC+a7ihXFaloA/eBUxmH0r6FpBns7QrZ0xny/Loc9z7aTV2Vx7SxCRbOSNEwK8WcSUnG1HkkhrrFlKJyxPQUf3ftCG79UTs/X9Oj8uF9mMGpizJ8UacN/pGN2/Os/GE72/eGmr6SQjEKmN/4qZdeaPmqFmoNBhVYg8R5eIQ0osNUpAA4B919xlcf6GDCSJ+lc7Tp9oBUwnHNadV4zvGfP+ugp08l1r5CgyNnpPjcJbUsmpmKO44UkGze2Lo74MUNOVpez/LcuiybduTp7ImWBMZZWP2hhO/IlHGBlUk5kr4jCId/y42BKTuI3k+iCa0sa17P8q1fO8aN8Jk3OUnDrBRHzkgxdWyirJd7yjsmjvT5iw/WMWlUgnse7qSrz/QByrs4o7GCz19ay9g6lVf72tUR8uV723luXa4grkMi/ZJAY92ced+NO0ipUIE1SMLQ6oCFcecQGeA52Lwr4F+/187/++F65k1Jxh2pYKQSjg+fWkUqAV/9cQedvbpJHthA+5RFGT5zYS1Tx+ryIFERvn5bnqffyLL6tT5e2ZRj+96Avtzvb7heSMM0ZpDwKesCqyLlSPhg2finWPZ9fWTz0etp3dY8D67tob7KY9bEJE2zUzTOTjF7YpIR1XryLGc1FR6fOKeacSN8vvpAOzvatbk7RNdoDzhnaQWfuaiOUbX6PtnX3q6Qr9zXzq+e1amDUpAW731zcwbojTtIKdATyiAxmALMiDuHyL48D17dlON/fXMPf3VlPXMnq8QakEw4rjipmlTSceuPOtjbXb43yQMP/BceU8mnz6vVZu1lrqM75PXNeVa/1sea17K81pZjT2f49pIez0VL9AqZJrBc/xK9wjv0aN/TJXd3hjz5Sh9PvdpHdcYxdWyCxtkpjp6bZt7UFKP0XlSWkr7jkmMrGV3r8eUftLOuzDd3N6IS+MJjKmm+oJb6qjL+w3gXuztDbr6vnQee7I47ish7mQs2Dlgfd5BSoNnTQbDos5vxQjsFuJroAxKRguEcbN0T8uL6HLMnJbXZ5z48D+ZNSTG61uPZt7J0l+FywtCgMu24/vQaPnVeLbWVegsrR+3dIS+sz3HvY9381887+cavOvndC31s2hHQ179XnOfin+bZX9UVjkuOraK+TKd5OnuNHz/VXfDvafu+rrJ52L4n5Jm3cvzq2V4efbGPt7bkCUOorvCoTBfwb0QGnXMwfVyCBdOSvLklz5bdQUG/lofKwAdMl59QRfMFtdTpGv17WncG/Ov39vLT1T1xRxF5P2ngwcar/u3N1376/8adpejpSXYQjDnpC/g5uxY4Ie4sIu/GOdi2J2TtG1nG1vlMHZso22mjP+Q5mNNf7D27LkdnT2E/8A2m0GBktUfzBbVcdXJVWU+slKPuPuOljTnue7yb//xpJ/f8qpPHXupj866AXL5/P6siKq0GGFBf5XHJcVXUlOnJd71Z4/4ne+goovezgeWonoN8CDv2hjy7Lsevn4vKrI3bA3wPaio9nYpaRsbV+zTOTrFld8D6bfm3l7uXA7Po8JkPn1rNJ8+t1Umef+D5dVn+4Vt7efTFvqJ5n5OylQSebd/R/uiWp/497ixFT0sIB0GqK6wEFsWdQ+T9eB6s35bnf3xjD+u3V3PFiVX6RLufc3BWUwWVace/fq+dDdtKf7lCGMLEUT6fvbiWUxfrpMFykcsb67bmefzlPh59qY+XN+bY2xUS2juFVSk8HaZTjmQZ3+EkEsW9B5gDXP97cG/OeHljjpc35vj+I13MmpDk6Hlpjj08zWETk1ToOlbypo5N8NdX1vMfte3c91g3+aD4ivUDFRpUZxwfPbOGq06pUmm7jzCEh5/t5ZYftrO+zJeXSlFp9DwvAeTjDlLsyvj2blCNB+bEHULkT/FctNHlVx9op21nnk+eU8NonWLzthOOyFBd4fFP39nLKxtL9xSbMIRZExN86bI6jpqrEypLnRls3ROw5rU+fvN8H0+/kWVHe0AQvjNhVUibsB/6bxgqkgN7QJWnt/cAK4FxlX3LrK5e4+k3szzzVpZv/aaLBdOSnHxkhqPmpJk0OlHwe7PJwRtZ4/HZi+uor/a4+5dd9GaLZ7rwQIUGI6o9bji/houOqSzr97I/1Js1vvO7Lr7+s052d4Yle58mJWkB2EhgW9xBip2eXA/RsZ/bSD5wy4CPEY0HihQ05yAweHljjtfb8syemGR0rd4KBkwY6bNweoo3tuTZvKv09twIDY6ckeKvrqynYVYq7jgyhDp7jaffyHLPw1187Scd/PDxbl5tzdPTV3x7Wh2I0GDqmATnHVVJKlGCv8H9kA/hobU9tO0KSmq6ct/XbW/WWL8t4NGX+vjNc728sSWP56IHf02rlKZkwrF4ZorKtOP59Vl6c6X3HhaGMH6kzxcureP8ZZX4pfQNfIh27A249f4O7vxlF129pvJKik0KeGDzk//eGneQYqen1kM0qulLOOwy4Oy4s4jsr4HboQ3bAlreyDK23mfamETJ3QgerNG1Pg2zU2zeFbChhPbcMINj5qf57x+qZ45OpCxJYRgtFf7x6h6+9uMO7vlVJ6tfy7KnKwRKt7TalxnMHJ/gnCUVZTu5EBr88pleNm4vrQJrXwNlFsDebuOlDTl+83wvq1/NsrcrpKbCo7bKK9nff7nyPceCaSnG1Pk8vy5LV4EfVHAgwhAOm5Tgv11Rz8lHZkrm9zUYnl+f5Z++086Da3sIymAJqZSkNPDEpGVfWNv25L/FnaWoqcA6RBOXfT4JNAML4s4icqCcg10dIU+80kc+MGZNTBb1vimDqa7KY+mcNF19Ia+35QjC4r9hOq0hw19cXs+UMVo9Xmq6eo1n3sxyx0Od/O+fdPDzlh427ujfjN0r/tfugTCLDmY4q6myjD+hd/z62V7e7J9KKnUDZVYugLZdAU++2j+VtTmP70fLzzSVVToGDl+ZNi7BCxuy7O0s/hLLDJbOSfHfr6xn8UxNRw/oyRr3PdbNv36vnZc25N4+7EGkCDmg1fO9H7c9oQLrUOgp5hCZMcrB/LhziBwsz4v2xfraTzp4bl2OT55bzYJpunkCGFUb7bkxts7njl900tlrRfcwaEQ3++cureSmC2sZVVu2T/QlacvugEdf7OOhp3t4fl2W9u53lgeW635AZlCRciTK+CO6hA8VaYdZ3EmGl+Od1/2W3QH3PtbNg2t7OHxqkjMaKzh+QYaJI8v4hVFCnIOTFmao6d+38tVNxblvpVl0H3ZmYwUrLqhl4ii9Pge8uSXP7Q928mBLD705LRmUkrAwDMIaoD3uIMVM75KHaOJRnzsSuAHIxJ1F5GC5/r1+1/efTgYwfVxCn1gT7bmxaGaK0XU+L23I0llEx9Kbge/DpcdVcdOFtYyo0d1fKcgH8Fpbjm//povb7u/g/ie6Wb+tPKet3o0Bi2elOeGI8r4sP/Fylhc25IqudB8s+05lte4IePylPh59sY+tuwNqKj1GVHt45fqHU0ImjPRZMC3Fa205tu4Oi+r9L+wv2688uZoVF9YyRofqANFE8f1P9PAv39vLk6/0ERhl+z4mJScJ3Lv5yX/fHneQYqZ3ykPQeEMr/P/s3XecJFd57//PqerckzfO5t3ZnGdWOQdQFiKIHCVssAGBje8P+/raIDBJ+MIFA7bBxtggCREkIQkFJIQklONKK6200uacd3JPxzq/P2pHWsSudmZ2Zqq76/t+vfa1/3U/U91ddc5znvMcw0XAO6iOFjkScsZAV5/lyVdyvLy9wITGCBMa3NAPHBzHMG9qlDmTo6zfWWRvV/kPkq2FWMTwvrNr+MQlddSmlLyqdH05y9Pr8vzo7h7+484eHlqd40BPeHpbDZiF4+fGOWl+uE/YfGZdnuc25EP/vTD4vw8LHOjxeHZDnj88n2XjrhLJuKGp1iUa0mb/1WJcvcvSmXE27CqwfX9lHL7ieTC+weVTb6nlA+fUkI7rGe158OyGPP9ySxc/u7+X/d2e/2wLOjCR4ZMAHli06HMvbXj2/wYdS8VSAusYTDj+s8YY8+fAcUHHIjJcjPGTH5t3l3j4xSztPR5TxrrUp8M9uDLAlLER2mbH2ddZYvOeItaWZ9LAWohHDR85r4Y/O7+WVLwMg5QB6+z1+MMLWf7t9m5+em8PqzYWXj1JsBy/f0GzwKkL4qyYE+4E1vOb8jy5VgmsQ/X/ZjI5y5ptBR54IcvqTX5fnbH1rnpAVrCmWoflLTG27i2ydW95J7E8C4tmRPm7d9Xz5rYkkbCvEgJb9xb579/18P3bunhhcwEPVV1JVXKBdRvGln7f8+D/CzqWiqUE1jGYdMLfNGD4LDA16FhEhpsxfsXHqo15nnglhwUmj4mQDPkAv7HG4aT5cRwHXtlRIFdmx3j39//56AU1fORNNcRD/nlVsr2dJe58qo/v3dbNLx/MsG5nUdsEB+jMpQmWzgx3L7+XtxZ59KWcviuH0b+9MF+ATXuKPLQ6xzPr85Q8GFfvkEqEe8GmUtWnHdpmx9nZXmLT7mLQ4fwJayEagfNXJPm7d9azcFos9NVF+7s8bn6kl2/f3MX9q7L05f1eV2G/LlLVumtz5qadT3yr/G5SFUJN3I+FYQowK+gwREZK/8Rn/c4i37yxk3ue6eNdZ6Q5bVEi1FU99WmHv7ioljmTovzwzm427CyWRXNRayEVN/z5hbW876y0tsVUqB37S/z+uT7ufKqPV7YXKBT9xtRhbco+aAZS2o5DKqG9N0djDLgGCiXLM+vyvLApz40PR7nwuCTnLk/SrIbvFWdio8vfvauBRLSTO5/qCzqcV3kHk6MfPLeGt5+aJp0I94+zu8/jgVVZfvVwhtWb8hQ9VVxJaMwDJgCbgw6kUimBNUQLPrURYCEwJuhYREaaY6DkwVNr87y4pcAJ8+K887QUx82Nh7bRe8Q1nL8iyazmCD+8o5sHns9SKAU3ALMW0gnDX15cxzvPSBF1w/m5VLJt+4rc/UyWO5/MsHFXkZLnV1spcTU4jiHUCfZ+qbjxez+F7CTCoXId/zn34uYCL28rcMujGS46IcV5bUkm62S4ijK2zuFv3lGP6xpufzyDR3C5XO9gA/IVc2J8/KJajpsTD3VVZF/e8uhLOX71UC/PrM2TO3i6oJJXEiITgTm/b7Cbz+nQF38o9EQeos4V72KC0/BB4IygYxEZLY6BogcbdxV5aHWWjbuKNNW6jKt3y6ICKQhjal1OWRCnPu2wcVeR7ow/WxzNAaq1UJM0fOrSOt55upJXlWbr3iK/eqiX797azT3P9LG/21N/q2MQdQ0XHZ9k+oRwr9Ft31/i3mezeF7QkVSW/t/d/i6PJ1/J8diaHL1Zy/gGlzodhlExkjFDa0uMjl6PV7YXsIxeEstaP3Fl8CvC3nV6ms+8tY45k6Ohva/ni5YnX8nz/du6+Mm9PWzYWfQ/k5BeDwm1GLDqzuWdj+5+XH2whiLco7tjsMSdkQSWBR2HyGgz+CvVPX2WO57s4/E1Oc5tTfCOU9PMDengrCbp8IFzamibHeemh3t58IUsezs9fwB7cBfPodfFWr/RNP3/c/CkrCHMjQ5NXr3jtLSqdSrI9v0l7noqw+1P9LF5T/HVlXqtRA+dBSIuasaNfw0iDuTRTsKh6L8fr99Z5Hu3dXH7kxkuOSHFBcclmdio9d9K0JB2+MxldTgGfv1o5tWk0mB51r+vcDAx5dmDz/GDD/D+nmqO4yfQ69MO08dHOGFejDOWJGhpjob2vl7y4MUteX75YC8PPJ+js9dTZbEItEVKxgVKQQdSiZTAGroJ+HtYRUKpv3dIe4/HLx/M8NALOS4+IclbTk4xdWw4by0Lp0WZN6WBd51e4JGXcjy9LseWPSU6Mx65vMVaf4CbiBrSCUN9jcPERpdJTS47D5R48IUcuaId8EC3P3n1SSWvKsru9hK/faaP2x7LsGGXElfDyvrbe5XAgmTUEHEP7iHU5Rgy55BekN+9tYu7nurjspNTvLk1wdh6JbLKXX3a4dOX1eE6hpse7qU0iJ9D/zP71AVxLj4hhbXQnfHozVr68h754muN2WsSDvVphwmNLs1NLhMb3dBvZd60u8iND/dy11N97Ov0K4s1ThEBYJE1NAF7gw6kEoVzlnmMVnz0fizMxU9iiYRaf4XRzvYSP/ptD/etyvLO09Oc35akoSZ8IxXXgblTosydEuW9Z6U50O1xoLtEb9bieRCNGJJxQ33KoS7lT7SjEUMmZ7nl0Qz/87sedreXjlqN1Z+8+sQldbzjVCWvKkF7j8c9K/u4+eEMa3cU/B5XSlwNO1Vg+RIx41eNyLDo/52+vK3At27q5I4nM7ztlDTnLE/QkNYNuJzVpRyuekstrgO/fHBgSSzP85Nf7zw9zfvOStNYq894oNp7PG5/IsOND2XYvMc/aC2sbSZEjmAamJkogTUkSmANgU3NA+stB1JBxyJSLg5dpf7mjZ3c+2wfHzynhpMWxEPbkykeNTQ3uQM6ySoVN7z3rDTzpkT599u7eHpd3i+cOMyl62/Y/olL6rj8tLQmqWWuN2v5wwtZfvVgL89vylMooqa1IyjiGpJKYB1MYOk6DDfH8beQvbCpwMvbOrjrqRjvOiPNqQsTJENecVPOapIOn7ikFs/Crx7qPeJ2Qov/jJ0/NcrHL6rl9MUJLRANULFkefzlPP/zux5WrsvpZEGRI6sHFi//5M4nnv1+c9CxVBxNe4Zg0gmfiYDzSWBx0LGIlBtzcMfKtn0lHnkpx95Oj6njIlqhHqDmJpeTF8QBw4ZdBXL5P+2flYwbPn5RLe8+I60JahnLFy2Pr8nznV938rP7e9my1291EMY+caPFAo01Dm87NU1NItz3nFzBcvsTGTozVt+5EXDos+6h1TnW7ijQUOMwocHF1ay9LMWihmUzY3RlPF7e9qeN3T3rLzxdfEKKz72znmWzYkrADNDWvUX+864e/v32btbvLOogEpE3ZoBtHubO3U9+M+hYKo4qsIbA4o4BFgYdh0g5cx2/V8TP/9DLU2tzvP/sGs5rS5JOaERzNGPrXa56Sx1LZ8b4j7u6eXlbwR8IHhxcX3leDe85U8mrcmUtrNlW4OcP9HLfqj46e62a1o6iRMyEturzUOoFNjpcB7IFy73PZnl6bZ5zWxO8+/Q0c6dEgw5NDqM25fCpS+soleDWxzKvHqTieTBpjMsV59Vw8QkpVXEOUCZn+d3KPq79fQ/rdvjbBfWsExmQpa6xtUBX0IFUGiWwhsTMBDs16ChEyl1/f6z1O4tc84tOHlqd5UPn1rB0Zkwrc0cRceHc5QlmT4rwX7/t4bfP9GGt5UNvquED59QQjegClqMd+0vc9Egvtz/ex672kprWjjYLSfV+Ag7pBfb6MhMZdv2n83ZlPG56KMNjL+V42ykpLj0xxQSdWFh26tMOn35rHUUPfvNEBgOcuijOxy+qZcmMWNDhVQRrYfXmPD+51z95OZu36nMlMjgtYCejBNag6ak6SCs+swOsvQC4HA0JRQbEGChZ2LCzyKMv5cjkLDPGR0iFfIvPQDSkHU5aEGdcvcPi6TE+dG6NqirKUHefxx1P9vGtm7v43cosPVl/MK9E7ejyLEwfH+GiE1KhT/KWPPjds31s31/SNqhR0r9tqqvP8vTaPE+vyxOPGKaMi4T++1huEjHD8lkxuvs8TlkQ5zNvrWf6eK3rD8S+Lo+f3d/Dd37dzaqNeUpWva5EhiAO5oHm4/7mpZ3aRjgoulMPkjGOsZRWAJp5iwxC/wr13s4S/3FnN4+tyfGhN9Vw6sI4MQ3s31AyZrj8tPQRm7pLcIoleHptjmvv6+GJl/PkCwcTV0EHFmKJmENET2giLiRjuhBB6J/Mv7i5wFdu6OT+VVk+cE4NS9VTqaw01jp87vJ6Iq5RpewAFIqWR17K8ZPf9fDcxrx/kq6um8hQxcC2GtfeFHQglUYJrEGypVIdsCToOEQqlTm4o+XZ9XnW7Wjn/BVJ3n92DTMn6nZ0NEpelZete4v8/A+93P5EH+09Hq6jwXzQrNXpe/0ijt8Dy9pjfy0ZGseBXNHyu2ezPLcxz1tOSvGO09JMGsDJtDI64lHdKwZi854i19/Xy51PZejKWP95p0sncqyWW89JANmgA6kkmjEOkrVMBmYFHYdIpXMc6M1abnw4wzPr8nzgnBouOC5JSseQS5nryVrufrqPn93fw/qdalpbbpJxo0Qi/j02GTNKfAesv/p4f5fHj+/p4ZEXc7z/nBrOXZ5Qo3Ape315yz3P9PHTe3tYt7P46vdZRIbFfIwdD2wJOpBKogTWIJz94Z104i0ExgYdi0g16G/yvnF3kW/8qpPH1mT58JtqWTRdpzdJ+bEWnt+U57/v6eHhF3OvbheU8mEMpJUEf1VKp76Wjf5E4pqtBb56QwePvJjgg+fWsGCqnndSnl7eVuB/ftfDfc+pSbvICGkG5qAE1qAogTUI6+cVGbvDaQU02hAZRo6BfNFyzzNZXthU4D1nprns5BT1aY2WpDzs6/K4+ZFebnwow+72Eo62C5Ylg5I2h0rHjfqxlRnHgWzBcueTfTy3Ic+7z0zzlpNSNOh5J2Wiu8/jN4/3cf39PWzbW8LoeScyUtLAsrartt/7zHcnBx1LxVACaxDGbncSGJYHHYdINTKAcWBne4nv3tbFE6/kuOK8WtpaYtoCI4EpefD4mhz/dXc3z64/eNqSBvLly0Aqrg+oXyquEwXKUf/zbseBEt+9pYvHXspxxXk1rJgTV18hCdQLm/P86Lc9PLw6S6Gk553IKGgDXKAUdCCVQgmswTBMAOYFHYZINXMMeB48tDrHy9sKvPuMNO84LU1jjUZRMrp2d5S44f5efv1o5rUm7ZpcljWDthAeKpVQBVY5cwx4Fh55Kccr2wtcflqay09PM7ZOzzsZXd19Hrc+luG6+3rZuf9glbFuHiKjYRGWJmBv0IFUCiWwBmcO/l5VERlh/U1v//2Obp5Zl+ejF6gaS0ZHsQQPv5jlx3f38PymPNaqaW2lMEZbCA+VjquJeyVwHTjQ7fGfd3Xz1Nocf3ZBLcfPjeu+I6PihU15/uvuHh5S1ZVIEKYBM1ACa8CUwBqg1k9tA1gGpIKORSQsjPEbZz/6Uo51Owq856wa3nFaivqURlcyMnZ3lLj+Pr/qqqvXw3FQAqCCOAad7HaIZNzBcfyqVilvxoAFnl6bZ8Oudi4/LcW7z6hhjKqxZIRkcpbfPJ7hf37Xww5VXYkEpQFYvPyT25589vtTgo6lIiiBNUAG64JpCzoOkTByHL+J9r/9potVG/N87MJaFk7TWQoyfDwPHns5x3/e2c1zG/2qK61CV56Ia0gogfWqRMwQcQ15zwYdigyQ40BHj8ePftvDcxsLfOyCWtpmq/pYhtfGXUV+9NtufrcyS66oEwZFAuQAbRb+G38dQ45CCawBc5qARUFHIRJW5mCvkAdWZVm/s8BH3lTLxSckNVmVY9be4/HzB3r5xYO9tHer6qpSWSDiQjKmmVi/RMwQdSFXUC/3StJ//3liTY6Nuwq876wa3n5qijpVH8sxKhQtv38uy3/e1c26nUWMUdWVSBlY6hhTA3QHHUglUAJr4Gbi71EVkQA5DmzbV+L/3tjJ85vyfPT8GqaO061Mhub5TXl+cEc3j63J4XmquqpoVhVYr5eMGVzn4F5sXZaK4ziwr9Pj+7/p4rmNeT5+YS3zp6r6WIaN1aOSAACAAElEQVRmf5fH//yuh5se6aW3T1VXImWkxcBkYE3QgVQCzfoGoPWqnWC9xUB90LGIiL9amCtabnksw7odBT5xaR0nzdfx4zJwfXnLbY9n+J97Xuv9oaqryhdxUQLrEP0VWFK5zMGTee9/LsuGnQU+en4tF6xIEovqey4Dt3pzgX/9TRePrclpi7xI+RkHLGj7xNY1z/zr1KBjKXu6fQ2Efwp1G7peImXD4CeyVm8u8PmftHPtvT30ZrV1XI5u+74S3/hlJ9+6qYsdB0oayFcRVWD9sUTU74Ellc9xYMveEtf8opP/e1MXOw+Ugg5JKkChaPnNExn+948P8MiLOUCLNSJlKAa0mqgqbAdCFVgDYDxbCywNOg4R+VPOwePHv/ebLtbuKPDxi2qZMla3NvlT3sETLf/99i5Wb/abAqlqr3pYIB41xPTzf1U04l8Ti3YQVgPH+NWjv3qwl1e2FfjEJbUcPzeuhIQcVnuPx3/f08OND/XSm9OWQZEyt9wWi3EgF3Qg5U7DvAGxk4GWoKMQkcMzBool+M0TfWzeU+Izb61jxexY0GFJGenNWn7xYC/X/r6HA12eBvLVyL526p74Xq1IUwaravQnq57bkOcfftLOFW+u5a0np0jG9QHLazbsKvLdW7p48IUsntVijUgFmI8x44GtQQdS7jSEP4rjPrMdYD4wNuhYROTI+rcUPr8xzz/+Tzu3PZ6hqB0WAmzdW+SrP+/g337T9eopg1J9LP0JrKAjKR/9PcG0ubr6OA7s7fT4zq+7+MavOtm+Xw888T35So5/+J927l+V9XPXSl6JVIJmYE7QQVQCDeOPItcL+P2vVM4hUgEcB3a2+z2Ofnx3t/pihZg9uGXwf/+4nTue7KPoaSBf7ZLq+fRH1BOsujkG8iXLLY9m+Psft/PkKzklK0Os5MHtT2T4/E87eGlLQYs1IpWlBlja9skdQcdR9nRrO4pogjiwPOg4RGTgHONvGfuPu7r5fzd3sr/LCzokGWXZguWGB3r5/E/bWb25gGO0gyoMEjFDRCObV0VcSCqBVdUMfmJ+1cY8//iTDm56qJd8QWmssMkVLNf9vodv/KqLXe06nESkQq3AGtWRH4V6YB2NZTyG+UGHISKDYwwUPbj5kQwHuj0++/Y6NXcPib2dJX702x5ueTRDtqDGtWFh1QPrT0QcvwLLKp9R9RwHdneU+OZNXWzYVeSj59fSVKubXxj0ZD1+dFcPP3vAT16q35VIxVqE4zUC+4IOpJxpNnc0hjn4e1JFpML0j+HuW5Wlu8/jc++sZ84kHVFbzV7aWuC7t3Tx+Ms5rBrXhooxkIobbRM9hK5JuDgGsnm/+nTLniKfvqyOOZP1zKtmHb0e37+ti18/mqFU0jZ5kQo3HZiBElhvSEszb2DFJ7cBLAPSQcciIkPnGHjqlTxfuq6DdTsKQYcjI8CzcP+qLP/nv9t59CX/BGIN5MMnldCH/nqphIZ6YdJ/33todY7/8z/tPLQ6qwq8KpXJWf7tN93c9HCGkno8ilSDBmBR62d2Bh1HWdOo5o25+A3cRaTCOQ48v6nAd37dRXuPemJVk/5+V//0sw427ipqy2BI+dVG+vBfL60KrFByHFi7vcjV13Xwywd7yReVxaomnoWbHu7l14/2+icNBh2QiAwHB1hhjX7Sb0QjvTdgjWkEFgUdh4gMD9eBR9fkuPmRjFakq0R7j8d3b+niu7d00d7tKXkVYgY/WSN/LBXXSDisHAf2d3l8+9ddfP+2bjp6tXhTLZ7fmOen9/aSLyp5JVJlljolWxN0EOVMQ/03NgN/L6qIVImSB79+pJfNe4pBhyLHaOveIl+5oYMbHuglV7CqMhFtITyMVEJHcIZZf1+s6+7r4as3dLB9XynokOQYZQuWn93fy+6Okvo8ilSf2Vg7KeggypkSWEew7FM7ARbj70UVkSrhGNi2r8Q9z/ShIqzK9fwm/8j4e5/NAur9IdpCeCSpuKP8VcgZ45/Sec/KLJ//aTurN6sXZCV7YWOeR1/KKnklUp3GAfNXfGZH0HGULY30juDgWn4bukYiVcdauP/5LO3d2k5RaayFB57P8o8/6eC5DXkN4OVVrgPJmL4Qr5eMGSJu0FFIOXAMPLMuzz/+pJ0HX1Bz90pkrX+ycmdGVcciVSoGtHoFzVGORMmZI4jg1QBLg45DRIafcWDTriJrtmkVupIUS3DLYxm+/LMONu9Ws3b5YxHXkFAC608kYoaIa1RxKoDfF2vjriJfur6DWx7NUNSOworS0euxcn1eVZUi1a3VuCYedBDlSsP/I5sEzA46CBEZfgb/+Omn1+aCDkUGqC9v+cm9PXzzxk72dalZu/wxayHqqgLrcPoTWMpgST/HgX1dHt+8qZOf3ttDNq8vR6XYsb/EzgMlVV+JVLf5WMYFHUS50hTgMPw9p3Y+6IsjUq0s8MLmAn05DdzLXVfG419v6+IHd3TTm7XaNiiHpQqsw0vGDBGN9uR1HAO9WcsP7uzmX3/TRVdG21UqwbZ9RXqynhJYItVNhTRvQEOawyj5e05b8fegikgVcgxs3VNkb6f2T5SzfV0lvnljFz97oJdCUT0/5MgiLkpgHcarFVgir2MM5AuW6+/v5f/e2KXnYQXY1V7Stk+R6pcGlrV9cnvQcZQlJbAOw/H3nLYGHYeIjBxj/F4S23SkeNnavq/EV2/o5DdPZLBWJw3KkVlUgXUk8aghGtEOQjm8/hMKf/N4hq/e0Ml2PRPL2v4uT833RaqfAdoM6AiWw1AC63D8Pafzgw5DREZWNm/ZsrcYdBhyGBsONhm+b1U26FCkQqjS6PCiriER1XWRN2aMfzrvl67vYP1OPRfLVWevElgiIbHYGhqCDqIcKYF1eLPx956KSBXzLGzZo4F6uVmztcCXruvgiZdz6nclA2P7E1hBB1J+Xt1aqUmvHIVj4ImXc3zxunZWb9YpveWmWLLqfyUSHtMP/pPXUQLrddo+uQ1gGf7eUxGpcjsPlCgUNbMrF89uyHP1dR08tyGvkwZlwCyqwDqS/q2VusvJQDgOPL+xwBeva+eZdfmgw5FDFErQ06dfskhINACLl31qW9BxlB1ND17HYl2gDX/vqYhUMWNg+/4iB3p0+lI5eGptjn+6voOXtxaUvJJBS0RVgXU4am4vg+U4sHZ7kX+6voPHX84FHY4AJQ9++3Qfr2wvqDJZJBwO5iSsfvGvoynC6xjjNACLgo5DREaeY2Dj7iLfv61bpy8F7LE1Ob58fScbdhaVvJIhScYMEc3s/kTENSRjRn1zZFAcBzbtLvLln3Xw0Gr1IgxSvmC5/r4e/t9NnXT2aguhSIgsc6yjXWGvo2nCn5oOzAg6CBEZHZ4Hv3kiw1du6GSrGrqPOgs88qJfebV5j5JXMjTWQiKuCqzDcR1IxjXjlcFzHNi2t8SXf9bJfc9llQQNQG/W8sO7uvnX27vp7rNKXomEy2xj1Jf79TRVOMTxn94FfvVVQ9CxiMjoMcADz2e5+toO1mxT49rRlitaohGNymXojIF0XEOaI0nFHU18ZciKJcuBnpL6qI2y9h6P7/y6i5/8rodcXskrkRAaB8xf9hdbg46jrGi0dwjjPxlW4O85FZEQcQw8sy7PF37awdNr1fNjtBjg7KUJ/vnPGnlzWwLXQav8MmgGSKnK6IhScaPGnjIo/ffhttkxvnpFI287Ja3eS6NoV3uJa37ZyY0P91L0UPJKJJziQGssrZTNoXQ1DlEslWqApUHHISLBcBx4ZVuBq6/r4L5V2i4xmuZMivL59zXwqUvrGFvv4KmvvgyGgVRCM7wjSSWMjqaRAfM8SCcM7zsrzdeuaOSEuXElr0bRxt1+A/27n+4D9NMVCbnWYs7Ggg6inESCDqC82GZgTtBRiEhwHAe27Svx1Rs66Oqt4+ITUuqrM0pqkg4fPLeGhdOi/Psd3axcn8darTzL0fkVWFqTO5J03NEkWI7K4ldetUyK8OcX1HLOsoS2d4+y1ZvzfOOXXazalFfSUEQA5hvMOGB70IGUCyWwDlrxsR1Y7Hz8vaYiEmKOgX1dHt+8qZPenOXdZ6RxNTceFcbAcXPjfG1ChJ/e28vNj/TS02fV3F3emPErRuTwUnGjRLC8Ic9CLGI4d3mCP7ugllkTNUUYbU+tzfH1n3eyXqfxishrJgGzUQLrVbo9HmRTFqAVf6+piIScY6A7Y9m+r6ithAEYV+9y1WW1/OP7GpgzOYJnUQNhOSLHQDKmDM2RKIElb8TzYGKDy1+9tY5/eG+DklcB2XmgxNZ9RYxmZyLymhpgadtVyl/10y3yIFMwMfwElogIngfzpkZ571lpbSEMSNQ1nNeW5Jorm7jo+CRR1+ApiyWHEXGMElhvIBEzRFxdH/lj/YszJ86P89UrGnnvWWkdhhCgc5YlOXtpEqsekCLyGgOsMMZqNnKQElgHWWPHAQuCjkNEgmet3/T4ijfXMGWsVqKDNnNihP/zngb++m11TGx01eBd/ogFIq6fpJHD8xNYqmKU13ge1KYcPvLmGr7ykUZaW9QjOGjphOGK82qYMs7VYo2IHGqx9ZyGoIMoF0pgvaYFf4+piIScBc5vS3LW0kTQochBqbjhPWem+foVjZy8II4Bbe0Un4WIa5TAegPJ/gos/WZCz+L3u5o/NcrV72/gLy+uY0ytpgPlYu7kKO8/u4aY1s5E5DXTgWlBB1Eu9MQCVvh7Spfi7zEVkRDzLMyaGOFDb6ohHtWEuNwsmxXjyx9u5CPn1VCXclSNJYBfgaUthEeWiBkiGvGFnmchHjFcdlKKa65s5OxlCW2RLzPGwCUnJDltUULPNxHp1wh28XGf3B10HGVBwxmfA6wAnTItEmYWSEQNHzy3hhkTtPxZrppqHf7y4jqu/kADC6ZF1eBdVIF1FImYIaoeWKHmeTB5jMvfvKOOv31XPdPG6xlXrmqSDleeV0tzk7YSiggALtDmWD3HQQksACw0AIuDjkNEgmU9OGNJgvPakkGHIkfhOnDW0gTXXNnIW09OEY+owXtYWSAagZgqJo8oFjHEokaJ3hCy1q/qOW1xnGuubOTy09KqVqwAC6dFefeZaVVOiki/ZUWnoN1iKIHls0zD31sqIiHlWZjQ6PKhc3UKUyWZOi7C376znv/v8nqmjFWD97BKqsLoDfkVaqhUMWQ8DxpqHP78glr+6UONLJquRu2Vwhi47KQUK+bEKem5JiIwG2gOOohyEPoEVtunNwEsApqCjkVEguM6cPlpKRZM0wC/0iRihrefmuKaK5s4Y0kCx6jBe6jY107Zk8PzT2kM/ZAvNKz1/y2eEeVLH2zgzy+opSGtz7/SNNQ4fPhNNTTWOHqmich4YH7rVTuDjiNwoX+aGeMBtOHvLRWREPI8WDozxttOSeGoiKNiLZx2cLJ2YS0NNWrwHhaW/gSWfrxHEnENCW0hDAXP+hWJl5+W4utXNnHaogRO6Ef7lev4uTEuOUFtDUSEONBqvGLQcQQu9B0cbTGWxrAs6DhEJBjWQm3K8OE31TCmTnnsSlefdviz82tZPD3GD+7o5vlNecDfjiHVKxFzVIH1BnRKYzh4HkwbH+Gj59dw/oqkTtKtAhHX8J6zanjilTyvbCsoGSkSbq3WODEgH3QgQdJt0NAMzAk6DBEJhgXOa0ty8oJ40KHIMHEcOGVhnK9f2cg7T0+TjKvBezWzFpJRQ0Tlk0fUf0qjtiFVJ2v9+97ZyxJ846ONvOWklJJXVWTyGJcPnpv2f8NBByMiQZpvYFzQQQQt1AmsE6/aD5h5+HtKRSRkPAvTx0V439k1xCIa7Feb5iaXz769jr97Vz0zxke0pbBKGSAZN6pMeAOO8a+RKhGrj+fBmDqHT1xSxxc/0MC8KdGgQ5IRcO6yJGcsSWD1HBMJs8lAS9BBBC3Uw72szQAsBxJBxyIioy/iwOWnp5g5MfS7qatWPGq49MQU13y0kXNbE7iOGrxXHQOphDIzR5PWNaoq1voVxK2zY3z5w4185E011KZCPayvasm44QPnpBnXoIbuIiFWAyxtu2p70HEEKtRPOhc3it/AXURCpuTBslkxLj4hhaZ11W/u5ChfeH8Dn7ikjrF1avBeTQyQiutXfDSpuKN7XZXwrJ+0fe+Zab52RSMnzourui4EFk2LcdlJKX3WIuFlgBVgQp3DCfUfD4wFFgQdhIiMLmuhJmn4wDn+8dQSDrVJ/0jyr3ykkbY5MUDVWFXBQDqu3/HRpLSFsCp4FmZNjPAP72ngr95ax4QGnV4QFo4Dbz81zdwpUS3CiITXYrANQQcRpJCP+GwL/l5SEQkRa+GcZQk1bg8hY+D4uXG+9pFG3ndWmnTCaCJQ4QzaQjgQ2kJY2TzrnyZ5/ook3/hoExcclySq3o2h09zk8r6z0sR1qqhIWM3AMi3oIIIU2gRWq793dClQG3QsIjJ6POsPAN97Vo1OaQqx8Q0un76sjn94bwOzJ0XwDvaTkcpjjLYQDoQqsCqX58GEg/esf3xvAy3N6tsYZucsS3LKwjglLb6IhFEjsOjEv9oadByBCW0Cy1rj4Pe/0nBOJEQcA5ednNJJTUI0Yjh/RZJrPtrEhccliboGT1msiuM4foNjeWPJuIMb2lFfZerf4nzCvDhfu6KR951do0o6IZ0wfODsGsbUqaG7SAi5wArXCe+PP7RDGQdbDywJOg4RGT2eB3MmR7ns5BSO5gBy0KyJEf7hvX4/mYkNrrYUVpiIY0hqO81RJaKGiKvrVCk8D2qT5tW+fa0tMa24yquWzoxxwYqkKodFwmlZtuCkgw4iKKFNYAFTgRlBByEioycagctPSzGxUU1v5Y+l4ob3npXma1c2cuJ8vzeaVrbLn8XvC5SIhnk4MzCJmCHi6ntd7iz+Vve5U6J8/pCTU0UOFXHh8tPSTBvnqnJYJHzmYGkOOoighPKJuPyvdwEsApqCjkVERkfJg9aWOG9uTQYdipSx5bNifOXDjXzkzTXUphxVY5U7CxHXkFAF1lElY6rAKneehVjEcOmJSb7x0UbOXZ4kovUWOYIZEyK89ZS0tgaLhM84MPNP/utw9sEK5y3PX6ltA9QFUyQELFCTMLznzDT16XDe9mTgxtQ5fOKSOq5+fwPzp0bV4L3MRVyUwBqA/gosKU+eB5OaXP7m7XX873c3MH28hqjyxoyBS05IsmBqVIstIuGSAJb3ZMPZzzeUT0enr5AClgUdh4iMDs+D0xYlOHlBPOhQpEK4Dpy9LEFLc4T/uruH3z7dR7Zg1TutDEVc9cAaiMTBCiyLTq8pJ9b6BxGcuijOxy+qZcmMWNAhSQUZV+/y7jPTrN3RSaGopRaREGmLRrwYkA86kNEWzlIEy0RgbtBhiMjIs9avqHn3mWlVacigTRsf4W/fVc/fvKOOyWPU4L3cWCAeNURDuRw3ONGI38hdyofnQX3a4aPn1/JPH2pU8kqG5KylSU6YG6Ok55NImCyw1o4NOogghC6BdcpntwLMAyYEHYuIjDxr4U3Lk5oYyJAlY4bLT0tzzZWNnL44jjFqhF02rHo7DVTEOdgrTN/dwFnr/1s0PcqXPtjAxy6spbEmdENyGSY1CcO7z6yhLmX0bBIJj0kGWoIOIgihe1r2ZSMAy/H3jopIFbMWJjS6vO2UlHq/yDFbND3Glz7YyJ9fUEtDjRq8lwOLejsNVH+vMM1vg+VZ/3N4+6kprrmyidMXJ9SEW47ZcXNinLYooRMJRcKjFlja9qntQccx6kJXdO8YG7V+A3cRCYELjksyd3I4mxzK8GuocfjzC2pZPD3KD+7s5oVNBcBvpivBSKgCa0B0WmPwPA+mjne58rxaLjwuSVxbOmWYxKOGd56e5rE1OTp6PD2TRKqfAdrwrAOEakk1dGs+1jAGWBB0HCIysjwLU8a6XHZSCid0dzoZSX7D5QRfv6KJy09LkYgZrXoHSBVYAxNxUbP7gPQ3aj9rWYJvXNnEW09OKXklw27JjCjnLk9oG6FIeCzBceqDDmK0hXBaZ2cBU4KOQkRGlmPgkhNTzJgQukJTGSWTxrj8zTvq+d/vqmf6+Ii2FAbA9vfA0vGQR+Ue7IGlye3o8jxoqnX4i4tq+eIHGpg/VRXBMjIiruHtp6aZ0Ojqdy4SDjMwdlrQQYy2UCWwVvh7RJcAdUHHIiIjx7Mwc2KEi09IqYxeRlQ8arj0pBTXXNnIOcsTOI4avI8mYyAZN/qdD4AxkNK1GjX9jdqXtcT48ocbueK8WupSoRp2SwDmTY5ywYpk0GGIyOhowrJoxV9sCjqOURWqJ6nFM8AK/D2jIlKlXANvOTHFpDHaVySjY96UKFe/v4FPXFzHmDo1eB9N6bge6QOViodq2BcYz/rJwveclebrVzRy0vw4KhKU0eA4cNnJKSaPdbW1XaT6uUCbUyoFHceoCtlIxqnHr8ASkSrleTCrOcJ5K5LKVMuoqk05fOTNNXzlw420zo5hUTXWSPOrikI2lDkG6YQqsEaaZ2HmhAh//54G/uqtdUxs1EKKjK7pEyJccJzGQCIhscyLJ9JBBzGawjbqmwrMDDoIERk5ruP3vtKkQYJgDJwwL87XrmjkfWelSSeMqrFGkAFSCU3TBioVN5rUjhDP+s+fN7cm+MZHG7no+CSxiK62jD7HwMXHp5gyTlVYIiEw18LEoIMYTaFJYLV94hWAhcCYoGMRkZHxavVVm/o/SLAmNLh85rI6/s97G2iZFNEkYgRpC+HApROOmiiMAM+D8fUOV11Wx+ff38DsSWrULsGaPj7Chcel9HMXqX7jgfmnfm5v0HGMmtAksEzheYBWQEeSiVQpVV9JOYlGDBesSHLNlU1csCJJxEWJrGGmLYSDk4wb9WIaRv1bhI+bG+OrH2nkA2fXUJPQ91GCZwxcdHySqeO0gCJS5RLA8u6uvqDjGDWhecraxIlJYHnQcYjIyPA8aJmk6ispPy3NEf7hvQ185rJ6JjS42lI4jCIuJFSBNWDJmMFVBmtYeB7UJA0fOKeGr36kkRVz4uovJmVl2rgIFx2f1PdSpPq1RqJuaEp/Q5PAwpqJwNygwxCRkeE6cMkJqr6S8pROGN53dpqvXdHICfPigBq8HysLRBxDMqrZ2UAlYoaI6187GRqLX0k5d0qUz7+vgaveUsu4ej13pPwYAxcen2SaqrBEqt0CLGODDmK0hCKBteKj94OfvApVgzORsPAszJgY4U2tqr6S8tbaEuMrH2ngw2+qoTblqBrrWNiDFVgxJbAGyk9gGWWwhsizEHMNl5yQ5JorG3lTa9K/niJlaurYCOfrVGaRajcFaAk6iNESigSWTS4Ef/ugZrciVcgYOH9FUtVXUhHG1rl84pI6vvD+BuZNjeJZ5ROGKuIaJbAGIRn1K7Bk8DwPmhtd/vrtdfz9uxuYMUEtVaX8GQMXrEgyaYxOJBSpYrXAkrZPbQs6jlERigQWXiGC38BdRKqMZ2HKGJfz2tTnQSpHxIVzliW45spG3nJiiljEaHIxBEpgDc6rFVgyYNb6SYCTF8b5+pWNvPuMNEn1XZMKMn1ChHOXaw1fpIoZYIXFhCK3E4o/EseMARYGHYaIjIw3tfon7YhUmunjI/zdu+v5X2+vY1KTGrwPhkVbCAcrHjXE1ANrwDwP6tIOV55Xw5c/1MjSmbGgQxIZNOfgiYQTGlz1XhSpXksM1AcdxGgIRwILOxOYGnQUIjK8rIWJjS4XHpfU0fBSsZIxw+Wnp7nmykZOXeSfZKZJxsAkYoaoKooGLBJRxdpAWPzf4MJpUb74gQY+flEdTbUhGTJLVZo9KcpZSxN6tohUrxmEJN9R9U/jFZ/cAbCEkGQkRcLEWjhraYJZzaE5OXZILFBSZU/ZWzwjxpc/1MifnV9LfVoN3o/K+gksVz2dBiziHKxY0yT2iDwLiajhraek+PpHGzlzSQK36kfLla0/4ShH5jpw8QlJxtQ5ulYi1akJWLTskzuDjmPEVf0j2Sn5e0JBB3CIVBNroanO4aLjk5pcHMW6HQW+fXMnO/aXgg5FjqKhxuHPL6zlSx9sYNGMKNZqYnYkFvV0Gqz+nmH6Sh2e58HUsS6fu7yez72znqljtTW93GXzlut+38NDq7NBh1L25k+NcurChPotilSnCNBmbfWPiar+yVyK2Dr8CiwRqSKehZPmx5k/RdVXbyRftNxwfy83Ppxh7Y4i/9/l9bQ0V/2tv6K5Dpy+2K8s/PHd3dzxZB99eattsoeRjOlUvcFQz7DDs/bg725pgo9fWMuCaXquVILuPo//vKuHn93fw6LpMRZOizGmTitaRxJ1DRedkOS+VX309FkdfCNSfZZFnGIKyAQdyEgKw11+CjAr6CBEZPhYoCZhuPC4JNGIRmBv5LE1Oe5Z2Ydj4PE1Ob7w03ZWbcwHHZYMwOQxLv/f5fX87bvqmTYuoi2Fh6EeWIMTcQ3JmFFV3yE8DxprHD5+US1f/ECDklcVYn+Xx7du6uL6+3ooluD5TXlueSyj7/ZRLJ0Zo212XFVYItVpLpiJQQcx0qo6gdV61TbwTx8cE3QsIjJ8PA+WzorR2hIPOpSy1t7j8dN7e+jK+CutjgOrNxe4+toOHnkxF3R4MgDxqOGyk1Jc89FGzl6WwHG0pbCftX4FlrYQD5zrQDKmCwa8uj136awYX/5wI1ce7D0n5W/bvhJfuaGDWx/LULJgjN/n8caHenlleyHo8MpaMma46PikKjFFqtMEYN6KP98TdBwjqqqf1JFcHKAV0HKaSBWJReDC45KkExqAHYm1cPsTGZ5dn/+jCb7jwMZdRb50fQd3PdWnqp4KMX9KlKs/0MBfXuyfhqbPzZ+0puJVPYwZEamECf3WIc9CMm541xlprrmikZMXxLVFt0Ks3V7gi9e1c98qv+dV/8fmGNixv8R19/WQKyjL/0ZOnBdnwdSoDncRqT4JYLlNVHciv6pHfqVYPgEsDzoOERk+ngdzJkc5ZUEi6FDK2uY9RX71UIbiYQaojgO7O0pc88tOfvlQL4WSBvuVoC7l8JE31/CVDzeyvCUW+pO3DH4yRgYnFTehPtXG82DGhAh//+56Pvv2OiY2qYlapVi5Ps/nr+3gqVfyh004GgO/fy7Loy+pwviN1KcdLjguqf6BItWpDc9UdfFOVSewOFhGF3QQIjJ8HAfOa0uqUesbKJbglw/2snlP8YhVBY6Bzl6Pf7mlix/f3UNfPsSZkAriGDhxfpyvX9HIe85Mk4qb8PYyMX4yRgYnHXdCeS5zf6P2N7Ul+MaVjVx8QoqYeihWBGvhwReyXH1tB2u2FHCO8Pg3Bnr6LNff30NHr8qL3siZSxLMnBAJ7/NDpHotxFR3+6RqnwHOBaq+kZlIWHgWJjW5nLVU1VdvZNXGPHc91XfUOaox0Jez/Oi33Xzv1i46NeCvGBMaXf7qrXX8/XsamDUxnA3eDQeTMTIoqUT4KrA8D8bWO3zq0jq+8L4G5kyu6sXpqlLy4I4nM/zTzzrYsqd4xORVP9fxK7Xueqov6NDL2oQGl7OXJUN3LxAJgclgW4IOYiRV7civzW/gvgxIBR2LiAwTC6cuSjB1bCToSMpWJuevPu/v9gbU58YYKBTh53/o5Z9/1cnezlLQf4IMUCziN+O95somzluRxA1hg3dVYA1eKh6eHlj9v4cVc2J89cONfPDcGmqSVTv0rTr5oj34bOpib6d31ORVv/4q5K17i0H/CWXLGDh3eYKx9U7onhsiVa4OWLLikzuCjmPEVO1T3GAiQFvQcYjI8LAW6tKGN7UmBjyIDaOHVmd55MXcoK6RMf71vePJPr78s062aNBfUWZPivD59zVw1WV1jKt3Q1ONFY0Y6nRq3KDVppxQ9L7xPKhJGt5/Tg1fu6KR4+bGQ5O4qwaZnOU/7+rhe7d20ZXxBtVk3zH+YSU3P5IJzf1wKGY1RzhhXlzbCEWqiwFWGGzVDpCq9g+zliZgUdBxiMjw8Cwsmxln0fRY0KGUrY4ej1/8oZdMzg5pW4Ax8IeDfUZe2lrdJ5hUm3TC8IGza/jqRxo5fp7/G6nmVfWSB0tnRGlr0f1gsMbXO6Ti1Vt1YfGfF7MnR/jH9zbw6bfUMq4+BBm7KtLR4/GdX3fx3/d0k83bISce73iyj5e36Vl2JFHXcH6bf6Jzld4ORMJqsedXYlWlqk1gATOBqUEHISLDIxaB89oSJGNaQj+Se1b2sWpjHvcY7uyOgZXr8nzhp+08+YpOcqokxhzcKvWR/q1SpmqrD6yFiU0uDTXVPIwZGbUph3i0Ou+jnvUn5Rcdl+QbVzbx5rYkEbc6/9ZqtbvdPyH3xod6KXoMOXlljP9av3ywl0JR6ZkjWd4SY+G0aNU+K0RCaiamevMgVTnya/vEDoDFQH3QsYjIsfM8mNUc5cT58aBDKVu72kvc+HCGwjDs/nMcWLu9yBev6+C+57JVW6lRrcbWuXzq0jo+/74G5k6J4lmqbnXdMaiqZojqUg5NtdVXgeV5MLHR5a/fVsf/eW8DMyeqV2Kl2bi7yJeu7+C3T/dhOfbDMo2B3z+X5Zn1+aD/tLJVm3R4c2syFNuKRUJkDLDolI9tCTqOEVGVCSzjP/PaqvXvEwkbY+CspQnGasJ6WNbC7U9kWLu9MGz9wRwHtu8v8ZUbOrjlsQwlrc5WlIgLb2pNcs2VjVx8QpKYa6qqz4nrwLTxSlAMRU3CMHVspGqSmtb6g76TF8T5+hWNvOfMtJr7V6AXNue5+qcdPPJSbth6lRkDHb3+1vq+XLV844df/+E41fSMEAm5CNCW7qvOnrZVmeCxxtYCS4OOQ0SOnbUwps7hzCUJHfd8BFv3Frnt8b5hH3w6BvZ3e3zrpk6u/X0PuYJGt5VmxoQIf//uBj779jqam6qjwbu1UJN0mKUKmyGJuIYF06KDaopdrjzPryi74rwavvzhRpbNUk+0SvT4yzmuvraDVRvzw/69dBx4bE2OR9doS/yRNDe5nLooXn2luiLhtuxAfTwVdBAjoSoTWBgmAy1BhyEix86z0NoSp6VZk9XD8Szc9ngfW/YUR2RC6hjo6bP8++3d/OCObnr6qiADEjKpuOFdZ6T5+hWNnLIw/uqpk5XKWpgy1lUF1jFY3hKjNlW52wj7G7UvmBbl6g808BcX19FUW51D2mrmWfjdyj6+eF0H63cUR+SEYQP0Zi03PtSr59cROAbOXpakLl259wQR+RNzLUwIOoiRUHVP+2Wf3AawABgbdCwicuziUThnWYJYpArKBUbAxl1F7nwqM6ILp8ZArmD56e97+H83d3GgW5OASrR0Zowvf7iRK8+rpT7tVHQ1VtucOPWpqhvCjJrZzRHmTq7MLUOehXjE8NaTU1xzZSNnLU0c08EVEoxiyXLzw7187Red7DxQGpHkVT/XgafX5XlwtaqwjmTB1CiLp0cr8p4gIoc1AZg386qXg45j2FXdI78+EgG//1U06FhE5Nh4HsyYEGXFHG0LOZySB7c+lmH7/tKIbwcyxn+/Xz+a4as/72DH/lLQf74MQWONw8cvquWLH2hg4fQotsIavFsLdemDW4qV0x6ymqTDucuTRCpsFOh5fvXd/3d5HX/7znqmjlMVXiXK5i0/ubeXb//aXxAZje2s2bxfhdXRW8GZ+xGUihvOXpZQM3eR6pEElo+zdUHHMewqbOhydD2lUgJYHnQcIjIMDJy+KM7YOo2oDmf9zgJ3P9M3ar3B+t/n989m+eL1HazbUQj6EsgQuA6csSTBNVc28rZTUiSildPg3bPQOivGwqlaozpWZy5JMHNipCIq8az1k+inL0lwzZVNvP3UNImYMpiVqLvP499u7+aHd3bTm7Wj1ovNdeD5TXkeWJUN+hKUrZPmJ5g8pjIrM0XksNoKlKpuwFR1CSxgPDAv6CBE5NhY61eLnLlUlRaH43lw2+MZdrWXRv36GANPrMnxhWs7eG6DjievVFPGRvjcO+v53OX1TB1b/g3eLZBOGN52aoqkTpk7Zs1NLpednMIt8/UBz/OfBR+7sJYvfbCBhdOqbiweGvu7PL51UxfX39dDvmBH/dmVK8Atj2bo6Cnzm11AJjW5nLwgrj5YItVjocGMCTqI4VaNCaw5QHPQQYjIsfEsLJ0RY84kTVYOZ/3OAr9bmQ3sZEbHgRc3F7j62g4eXq0V7UoVjxreekqKaz7axFlLEzhl3ODdenDG4gQnzIsHHUrVuPiEFG2z45TKcD5vrf9vycwY//ShRv7s/Foa0tU4bA2H7ftKfOWGDm59LEPpYEXdaHMdWL0lzwMv6Jl1OI4DZy9LUJs0FbW1XESOaAowK+gghluZr7sNTutV2zCYtwGXBB2LiBwb14EPnFPDkpnqf/V6ngc//X0vD7+YG7XtF4djDLT3eDy9Lk9TrUtLc1TVchVqXL3LyQvjpOKGdTuLZLKjXx3xRjwLk8e6fO7yepqbqmroEqhkzDChweWxNTl6c+XzmXvW78nz1lNS/K/L61k4TfeWSrZ2e4Gv/LyDR17KYQyBLbwAFErQlfE4c0lC21APoyHt8NS6PNv3jXxvTREZcXHgyeYT/vrpnU/8v6BjGTZVtZRlsC5+A3cRqWCe9be3HD9XyavD2bCrwD0r+4IOA/BXbHd3lPjGrzr5xYO9FIpat61U9SmHK86r5csfamTprNirFTBBs9ZPtFx5Xi3zpqgic7gdNzfOh99UQzxiyuLz9jyYMT7C372rnv/19nomKWFZ0Vauz/P5n3bw1Cv5skiIuA6s3pznD6rCOqyapMPpixIjeiqkiIwaA7RhvDK4+w6f6ro9WdMELAo6DBE5NtbCcXPiTBqjE6Zez1q486k+/9jxMnkcOQa6ej2+e2sX/3V3D5lcGcyCZUgcAycviPP1Kxp51xlpUvFgG7xb/CTp5aenueSEpKpwRoBj4B2npbn89BSOE9yplNb6yYVzWxN846ONXHpiilhUH3ilshb+8HyWq6/tYM3WQlklRHIF/wTfrkwZ7p0tAycviDO21imLhLaIHLMlWLc+6CCGUxk9ToaDmQFMCzoKETk2yZjhjMUJ3Cq7Qw2HrXuL/G5l+a0cGwN9Oct/3d3Nd2/tolNHlVe05iaXz769jv/97gZmTgjmpDqLv3T4lhNT/Nn5NUpmjKBkzPDxC2t5+6lp3AD6oHkejKlz+OSldXzh/Q3MmaxKu0pW8uD2JzN8+YYOtuwpllXyCvxE6QubCzz6Ui7oUMrSjAkRls6K6TRCkeowC78XVtWomrrs1s/sxFh7HvBugt1eLyLHwPNg9qQoV5xfS0onjf0RC9z4UC/3Ppsty0oUY/yJy0tbC+xuL7FkRox0osxmLjJgrmOYOzlK25wYHb0eW/YUKXmj03zZWoi48LZTUlz1ljrq1bx7xMWjhtaWGCUPXt5WoFAa+c/a8wADbbNj/O0767nwuBRxJSorWr5o+cUfMnzv1m4O9Hhll7zqVyhCNm85c0mSWETfuUO5jiFXsDy0OqsqLJHKlwDz4Lgzrlq9+5HvBB3LsKiaBNbEk/+XMZ79KHBi0LGIyNBZ4NITU5y1JFGWSZog7W4v8b1bu9jf7ZXttemPa+2OIht3F1k0PaaTwyrcmFr/aPXalMOm3UV6+vwZzUh9Bz0P6tMOH35zDR+7sI66lL4/oyUWNbS1xBhT57BuR5HOjB2RptvW+lsXF0yLctlJKT59WR1zJ6tRe6XL5Cz/dXcPP/ptN71ZWzbb3A/HGNjX5bFgWpQZE9Su4PVqkw4PvZCjvbd8xxsiMiAOsGHf+Pbfdd3770HHMiyqJoE16fi/qQX+GpgedCwiMjTWQm3S8OcX1jFpTNXcnobNbU/0cceTfRVRYmoMbN5TYs3WAnMnRxlXr8+zksWihqUzY5wwL04sati0p0RffniTG571vzcLpkX57NvredspaVXjBMB1DQunxVg+K05Pn2XH/hL5IsPyWfcfDDC+weV9Z9fw12+r46xlSWpUqVnxOno8vndbNzc80PPq96WcGfxeWMWS5YwlCSJumQc8ytIJh427iqzeXCjrRKSIDEhvuit9484nv1kMOpDhUDUziuYTPjsL+CugLuhYRGRoPAuLp8d4/zmauL5e/+Rg14FS2U8M+hkDOw+UWLUpz8wJESarKX9FMwbG1LmcMC/O/Kkxuvs89nZ4/mSVoU9Y+/trTR7j8p4za/jMW+tYMiOmSVPAxje4nLoowZzJUfryHge6PHKFg/2xBpHMsvZgchIYV+9ywXFJ/uqt9VxwXJKapFMRCXl5Y7vbS3zzpi5+83iGki3/5FU/g1+F1doS06Exr2OM/7t94PksJbW0FKl0LsbctPOJb3YEHcjw/DFVYNlfbMVxzGnAh6vlbxIJq7eekuKUBYmgwyg79z+f5cYHM4GdEDZUxsD+Lo9n1ueZ0Bhh5oRIxUxu5PAcxzBtXIQzFieZNzWKtZauPo++nPUnOge/pIf7nC2vJTSshUTUMKs5yjtOS3PVpXW8uTVJbVLVOOUiGjHMmhjhzCVJls2KUZtyXu0dVCj5Pe/6q6oO9y/i+NtBF02P8rZTUvzFxbVcdnKaCY2u7gNVYuPuIl/7eSf3r8oOKrFZDoyBvrwlGjGcujBRtv26glKbdHj4xRz7OrWNUKTCJYDftb3vm+vX3vXFoGM5ZlWx3BBPRikWSq1ALOhYRGRorPUnOifOjwcdStnpy1vufLKPbMFW5MmMjgPb95f42s876MrUcemJKSJaaqh4NUnDOcsSnLYozqbdRVauz/PchjwbdxXZ312iN2splsAe7ALsOIZYxP+dT2x0WTA1RtvsGIuma4tpuUsnDCfNj3PivDgHuj027S6ydkeBzXuK7O0o0ZXxXt02logZGmv8z3jWxAgtzVGmjnOpUWKy6rywucA//7KTVZvyFVsx6Rh4eHWODbv87e7ymqZah+PmxFiztRB0KCJybJLA8h1rt/826ECGQ1UksAr5UtwYWoOOQ0SGzrMwb3KU2c0aQL7eqo15Vq7PVewEAfxJwv5uj2/d1ElHr8f7ztI20WoRi/inFc6dHOXy09J0ZTz2d3t09pTo7rPkCn6vrFTcUJ92aKxxaap1dMpoBfK3kTqMqYuxYo6/ZlgoWUql17YJGgeirqnIZLsM3ONrcvzzrzpZv7NY0ZVLxsCejhL3PNPHnEk6SOBQxsApCxLc/EjG73kYdEAicixaHdeJABXfB6sqEljGMB6YH3QcIjJ0joGT5sdJJzREOlSxZLnrqT66MpVZfXUox0Bv1vKDO7rp6vW48vwabRerMq4DjTUOjTUOVTLEkKOIuoaoCuhCw7Nw77N9fPvmLnbsL1V08qqfBe59LsvbTk0zqUlf5kMtmBZl5oQIqzcXMFXwWYuE2CLr2THA7qADOVbVciuaDTQHHYSIDI210FDjcMI8bR98vU27izz6UmVXXx3KGMgXLNf+vodv3dTF/i51hxURqQTFkuXmR3r5+i862XGgOpJX4C+ubNlT5KEXskGHUnYa0g7Ha2wmUg2mALOCDmI4VPyjZ8WntgEsBWqCjkVEhsazMG9KlJkTVbFxKAvctyrLno7KOXlwIIyBkoVbH8vw1Z93sH1/KeiQRETkDWTzlp/c28u3b+7iQLdXNYsq/YoluGdlH919WlQ5lDFw8vw4NUlTcYfIiMgfqQeWrPjUjqDjOGYVn8CyWBdYEXQcIjJ0joHj58bVE+d19nd53PdcFluFo8b+T/r3z2X54rXtrN2uJrEiIuWou8/j327v5od3dtObtVWXvAL/sJEXtxR4dn0+6FDKzrwpUWZMjGCV2xOpZAZoM07lL4lXfAILnEZgUdBRiMjQWAt1KYcVs3WI6Os98XKO9TsLVbNN43AcA0++kucL13Zo4iAiUmb2d3l866Yurr+vh/zBAxmqkcHv0fjbZ/oolKpw1egY1KUcVrRoG6FIFVjieV5d0EEcq2qYFk0/+E9EKpBnYVZzhFnN2j54qGzecs8zfeRCUJjkOPDSlgJXX9fBgy9UZ8WZiEil2b6vxFdu6ODWxzKULFWbvOrnGH/haMPOij+ka1gZA8fPi5NUlbxIpZuF3wurolV0Auv4T+8Cv/qqIehYRGRojIEVc+I6je51Xtle4LkN+arcqnE4jgObdxf58s86uOPJDCVtVRARCcza7QWuvq6d+1b5jc3D8CgyBvZ1ejzwvJq5v978KVGmjovg6dksUsnGAAtP+8jOoOM4JhU9YzTGGPz+VzrzVqQCWSCdMBw/R9sHD2Ut3L8qS3uvV/Ur3odyHNjT6fHPv+ri5w/0ki+qFEtEZLStXO9v637qlfAsovSzFh54PsuBbmVqDtVY67B8VkyN3EUqWxRoe+jH24OO45hUdAKr5JXS+CcQikgFsh7MGB9h7uRo0KGUlb2dJR5aHc4VYMdAV8bje7d18aPf9pDJabgsIjIarIUHX8hy9bUdvLSluvsvHonjwPqdRZ5Zlws6lLLiGDhhXpxENGQZTZHqs7ztU83JoIM4FhX9aLLWTgJmBx2HiAyNBZbNilGfruhb0bB78pUcm3YXQ7fy3c8YvwfYj+/u5ju3dNHRq5VwEZGRVPLgjicz/NPPOtiypxjK5FW/bN5y77NZCqoC/iOLpkdpHuPi6bKIVLK5GCYEHcSxqNjH04qP7QCYD4wLOhYRGZpE1LBidjxU2+SOJl+w3PdclnzIe8gaA0UPbnywl2/8spPdHaWgQxIRqUr5ouWGB3r55191sbfTC3XyCvxqo6fX5di4K+QP4tcZV++yeHpUB62IVLaJwNzfN1TuD7liH1Fe0gNoBXSuq0gF8iyMb3SYP1XbBw+1YVeR5zaGr+/I4Rj8Kr27nurjS9d1sGm3JhMiIsMpk7P86Lc9fP+2Lroynp49vNbM/eEXtY3wUK4DK2bHiajzsEglSwHL/vqD24KOY8gqNoFFwcTwE1giUoGshQVTY4xvqNzb0Eh45MUc+7vC1bz9aIyBR17K8YWfdrB6cz7ocEREqkJHr8e/3NLFj+/uJpu3eu4cwrPw4OosXRltYT/U4hlRmmodVWGJVLa2SMlEgg5iqCp25mgcxuFvIRSRCuQ60DY7RsTViLlfV8bjwdVZ9Zc4DMfAqo15vvDTDh5fo1VxEZFjsbujxDW/6ORXD/ZS9FDy6nUcB17ZVmD15kLQoZSVyWMjtDRHNU4RqWyLrDFNQQcxVBWbwMJv3j4p6CBEZPCshYa0w9IZsaBDKSurNxdYuz2cJz8NRP/pUF+8voPfrezTAFpEZAg27i7yT9d38Nun+7D427XljxmgJ2v5w/NaVDpUMmZobYkp4SlS2aZimBV0EENVkdOktk9uA1gK1AQdi4gMnmdh5sQI08ZXbPXqsLMWHlqdpSdrNZl4A44DOw+U+NrPO7n5kV6KJc0sREQGavXmAlf/tIOHX8wpCXEUxsDjL+fY3a5DRA7V2hIjnTDo6StSseqAxSs+vTPoOIakIhNYnh93G1o0EqlIBlg60x8AiW9fV4knX9GEYiAcAwd6PL59cxc/+V0P2byG0SIiR/P4mhxfuLadVTooZEAcA9v2FXl2g3ovHqqlOcqUsRGs2oOJVCoHWGEqNJdSkQksx5gGYHHQcYjI0MRjhqUztX3wUKs2Ftiyt6RJxQA5Bnqzlh/e2cO/3d5Ntxrtiogclmfhdyv7+NL1HazfUdQ29UHIF/3qaFX7vqahxmHR9KgqsEQq2xLPluqCDmIoKvURNh2YEXQQIjJ4noVx9Q5zJkWDDqVslDx/gKxKosExBvJFy/X39fDNm7rY16VtHiIihyqW4OZHevnaLzrZcaCk5NUgGQPPrs+zfb+eL/0cA8tmxoi6QUciIsegBWsmBx3EUFTcY2z5p7cCLAIag45FRAbPWpg9Kcq4hoq7/YyY3e0lVq7La/vgEBgDJQu3PZ7hqzd0sm2fJhkiIgDZvOUn9/bw7Zu7ONDtqcJ3CBzjn9j41CvaRnioBVOjNNQ4WK27iVSqMWAWtl5VeX2wKm8GaSz4/a+U9xepQI7x+1/FIhpJ93tuQ54dB4qaXAxR/2W7b1WWL17Xzivbdey5iIRbd5/Hv93ezQ/v7KY3a/V8OQbFEjz8YpZcQdmafpPGRJg+PqITGkUqVxRsq5PPBh3HoFVcAsuUImlgWdBxiMjgWSCdMCyeru2D/UoePLomS74YdCSVzzHw1Ct5vvDTDp5Zp9VyEQmn/V0e37qpi+vv6yFfsKruPUaOgdVbCqrwPYQ/llMvU5EKt9yLxRNBBzFYlZfAgmZgTtBxiMjgWQvNTS4zJ0aCDqVs7G4vsWpjQROMYeI4sGZrgauva+eB57Pa3iAiobJtX4mv3NDBrY9lKFn0bBkGxsD+zhLPrMsFHUpZWTozSjyqL5hIBZtvLBOCDmKwKiqBdeJV+wE7HxgfdCwiMnjWwtzJURprtAO43/Ob8uzU9sFh5TiwdY8/ifvNExlKOqBQREJg7fYCX7yunftW+VtC9FgZPkUPHluTI1/Uqki/OZOjjK1ztI1QpHJNBDs36CAGq6ISWH30ACwH4kHHIiKD5ziwaHoMt6LuPCOndHBAnFPLpmHnOLC30+P/3tjFDQ/0aNIhIlVt5fo8n7+2g6deyWtBZAQ4BlZv1jbCQ41vcGlpjqjSWaRypYBlrZ/aHnQcg1JR08gI0Rh+A3cRqTAWqEkY5k1R/6t++7pKrNqo0wdHimOgO+Px/du6+c+7eujNapQtItXFWvjDC1muvraDNVsKOBU1sq8cxvjP7JXr1V+xXzxqWDgtpko/kcrWZiwV1dulsh5z1o4FFgQdhogMnrUwocFl2jhtH+y3ZmuBHftLWi0fQcb4R8n/9z3dfOeWLtp7tJ9QRKpDyYM7nszwlZ91sGVPUcmrEVYswRMv5yiWtBjSb8G0KPGYBjEiFWwhhqaggxiMSnvUtQCTgg5CRAbPWmhpjtKg/leAfz2eWpujL6+B8Egzxu9fcuNDvVzzi052tWsLiIhUtnzR8vMHevnnX3Wxp9NT8moUGAMvbsnrGXKIWRMjjKl1tI1QpHJNwzIj6CAGo2Ied62f3AawFKgNOhYRGTzHwMLpUSLKXwHQlfF4dn1epfejpP863/1MH1+6voONu4pBhyQiMiSZnOVHd/Xwvdu66Mp4quIdJY6BPR0lXtysxpX9xtW7TJ8QUSN3kcpVj2HJik9XTh+siklgYYyD3/9Kj2mRCmOBVNwwf6r6X/Vbv7PI5j1F9b8aZcbAoy/l+Py17bywSb1MRKSydPR4/MstXfz4nm6yeatnyCjLFeDJtTklbA5KxAzzp0Q1OROpXH6OxVTOz7hiElgG6oHFQcchIoNn7cFVunEV1SNwRD27Pk93nyYfQXAMvLCxwBeu7eCxNbmgwxERGZDd7SWu+WUnv3qwl6KHnh8BMMCqjQXau9VPsd/C6VFiWp8UqWRLbalydrlVTAILmAbMDDoIERk8a2H6hAiNtZV0yxk5uYLl2Q059YwIkOPAhp1FvnRdB3c/06fVdBEpa5t2F/mn6zv47dN9WLQdISjGgW37iqzboW2E/VomRmmscTWmEalcLcDkoIMYqIqYTZ7w6a0Ai4DGoGMRkcEzwJxJEWIRDbkBdh4osXZHUX1LAuY4sLO9xNd/0cmND/XqZCkRKUurN/sVow+/lFPVVcAMfg+yZzdoC3q/8Q0uU8a6WggSqVxjgYXL/ZxL2auIBFbM8cDvf6X9RyIVKBqBuVNUX97vpa0F9neVNBEpA46B9h6P7/y6i/++p4esToUUkTLy+Ms5vnBtO6s25LXoUSashec25HWK8EGpuKGlWWM8kQoWBVpj+WTQcQxIRSSwMkU3BSwLOg4RGTxroT7tMHOC8s/gX4+V6/PkdQhe2XCMv6L+H3f18P2Dp3qJiATJs3DPyj6+dF0H63cUcSpixB4OjoH1Owvs2K8HOfi92OZNieLqOypSyZYXotlE0EEMRIXcakwzMCfoKERk8DwLzU0u4xvcoEMpC50Zjxc359W/pMwYA4Wi5WcP9PLNG7vY11kKOiQRCaliyXLzIxm+/vNOdhwoKXlVZoyBA90eqzerD1a/Wc0R0gmjPlgilWu+sWZ80EEMRNk/Ek/57FbAzAMmBB2LiAzNrIlRapJlf7sZFVv3Ftm2X9sHy5ExfoXcb57I8OUbOtm6V6vrIjK6snnLT+7t5ds3d3Kgx9O2wTJVKPnbCNX3yTd5jMu4ehddDpGKNZEKKRgq+xllXy4C2OVARZS0icgfcw6WlmsQ7ntpS4HujKcEVpl74PksV1/bwZptWmEXkdHR3efxb7d388M7u+nNWj03y5jB72fZ1ast5wANaYfp4yOqwBKpXGlgWetV24KO46jKPoHlODYKtAYdh4gMTTJm1P/qoJIHqzblKWm8W/YcA8+sy3P1Tzt4em0u6HBEpMrt6yrxzZu6uP6+HvIFq0WOMmcMbN9fYosqdQGIRgxzJkfVHkGksq0w2LLv+VL2CSxr7VhgYdBxiMjg9Tdwnzy27O+Fo6K9x+OVbQVNTCqE48DL2wp88boO7l+V1cqyiIyIbftKfPWGTm57LEPJomdEBTAGevo8XtyiKt1+cyZFiGq9UqSSLTLWaQo6iKMp+wQWMAuYHHQQIjJ4/Q3cG2uVwALYsqfIrvaSVigriOPA1r0lvnJDB7c9nlH1nIgMq1e2F/jide3ctyoLoOdDBSl5sGqjqqr7TR0XoTblaLFHpHJNs9gZQQdxNGWdwFr+6e0AS4C6oGMRkaGZNj5COq4hOfjVPD1ZbQ2pNI4D+7o8vnlj56vbe0REjtXK9Xm+8NMOnnolr35XFcgYPwHZ3q1TawHG17uMq3OVwBKpXPVgliz71M6g43hDZZ3AslgHWIEWpEQqkmOgpTmihA3gefDiljyeVmorkmOgu8/yr4c0WBYRGQpr4Q8vHDwoYmsBp6xH43IkxsCejhJb9iqBBVCbMkwZp5MIRSqYA7SV+0b2sn5kup6pw6/AEpEKFI8ZZk6MBh1GWejMeKzbWVQ2voIZA7m85Sf39vDtmztp71E2UkQGp+TBHU9m+PLPOtiyp6jkVQUzQE/W8rJOqwUg4hpmTlAjd5EKt9TFqw06iDdS7q32pgIzgw5CRAbPWqhPOUweo/5XANv3Fdl1oFTmaxpyNMZA0YObHsnQlbH81dvqaG7Sd1xEji5ftPzywV7+484eOjOekldVoL+6uuSlcfV5Mqs5QsT1e6CKSEVqwdrJQFfQgRxJ2d5qV/zlWoBFQNl3wheRP2UtjKt3aKot29vMqFq3o0h3xlMCqwr0f4T3rOzjS9d3sGGnjlEXkTeWyVl+dFcP37+tm66Mp55XVcLgP9+7MqrIBZg2zqUmqUbuIhVsLIb5rZ/cEXQcR1S2M8tIbg9AK+VfJSYih2GBSWMipBNle5sZ1Wvx8vYCRY1vq4ox8NhLOb5wbTvPb8oHHY6IlKmOHo/v/LqLH9/TTTavgzyqiTGws73Etn1ayACY0OAyptZRHyyRyhUD2iJu+fb2K9uZZSE5PQUsDzoOERkag78Sp5J66MtZ1u9Qj4xq5DjwwqYCX/hpB4+8lAs6HBEpM7vbS1zzy05+9VAvRa/cW+PKYBkDPRlPlbgH1aYcmsfoJEKRCre85LnxoIM4kvKdWhozAZgbdBgiMjSuC9PHq4ASYF9XiW37S9oyUqUcBzbuKvJP13dw11N9OmlSRADYtLvIl67v4LdP9wE6UrtaFT14eVtBVUdAPGqYMkZjP5EKNx/s+KCDOJKyTGBd+l0LMA+YEHQsIjJ41kIqbpikQQwAW/YUae9W/6tq5jiw65BKi0JJUxmRMFu9ucAXrvUrM3Xvr37rdxbpy+m+DzBtfEQLdiKVrRmYE3QQR1KWCaxtL24Hf/tgMuhYRGTwLFCXcpjYqNPZwG/wmitoYFvtHAOdvR7/cksX/313D315feYiYfT4Gr833qoNeU3kQ8AxsG1fkf1d5dszZjRNGecSj+qLL1LB0sCy1qu2Bx3HYZVlAsuJOBH8Bu4iUoGs9Rt51qXL8hYzqjwL63cWdKR0SBjjnzb2n7/t4fu3delkKpEQ8exrp5Ou31HE0SMwFIyB9h6PLXvVBwugudGlJmnUB0uksq0wUJaVCGX5aLWWMcDCoOMQkaGb2OSSimsFrrfPY8tercqGiTFQKFpueKCXf/5VJ3s79fmLVLtiCW5+JMPXf97JjgMlJa9CJpu3rFcjdwCaal2aatXIXaTCLcTSGHQQh1Omj1c7C5gSdBQiMjQGmNTkausEsL/bY3e7GriHjTF+JeLtT/Tx5Z91amVepIpl85af3NvDt2/u5ECPp/t9CPnV1kVVWwM1SUNzk6um9iKVbTowI+ggDqfsEljH+XstlwD1QcciIkPjODB5rBq4g98Xo7NXDdzDyhj4wwtZrr62gzVbC0GHIyLDrLvP499u7+aHd3TTm7VKXoXYlj1FerPaNh6LGCaPKcudRyIycA3A4uM+WX59sMougeV4xgAr0GnDIhUrHjVMaNDgBfxj1NXAPdwcAyvX5fnidR1s3K1KLJFqUSzBdb/v5fr7esgXrRYqQswxsPNAiQPdSmABTB6jkwhFKpwDrMCWX06m7BJYRWPr8CuwRKQCWQvphGG8ElhYCxt3aUuB+FWJr2wvcOujGbI6nVCk4hVLlhse6OH6+3soeSh5FXLGQFfGY9s+LVKA3wc1qkJ8kUq31DrUBB3E65VdAguYCswMOggRGRoLNNQ4NNSU4+1ldGXzlu371cBbfBb42QO9/NfdParKE6lgnuc3bP/3O7rp6VPllfiyecvm3XrmA4xvcEjFHTVyF6lsLRYmBx3E65XVDLPtL7cCLADGBB2LiAyNtTC+3iWtEwjpynjsPFDS5EYAf198vmD56b09/PyBXkraaSJSkR5cneXfbvd7Xun+Lv08Cxt3F9S8HBhT61KTNLoWIpVtHDB/6VXbgo7jj5RVAss9YwpAGxANOhYRGbrxDS7xmEb1ezpKfgP3oAORsmEM5AqW/7q7hweezwYdjogM0uY9Rb5/Wxft3TptUP7Utn0lctomTk3SMLbOVQWWSGWLAa01pfJ62JVVAqv00PYksDzoOERk6IyBCQ2ukjbA9gMlerM6gVD+mDHQ2evxg9u72bJH/VJEKkWuYPmf3/WwdkcRp6xG0FIOjIFdB0p0ZVRem4o7jK9XL1SRKtCadWw86CAOVV6PX2MmAHODDkNEhs4xMKFRgxaAbXuLFDWOlcNwHHhlR4Hr7uulUNQStUgleOLlHPc806cFGjksA7T3euzpUB8s1/EbuYtIxZsPZnzQQRyq3M6HmAtMDDoIERm6aMQwtq68cuNBsNbfSmAtaLYjh2OAu5/p402tCY6fW1aLW6Hz/KY8D63OUY4NWywQceGcZUlmTyq3YVt4ZHKWXz2UobvP4uoRJ4dhDPRmPXYcKLF4RtDRBG9io6tttiKVrxmYDWwNOpB+ZTMSavvUDsAuA1JBxyIiQ2MtJGOGplqtumULll3tWoWVIzMG2ns8bn0sw/JZMaIRjfSDsHlPka//opPnN+VxynS/r7WWZ9bl+dIHGxjfoPtrEJ7bkOeZdTlNyOUNFUv+4pXAuHqHiIsOLBGpbDXAstZP7bhv5fcmBR0LUEZbCK2fTGsLOg4RGToLpBOGxtqyubUEprfPY2+nTiCUN+YYeGxNjrU71AsrCJ29Ht+9tYsXtxSIugbXoSz/RVzDEy/n+MGd3WRyZVgmVuU8D+57Lkt3n04dlDfmV18Xy7GYc9Q11bokYkaN3EUqX5sxXtmsnpXNLNNAE7Aw6DhE5BhYaEg7pOMa4e/v9ujQCYRyFMbAvi6Ph1/UiYSjLV+0/PieHu5fla2MqhoDv3m8j18+2KuKhlG2t7PEU+tySl7JgOw6oJMIAZpqHZKxsplqisjQLcI6jUEH0a+M7ip2JjA16ChEZOgs/opbUgks9naWyGS1Wi9HZ63fHLo3qwnPaLEWbnu8j1/+oRevQpJBBigULf99Tw8PrFLCczSt3VFg54FSZSQ6JVDGwJ6OEj3ZCrmxjKDapENtyqgaTaTyTT/4ryyURQLL73/FEqA+6FhE5Ng01jjq5QPs7fTI63Q5GQDHwMZdRXbs1zbC0fLEyzl+eEc3mXxlJZmNgY4ej+/e1sVLWwpBhxMaL24pkFVFjQyAATp6PQ50K4GVjBuaah1tIRSpfI1gFx/3iV1BxwGUSQIL/37fVkbxiMgQGPyS8QqaD46YXe0lPA3aZACMga6Mx/pdSmCNho27inz7li72dFRmRY3jwKZdRb5z8G+QkVXyYP3OoibhMiDG+CdW7utUAisR1aE+IlXCAdookyW/MkkY2VpgadBRiMixMQbG1JXJbSVA1voJLE14ZKAKJdiyRwmskdbe4zdtX7O1gFPBtyrH8avIfnCHmrqPtEzOU6JQBiVXsOzp1HfGcWCMDvURqRbLPFOqCToIKJsEFlOAWUEHISLHxnHQahv+4HWvBq8yCNb6jX9l5OQLlh/f3c0fnq+Qpu1HY+A3T6ip+0jLFaAz45XJurNUAu/gIpb4CSz9dkSqwmyMnRR0EFAGCazln94KsAAYG3QsInJsYhFDQzrw20rg+vKWA106gVAGzlro6vOUiBgh1sItj2X41UOZqtnaq6buo6NYsjpRTgalf0FCVdj+omZVLBiIyDhg/tK/CL4PVuAzzUS2Bvz+V9GgYxGRobMW4lFDvRJYZLKWLq3YyyAYA/mipVQt2ZUy89iaHP9xZzd9Fda0/Whebep+q5q6jxRr/X9V9LWRUbC3s0SuoPt5Q41DxNWvR6QKxIDWZDwXdBzBJ7By8d4EsDzoOETk2CWihrqUBiodvR59WrGXQXKqKbNSRtbvLPLtX3ext9OrykoAx4FNu19rTC/Dy3UgGjHoji4DZYAD3RoHANSnHeJRVI0mUh1aC8VoPOggAk9gGWvGA/OCjkNEjo0FUglDMh74bSVwHT0lslVW6SEjq7+CMVKNGZYAHej2+JdbunhlW2U3bT8ax4En1dR9RMT7F2Z0WWWAjPH7pum3CHUph3hUzzWRKjEf7LiggyiH4dxcYGLQQYjIMbKQTjjEIkEHErwDPR75ogauMnDGQH3KVHWSZbTlCpYf/babh1Znw3Fd1dR9RCTjhqZaR/krGZS+nKWjRz/E2qQhFdfvR6RKTMIwO+ggAh3StX5yB8AyIB30hRCRY2OBmoQhFtFK2/4ur2oaRcvoMAYmjVH2d7h4Fm5+JMNND2dCs3VFTd1HRiximDZOv00ZOGMgm7e092hLbzxqqE2qglGkSqSBpa2f2h5oEIEmsIzFxW/gLiIVzlpIJw1RJbA40O2FZtIswyMRNbQ0a5I8XB59Mct//rabbCFcW3kPber+opq6D5t5U6JE3KCjkEqSL1oOdKsCKxoxpBOqwBKpEgZYASbQJ2KwRfWObQIWBRqDiAwLY6A26eCGYavOG7BAR29Jq40yYJ6FMXUOMycqgTUc1u0o8J1buthfpU3bj6a/qft3fq2m7sNl/tQoY2odLUzIgHnWr8YOu1gE0okQ3ohFqtcisA1BBhD0VHMGMDXgGERkGBigPhX0LSV4xaKlK6Mz12XgrIX5U6KMb1CJx7Ha3+XxnVu6WLu9GI6+V0fgOPDkK2rqPlymjouwYFpMW8NlwKz1+2GGXcQ11CSNkr8i1WOGgelBBhDY8K7N73+1GGgI8gKIyDAxUJcO8YzxoFzB0pXRoFUGLuLCKQsT6h93jLJ5y3/e1c0jL+ZCnbx61cGm7r/4g5q6H6t41HDW0gRRFUnKAFnrn0isxI1/EmGYtnKLVLkGYPGKvwiuD1aQQ7yDeygDrwITkWFggLqkRij5InT3eRqsyYB4FqaMjXDivHjQoVQ0z8JNj2S4+dHwNG0/mv6m7v/zux7uV1P3Y3bKgjgtE6N4SgbKABgDnRmPQkk3JCWwRKqK38PcC26vSXDJI2NrgaWBvb+IDCtjIJVQPjpXsGSyGrDKwBjgTa0Jmsdo++CxeGh1lh/9tpt8yJq2H40x0NHr8T01dT9m4xpc3nJyClc/VRmg7owlV9B4oC7lqKuCSHVZZmOkg3rzIGebk4CWAN9fRIZRxIVkTEOUTM6SL1oN1uSoPAvTx0e49MRUKJuND5dXthf4l1u6ONClysfDcYyaug8HA5y/IsnSmTFtyZSjMga6Mh555Y2pVQWWSLWZjZ/LCUQgCaxlf7EVYAEwNqg/XESGj8Vv1JlQAotMzqOgOaIMQNSFd52RZto4NdYZqn1dJb7z6y7W7wh30/aj6W/q/u9q6n5MxtQ6XHleDQ1pnUgob8wAfTlLVhVYpGIm9CdUi1SZccD8k/96ayBvHsjtJF0TA2gFYoH81SIyvCxEHEhElcDK5CyFok4hlDfmeXDGkgSXnJjUyvQQ9eUtP7yzh8fWqGn7gBi4XU3dj9lJ8xO858y0JuRyVPmiJZPTjy0RM0RcPehEqkgcWN7dG8yDMJB3zWaLcfwElohUCVVg+TJZP4GlKyFH4nkwd0qUv7y4jtqkZsFD4Xlw40O93PpoBtU3DIyaug+PiAvvPyfN+SuSqsKSN1QoWXrVE5N4zBBx0e9FpLq0xWNeIMVIQY2cxwPzAnpvERkBrosSWPhbCFXdIEfieTBpjMvfvL2OlmZtHRyqP7yQ5b/u7lG/uUEyBjp6/KbuL6mp+5DVJh0+/dY6zl6W0KRcDssYKBTRoS741fmqwBKpOvMtZlwQbxxUAmsOATb+EpHhZYGoa4hrCyF9easJjRxWf/Lqb99Vzwnz4kGHU7HWbC3wL7d20d6tpu1D4Th+U/dvq6n7MRlf7/K5d9Zz/gp/G7Du+/J6haKlV1sI/S2EKjYWqTaTwMwO4o1H/XbSetU2gKUQ3NGLIjL8ohG/RDzs+tQgWQ7D82DO5Aj/+L4GzlicCDqcirW3s8R3buli4041bT8Wauo+PCY0uPzdu+r5wNk1pOIGT7kKOYRnVYEFqsASqVI1wNK2T+wY9Tce9eGfscYFVoz6XyoiIyrqguNogNKXt+rJI6/yrJ8sOGd5gq98pJGT5qvyaqj6cpYf3NHN4y+rafuwUFP3YVGfdvjEpbX8n/c2MHdKFGv9372ItShBDEQjEIsajY1EqosBVljsqI/IRr8Bh7GNWLNo1N9XREaO9SuwtMDmJ7Cw6BTCkOufwE4bF+Fdp6d4y0kpalPKugxVyYNfPNjLbY/3BR1K1Ti0qfvUcRHOXa7KwKGKRQwXHpdkyYwov340w11P9bFjfwlrwTh6HISVBfq0hRDXMcQiRmMjkeqzyBgagf2j+aajn8CyZjowbdTfV0RGVMRFVRFANqcKrLDqr7yIODB1rMubWpNccmKKWRPVrP1YWAv3r8ry3/f0+Cd8agI0bA5t6t7c5LJwWjTokCralLERPnlJHRcel+LeZ/t48IUsG3cVyeT0vQ0lVWAB/tgwqsegSDWagWEa1ZzAWv6XOwFvMdA4mu8rIiOrv4m7thBCvqjBatj0J64a0g5LZkY5dWGCUxbEmTouoknrMNjVXuIHd3TT0eMpST4CHAc27i7y77d387UrGkkn9KU9FsZAS3OEluZa3nl6mpe2FPjR3d08vzFPvugXoBiD7g0hYIFMXmMC1/hjRF0JkarTCCxa8YktK5/+19GrTxrVBJa1xuD3v9IQVKTKaAuhL1/UKYTVzgLW60/cwph6l5bmCJedlOKMJQkSMf0QhpNjDiaGdVlHVEZbnYZdY43DKQvjzGqO8MKmPCvX53l+U57Ne0p0Zzw86yeytPZTvbJKYOE4OuRHpEq5wArjedeO5puOagLLcb0a/BMIRaTKRLWFEGuhqFPpq1J/lZUxkI4bJo1xWTQ9RtvsGIumx5jU5CpxNUKaah1mTYywaXdRSawRNHdylJSqr0bExEaXiY1J3tSapLPXY9PuIs9tzPPs+jyvbC+wp6Ok6qwqZK2qssFP0OoUQpGqtdSLRtNA72i94agmsIyxk4DZo/meIjI6XNeEfhXZs1AsabBaDSz+5MNav7/bmFqHlklRls+KsbwlRktzhKZaN/Tf+dEQjRjmTYly36ps0KFUrYgLC6ZFlR8cBfVph2WzYiybFeM9Z1p2tZd4cXOBZzf41Vlb9xbp6bP+CaZKZlW8QpFXP8uwUg8skao2B8skYO1oveGo3U5WfGwHFjsfGDda7ykio0cDbfA8S7Gk61CpDq2ySsUNk5pcFkyL0tYSZ9GMKFPGREjG9eEGYd6UKPGooaBqhmFnLdSnHFqa1cB9tMUihmnjIkwbF+H845J09nhs2FVk1UZ/u+Er2wvs7zqkOksnGlYUY/xFLc+zOCGuQHIcVWCJVLHxwPwVH1u/9ukftozKG45aAqtU6+HkTCsQG633FJHR4ydtwj1AsRZKnibYlcQ7pMqqqdZh5kS/yqq1JcbsSRHG1Lqh3xpbDmZOjNBY47C7vaQE8TCzFiY2uUxqUpOaIBmgocahbba/Nfm9Z1l2Hijx4pYCz67P8cLmgl+dlfX7LGrRqDIUihbPw+8UE1KOMUQc1B9UpDrFgeVequ620XrDUUtgOVkTx9A6Wu8nIqNHg+mD1wEN0Mrdq1VWQCJuaG70q6xWzI6zeHqUKeMipFRlVXbG1btMHeuy80BJh0UMMwvMao5Qm1KmtpzEo4YZEyLMmBDhwuOStPd4rN9Z4LmNeZ5bn2ftjiL7u0sUVJ1V1ool/5kTZgY/iSUiVavVKeRiQH403mzUEljWMM7A/NF6PxEZXcZo8AzomOgy1F9l5Tp+hcPMiRGWzfSrrOZOjjK23sXV3L2sJeOGOZOjPPHKqIyNQsUxsGBqVL+BMmaMXyHaVBvn+LlxsnnLjgMlXtySZ+W6PKu3FNi2r0ivqrPKTv/zJ9T0fRSpdgusMWOBHaPxZqOWwDJ+8/ZJo/V+IjK6jDJYrzb9lmD1V1kBJGKGiY0u86dGaW2JsWRGjGnjXGqSmq1XEgPMnxol4uo3Npwsfr+3uZPV/6qSJGKGWRMjzJoY4aLjU7R3e6zfVeC59XlWbsizfkeRA90lCqXXTjUM+eM5MJ61oV/Y6j9dU0Sq1mT8XE/1JLDartoGlqVAejTeT0RGn6MBMqDJdVAOrbKqTztMHx9h6Uy/l8zcKVHG1ztqIlvhWpqj1KUcOno8TYaGibUwtt5l6jgdEVapHANj6hzG1MU54WB11vb9JVZvzvPMujyrt+TZsb9EJqfqrCB4nsYFRt85kWpXAyxt++S2Pzzz/Skj/majMmKx1roG04bmtyJVyxhC/wu3aAvhaOmvdrP4vWLGNzgsmBpleUucJTOiTB8foU49farKpCaXiY0u7d1KYA0Xa2HGhAhNtfqtVItEzNDSHKGlOcIlJ6bY31Vi/c4iK9fneXZ9no27Chzo8V49MdfRb2lE+YsrlrAPkPQ9E6lqBmgzjnEAb6TfbFQSWAbTACwejfcSkWDY/uxNiAcpfqPSoKOoXv1VVo6B2pTD9PEuS2fGWD4rxvypUSY0ukRVZVW16lIOLc0RXtxSCDqUqmGAeVOixCL63VQjx/gHIIyrdzlpfpxMzrJ9f5EXNhV4el2Ol7YU2HmgRF9e1VkjpX+hJez0vRKpeoutpQE4MNJvNEo142Y6MH103ktEguDZ0Oev/NVsFTIMmz+usoKxdX4vq+WzYiyZGWPmhAj1aV3wsHAcWDA1xu1P9AUdStWIRQ3zpqj/VVik4oY5k6LMmRTlLSf51VlrdxRZuT7HcxvybNxVpKNX1VnDScXpPqMMlki1mwFMoxoSWMd9cjcexUVA40i/l4gEx/P8Fdwwj9T8AX+IL8Aw6G/A7hioSRqmjYuweIZ/YuCCqVEmNrmqFgmxOZMjpBKGTM6G+VYzLKyFxhqHmRPU/yqMXAfGN7iMb3A5dWGc3qxl274iL2zK88z6vF+d1V4im/ObkKs6a2h0zXxe2BuBiVS/JmDRsk/tfPa57zWP6BuN+KjF4AC0Ae5Iv5eIBMMY9Xnovw6qwBocC1jP/z8WgTF1LnMnR1neEmPZzBgzJ0ZoSDuaBAgA08ZFGFvnsnlPUd+JY+RZmDLWT2CIpBN+Nd68KVHeekqafZ0lXtleYOX6PKs2vladVfJUnTUYfgNzXSxvxLviiEjAXKDNGq4b6Tca8QSWR6EGWDbS7yMiwdJJO2AwGtQPQH+VlTFQkzBMGRdh0bQobbPjLJwWpbnJJR7VhZQ/1VjrVwxt2l0Mc6582MyZFCWV0IWUP+Y6MKHRZUKjy+mLE/RkLVv3HqzOWpfnxS0FdneUyOVVnXU0ui6vPfNFpOoti+Clgd6RfJMRT2BZQzMwe6TfR0SC5alRKY4DEdeEPpH3eodWWUVdaKp3mTspwrKWGMtnxpjVHKWxRlVWcnSxiF8lcv+qbNChVLyIC/OnRZUHlKOqSRgWTI2yYGqUt52SZk9niVe2vVadtWl3ka6MqrMOx6Aklmf9NhMiUvXmYGkG1o3km4xoAuvUz+2lL5OfD4wfyfcRkeB51oY+ceMYfxuc/HGVVTpumDTGZdH0GG0tMRZNjzFpjEsiFvJRvQzJvClR4lFDoRTyG84xsNY/1XF2s25YMjgRFyY1uUxqcjlraYLuPo8te0o8vynPynV51mwrsLu9RLbg/z7DXp3luibUfz/88XhARKraeGD+ij/fs+7p/xi59M+Ijly6OjJEY5HlQHwk30dEglcqaQsh+BUiYRykWV47NTDiQlOtQ0tzlNaWGMtbYrRMjNBU52plXo7ZzIkRGmoc9nSUQvlbGw7WwsRGl0ljlMCSY1ObdFg03WHR9CiXn5ZiT4fHS1vzPLs+z6pNBTbvLtLdF97qrIgbvr/59SxWPbBEwiEBLPfS+d+M5JuM6MglFovELLSO5HuISHkolCwlDVCIhah306urqkAybmhucll4sJfV4ulRJo+NkIqH53rI6BhX7zJ1rMuu9hKuvl5DYoFZzRHqUjp1QoZPxPWrbSeNSXLu8iRdGY9Nu4s8vzHPyg15Xt5WYE+HR65gX91aV+1J6IhrQn+4i7Vq4i4SIq2m5MaA/Ei9wYgmsCyMBRaM5HuISHnIF6HkhfsUQoB4pLr/fu+QKqvGGoeZEyMsmxVj+awYcydHGVPn4oZ8sC4jK5UwzJkc5cm1IzY2qnqOgQVTo/qtyoiqSzksnRlj6cwY7zrDsrujxJqtBZ5Zn+f5jXm27C3RnfHwbHVuNbQWIg441faHDZJnoaAeWCJhscBaOxbYMVJvMNK147OBySP8HiISMAMUiioRB4jHqmsL4aFVVom4obnRZcG0KG2zYyyeHmPK2AhpnWImo8gA86dGibjatjwUFr9ics7kaNChSIhEI4YpYyNMGRvhTa1JOns9Nuwqsmqjv93w5e0F9neVyBWoquqsaESnE3ueP0YUkVCYbLAtVGICq+1T2wCWAjUj9R4iUiYM5IvaQgiQipuKr0Hrr7JyHb/KasaECEtnxWhtiTFvcpSx9aqykmDNbo5Sm3To7PWqYpI7mqyFsXUu08ap/5UEpz7t0NriP1fee6ZlZ3uJl7cVeGZdnuc35dm6t0hPn63o6ixjwtsX81Alz1IoBh2FiIySWmBp21U7Hnzmu5NG5A1GbvRicLC0Efb9RCIhUShCSeUQFdnzqb/KCiARM0xocFkwNUrr7BhLZsSYNs6lJqmMlZSP5jEuE5tcOnqUwBosa2HGhAhjavWblvIQixqmj48wfXyEN7cm6ej12HiwOmvl+jyvHKzOyhcPVmc5lTO5SOq03VcrsHQlRELBAG3GGgcYkdKGkUtgWdMALB6x1xeRslIoWUqloKMIXirhVMSE+tAqq/q0w/TxEZbOjNLaEmfe1Cjj6x0i6pAtZaou5dAyMcJLWwpBh1JxDDB3SiRUB05I5TDGr/xtnB2jbXaM955l2XmgxEtb/N5ZL2zOs21vkd5s+Vdn9R9wEnYlz++TqgyWSGgstnj1QPtIvPhI1o9PA2aM4OuLSJkwQKnkbyMMu2TM4DqU3XZKezBhZYF41DChwWHulCitLX6D3enjdSKZVA7X8ftg3fFkX9ChVJxY1DB/SizoMEQGJB41zJgQYcaECBccl6S9x2PDrgLPbfCrs9buKHKgu0ShHKuzjF/VHHb+FkKND0VCZCZ+LqhyEljHfWYHXskuAppG8MKISBkpeZZcQQOUZMwQcc3BExmD1V9l5Ri/YmXa+AhLZvhJqwXTYoyvd4hW+amJUr3mTo6SihsyeW1NGShroSHtnx4qUmmMgaZah6baOMfNiZPNW3bsL/HiljxPr8uzenOBHfuL9Obsq8++IKuzDNpCCAe3EJaCHxOJyKhpBBad9LGtzz32w6nD/uIjMoJxHPBKtAHuCF8cESkThRL05TRAScUN0Yghm7ejPnA+tMoqFoGJ9S5zJx+sspoVY+aECPVpVVlJdZg2PsLYepfNe4plu4Wo3HgWpox1mdCg4ZlUvkTMMKs5wqzmCBedkOJAV4kNu4o8u8E/2XD9zoPVWaXXTjUc1VuF8dsKhF2uaCmWyqgyTkRGWgRoi+Xt9SP14sOuUCBtYNmIXhYRKR8GiiVLX14JrHTCEBvF4ob+BuyOgZqkYerYCItmxGhribFwWpSJTS4xVVlJFWqq9Xu3bdpd1MxoEGZPilbkYRMib8QxMLbeZWy9ywnz4vTlLdv3lVi9Jc/KdXlWb86z40CJzChWZzkGahL6rWXzVhVYIuGzrCftpoDMcL/wSE2zJgJzRvSSiEjZMCiB1S+dcIhFDJaRmVNbwHqvVVmNqXOZMylCa0ucZbNizJwYoSFdGY3kRY5FLGKYNyXKH57PBh1KxYi4sGBaVPcHqXrJmGH2pAizJ0W49MQU+7tKrN9Z5Nn1eZ7dkGf9zgLtPZ5fGTRC1VlR1yhZjF+dX9QhPyJhMwdDM7B+uF942BNYM696GWPtfGD8aFwZESkPRW0hBPwGycM9YO2vsjLGr/CaMjbC4ulR2mbHWTgtSnOTS1wnikkIzZ8aJRY1FLW6f1TWQm3KYXaz+l9JuDgGxtW7jKt3OWl+nEzOsn1fkRc2F3hmXY4XtxTYeaBEX85iGZ7qLIufMNYWQujLW/8erWGKSJhMAOad86EN63//k1nD+sLDPooZW6qn5JSWA4nRuTYiUg6shd5smR29F4BYxK/CssdQgnVolVU0Ak01LrMnRVjeEmP5rBizmqM01ajKSmTmhAiNNQ57Okr6PRyFtTCx0WXSGCWwJNxSccOcyVHmTI7ylpP86qy12ws8uyHPcxvzbNhZpL3Ho+T5iSxnKPcWC9GIKrDA30KoHlgioZMAlu8bk7xjuF942EcxRVOKGmgdlcsiImXDAr1ZVUHEIoaa5OCHaYdWWaXihsljXBZOj7FidoxF02I0j3F1mpHI64xvcJky1mVXewlXP483ZIFZE3WQg8ihXMe/j4xvcDl1UYLerGXr3iLPb/K3Gr50sDormx98dVYsYkgrgfVaBZaIhE1bpOhFgcJwvuiwJ7CMYSywYLSuioiUCQs9farAikUM9emDFVhH4R08NTDqQkOtw6zmKK2zYrS2xJjVHGFMnTu0lV+RkEjFDbMnRXlqbT7oUMqeY/wtl67yVyJHlE4Y5k+NMn9qlLefmmZvZ4mXt/nVWas25Nm4u0hn79Grsyx+H66kElhksh7WjnzTfBEpOwuwjAV2DueLjkQdeQswZVQuiYiUDQt09iqBZQw0HmF736tVVkAybmhuclk4LcqKOXEWTYsyeWxE2w1EBsEYWDA1SsRlQEnjsLL495y5k6NBhyJSMVzH33Y7sdHlzCUJevo8tuwtsWqjX521ZmuB3e2lVw+w+aPqLAu1SaP+lEB3n27OIiE1BT83VL4JrLZPbgNYAtSO2mURkbJgLXRmLJ4HTshX+MfUuq8OYvurrCKOX2U1c0KE5bNiLG+JMXdylDF1rioiRI5By6QItUmHzl5PK/xHYK1/Yun08ep/JTJUNUmHhdMcFk6Lcvlpr1VnrVyfZ9XGPJt2F+nK+NVZnrXUJP1TicOuK6MKLJGQqgWWtF217aFnvjt89U3DOpLxsI6DWYH69ImEjjH+FsJ80ZIIea+mxhoHLMRihomNLgumRmltibF4Roxp4yKkE+G+PiLDafKYCBMbXTp6lMA6EmthxniXplply0WGQ8SF5iaX5iaXs5Ym6M54bN5T5PlNfkJr9eY8TbVKYIFfna8aLJFQMsAKi3WAYdumM6wJLMc49cDiUb4wIlIGDNCTVQILYPakCB+9oIZlM2PMmRxlXL2qrERGSl3KYdbECC9tHdYeoVXFAHOnRLWdSWSE1KYcFs/wF6reeXqKXe0lcgVVpJc86O7ztMVbJLwWG+vUA+3D9YLDXUs+FZg5qpdERMqD8fsc5AsapSya7g9iRWTkuQ7Mmxrl9if7gg6lLFn8apH5U9T/SmQ0RFzDlLHarguQL1q6+6yqY0XCayZ+jmjYEljDti5w3CfXASwEmkb9sohI4AzQl7OvNjMNMw3UREbX8XPjLJsZw3XA01kSryp5foKvtSXGgqlKYInI6CoULb1ZT71lRMKrCVjU+jcbhu0Fh215IGK7yZtk23C+pohUlv6VNhGR0bRgapRvfayJB57PctvjGV7ckidXIJRbdy1+Ei8RNSyfFeXiE1OcuSTBGPW/EpFRli9aevqsuiOLhFcEaDXp7M+G8wWHRd4ZlwKWB3BRRKQcGMgVLF0ZlT+IyOgbU+fw9lNTnL0swUOrs/zm8T5WbczTl7c4TvXPn/oTV8mYYdmsGG85KcWpC+PUp5W4EpFg9OUsmZyt+vuviLyh5RyoSwGZ4XixYayWMhOBOcFcExEJmsFPYHX0KIElIsFprHG49GDV0WNrctz6WIaV6/P0Zi2Oqb4tvtaCZyGdMLS1+Imrk+bHqU0pcSUiwerMeOTUG1Uk7OYezBUNyz7CYUlgXfpdy/aXd84DOyHQSyMigfI82N9dCjoMERHqUg7ntSU5dWGCJ17JcdtjGZ58JUd3X3UksvoTV7VJwwnz4rzlpBTHzYmTTlT4HyYiVaOz1yObVxN3kZCbAMxb8dH7Nzz9o7OO+cWGJYG17aXtGMcsA5LBXhsRCZK1sK9TFVgiUj7SCcPZSxOcND/OynV5bn0sw2NrcnT0ehWZyOpPXDWkHU5e4CeulrfESMYq7A8RkarX0WPJF1WBJRJyCWA5qUV3DseLDUsCy4k4UevZtkAvi4gEzuJXYFlbeZNCEaluyZjhlIVxVsyJsWpjntse7+Ph1VkOdHuYCkhkWev/a6pzOG1RgktPTLJkRox4tMwDF5HQ0phQRA5qszYfBQrH+kLDksCy1o4BFgZ9VUQkeO09Hvmi1aRKRMpSPGo4fm6c5bNirN6S4jePZ/jDC1n2dpRnIstaf3FgXL3DmUsSXHpiigXTokTdMgtUROR19nd5eBZ0uxIJvQVgxgC7jvWFhqeJu2UWMCXgiyIiATNAR4/fsFMJLBEpZ9GIYfmsGEtmxHjbKQXueDLD75/Lsqvd7+PnBHwL8w6ePD+x0eWcZQkuOiHFvClRXPVmF5EKYC0cUF9UEfFNATuLckhgtX5iG8ASoC7oqyIiATN+w86+nKUuFXQwIiJH5zqwaHqUBdPquezkFHc82ce9K/vYvr+EZfQTWf2Jq6ljXd7cluSCFUlaJkUDT6iJiAxGvmhp18nUIuKrA5a2fXrHI8/8y6RjeqFjTmA51hgLbfjjLREJMQP0Zi3tvR4TGt2gwxERGTDHwNzJUeZMinLZSSnuerqPu5/pY8ueIp4d+USW54HjwMwJEc5fkeT8FUlmTBieQnkRkdHWl7d+j8GgAxGRcmCANscxDnBMme1jHhlZl3r8CiwRCTljIJO37O/SipuIVCZjYObECH95cS2XnJDknpVZ7noqw4ZdRUolP8k0nDwPXBfmTI5y4XFJ3tyWYMpYJa5EpLL1Zi0dvV7Z9RUUkcAs8YpeHdBxLC8yHCOkKcCsoK+GiJSHfMGyt1M9D0Sk8k0dF+HK82q48Lgk9z7bxx1P9rF2R4Fi8dgTWSUPohGYPzXKxcenOGd5gomqXBWRKtHeXSKTs0GHISLlYyYwlSATWCs+tRXrnz44JuirISLlwbO82gRZRKQaNDe5fOCcGs5fkeT+VVl+80QfL23Jky8y6KbqJc8/CXHJjCiXnJDkzKUJxtUrcSUi1WV/t0c2Z1WBJSL9xgALT/rs7ucf+9aEIb/IMSWw0vTSQ23bsb6OiFQPa2HXgRLWlt9x9CIix2Jcvcs7T09z7vIkD76Q5bbHM7ywuUA2b3GcIzcDtfhbBRMxw4oZUS45McXpixM01uhIQRGpTns7S+RLVj2wRKRfBGira0j8/FhfZMh6qEkCy4O+EiJSXvZ2lsgVLYmohi0iUn2aah0uOznFWUsTPPJSjlsfy/DchjyZ3B8nsqz1q1JTcUNrS4xLT0pxyoI4dSklrkSkuu08UKJUgogKTEXkNcv37e1JAZmhvsAxVk6ZCcDcoK+CiATP2v7Jmt+0M5tXAktEqlt92uHC45KcvijO4y/nufWxDE+vzdGT9fu+1CYNx82N85YTUxw/L05NQvdEEQmHhrTDlLEu+7pK5Ap+Yt8YVeeLhNxcLBOAjUN9gWPd+jcPmBj0VRCRYPRXFzgGapKGqeMiLJkR4+QFcdJxjVBEJBxqkg7nLk9w8oI4T63NcfsTfRjg0pNStLXESOp+KCIh854z05y1NMFLWwusXJdn1aY8W/cW6fn/2bvv8DjO697j33e2o4MkWAB2UqTEIjb1ajX3bsctceIkTq6LnNzEJbbjJPcmN91R7IhynMRxHMdFzZIty+qNVGcBKfZeQYIVRNu+M+/9YwiKoljQZ3fx+zwPKQqFPLvYnZn3zDnnTdtT145KZomMOOOA2c/U2d03t/fvANDvw8biLxwEa78C/H3Qz4KIDB/P8+e5RMIwujrERU1hFs2IsXB6lOnjw9RWOrogEZERLVfw575EwjoYiohYoL3bY/ehAut252jekWP7wTzHO13yrp/MEpER42tuyP7da9+e2K9v7ncFloWwgcVBP3oRGR7WQixqmNwQZt6UCItmRJkzJUrT6BAxtQqKiJwSVeJKROQUA9RXOdTPjLJ4ZpSPv8XS2uaycW+OX61I88rWrIa9i4wci8KuCQOF/nxzvxNYxtrRwJygH72IDD1r/RbBL7y3hpsWxBldHVKVlYiIiIj0WSximDouzNRxYeZNjfLl77Wx/UABR/tbiIwEcyyMAQ7155sHcpiYBkwK+tGLyNBzHPi16yv5wDWVjKlR8kpEREREBm7K2DCffns1VQmDtUFHIyLDYBJ+Lqlf+pXAWvIHBwDmAzVBP3oRGVqeB9fPjfPJW6q0FbKIiIiIDKqbLo3z/qsrdINUZGSoAeYvvn1/v765fxVYBoM//0qFniJlzPNgVlOE299bQ12l3u4iIiIiMrgiYcNv3lrFZRfF8LygoxGRIWaAJY7Xv9F3/VqRWtfPmgX9yEVk6HgWxtQ6/MH7apgxod/j8kREREREzquhNsQfvK+GKePCSmKJlL/5nmNq+/ON/S2pmAjMCPpRi8jQsBYqYobPvKuaq+fEgg5HRERERMrc3CkR/vf7axhT6+BpHpZIOZsOZmJ/vrHPCazFn9sPcAkwOuhHLSKDz1p/C/hP3VrFe6+swNE8AhEREREZBjfOj/OH7/NHVyiJJVK2RgNzFny+tc/f2OcEVmT6RPDnX0WCftQiMris9ecQ/PrNlXzylioiYWWvRERERGR4GAPvvLyCL36whoYaR+2EIuUpDCx+rau6z9/Y5wRWYfeBOLAw6EcsIoPLsxCPGn77rVV8+u3VxKNKXomIiIjI8HIceNcVFfzFb9Rx8aQInvVvsopIWVmwuKYz0ddv6vNkZmvMOGBW0I9WRAaHtX7yqnFUiN95WxXvu6pClVciIiIiEhhj4No5cSY3hPnpc0meaE5zvNPDAo7xPy8iJW022HHAnr58Uz+2FrOzwEwI+tGKSP/13MkKOVBf7XDV7Bgfv6mSeVOiQYcmIiIiIgLApIYwf/zBWt5xeYLl6zM078ix+1CBjpSH6/mJLGNA+SyRkjMezGz6mMDq03t98e0HAfsl4B+DfrQi0ns9CSuD3ybYUOcwuynC4pkxFs6IMmN8mGhEp34RERERKV7daY+9Rwps2JvntV05th3Ic/iESzJj8U5e6xpVaImUij8x1vzD6rsae/0NfarAspiwwS4O+lGKyLnZk8kqi3/yjkcMo6odpowLc8mkCPOnRpnVFKGh1lGroIiIiIiUjKqEw9wpUeZOifLh6ypp63LZe6TA1pY821oK7GjNc6jNpTtjyRXsqRu4SmqJFKXF1hAGCr39hj4lsAx2FDAn6EcpIq8nqXqGWhoD0bChpsIwti7EpIYwMyeEuagpwvTxYRpqQxrMLiIiIiJlIeRAQ22IhtoQl10Uw/OgM+VxpMOl5ajLztY8O1sL7D9W4Ei7X6WVzVvckzsb9iS2UAuiSFDmgB0NHO7tN/RxBpadCkwO+lGKjBT25G89ySrwT7CRsN8KWF/lMKYmROPoEFPHhZk2PsLkhhBjakNUJxxCfd5nVERERESk9DgO1FU51FU5zGqKcPPCOK4HXWmP450eR9pdWo4V2H+0wP5jLodPuJzo9uhOe+QKllzhjbsdnpqtpQSXyFCZBEyjDwmsXr8XF//BQfDs7wD/AWhZLDIIzpagAn93lXAIohFDVdyhttJhTI3DhFEhxteHaBwdZuKYEGNqQtRVOcQjBkfvShERERGRC8q7lmTG0pH0aE/6ya3W4y6tJ/zEVluXR2fK/5XKWvKupeC+McEFSnKJDJAF/heY/2he2rs5WL2vwDIYYAlKXon0yqmk1BnJKQOEQhAJGSJhqIw71CQcaisNo2pCjK0NMbbOoaE2xNi6EPVVDjUVDlVxQyRs1L8vIiIyiKyFgvf6rJyQo5tCIuUuEjLUVRrqKh2mnPG5vGvJ5f2B8V1pj7Yuj6MdHsc7Xdq6T/63y6O92/98d8aSzb2e5PLOTHKd/M2c8UFd0oucyjF9jzcumc+p9wksz1YD84N+hCLDwZ767Sx/Po+eyqlwyJysnjJUJfwE1Khqh9HVDqNrQqf+XF/lUF3hUBV3qDyZoFLbn8jIk3ctqYwllbVEw4autEfy5ADanvl2lTFDbZWfzA6HdNkr0l/JjOXAsQI7DxXYe8SfjdOV8sgV/HN4ZdwwpiZEdYVDJmdpHB1i4pgwDbUOo6pCJGI6V4uUs0jIEAlBZTzEuPrQmz7veX7SO521dGcsyYxfxdXWdfJXp8vxLj/R1ZW2pHOWTM6Sy/vn9XzBn8PVs0u4Z/0dFL3TPnYmzeuSMjYfbA3Q0Zsv7n0Cy9IEzAj60YkMBnuWtr2Q41+4hhzjt++F/SRULOxXSoVDfoIpEoJYxBCPGhJR/7+VcedNyar6KoeqhP+5RMwQCemCV2SkK7iQzvXczXXZf9T1Z3EcLXDwuEsya4mEoPtkMit/MoEVCRkqYobaSoeJY0JcPCnCwulRLmqKUFOhA4vIheRdy44DBV7YlGHF1iy7DxXoTHnkC+e+OeUY/1ohFPJ39PXb+UM0jfETWpMbQjSdTGzVV/kbpeg8L1L+HAeijiEaNtRWApwlyWXBdS15F7J5v0IrezJ5lS9AtmBf/3je/5XJ+8mudNZvb+xMeXQk/TbGrpSlI+WRzHhk8/YNxy5HOyxKaZsOTKSXCaxevdQX3b4PQ+iDwE+BaNCPUKQvTk9WOQZiUUN13G/Xa6h1GHty95LRNf6sqZoKh+qEQyziz6CKhs2pqqpIyP+zMT0nC6OThoi8ietBOmc50eVytMN7fWjsUZeDxwsc6/IvSrN5v90AXm8xwL5+TOn5b8/d2J5jmTFQnTDMmBDhLZfGuWlBnMkNfdyXRWQEKLiW13bl+MUrKV7enOV4p4dn+77g69n199TOv/g3veJRvwVpTG2IptH+DsCTGsI0jQnRoDmVIjIAflWWf52QzFi60v61Q2ubP4x+31GXfUcLtB53aU965PL21DWCo7WJlI488Ouutfe9dtfEC35xr17aiz97HEKZvwK+EfSjE7kQvxTX/3MkBDUV/vDz6ePDzJoYYdr4COPr/Ta+yriflFICSkT6w/Mgk7ec6PY41uHScvz1iqoDx1yOdfoXlf5sjNe/bzAS3z3HupADkxrCvOuKBO+9qoJxdaGB/cUiZWLvkQI/fS7J46vTnOj2huSG01kTW2FInExsNdT6VVqTGkJMbgjTOPrkBiyVDrGo0SJTRPrN8yCV9TjS4bGrNc/m/Xm27M+z53CBti6PTM6euoGvtY4Uub9dfWfj100vXqi9q8D6fEvcGHMf8O6gH5nI2fT0i4dDUFfpMHlsmNkTI8yZHOGixggTRoWoTji6Ayoi/eJZyOb83YqOdrocPO7f9dx/1OXAsQJHO/xEVTpnKZxW1m/MaTsUDXF8joG5UyL89m3V3DA/rlYmGbFcD559Lc2/P9rF9oOF12fHDKM3JbaMf1MtEfNHDDTUOkw8mdia1BCmcVSYMScrwWMR3VgTkf7J5CxHO1x2HSqwcW+e9Xty7DiYp63Lw/X89kcdXqQIPQp8qHlpU/pCX9i7CqzbD0wGngZmBv3IRE7nen7Sanx9iAXTolw2K8acyRGaRoeoSmj1JiJ9Y60/q6Ij5XG80+Pgcb9Ef//RAi3HChzt8DjR7ZHOeuTdNy5OhyNRdSGuB7WVDh+/sZLfuLlSx0EZcTI5y0+fS/KDp7rpTHpFd+Oqpw34zMRWRcyhvtofazCxIcSkMWEmN4SZMCrEmNqTow2iJvBjjIiUlnTWsu9ogZXbsixbn2HTvjzJjFVVlhSbXcAtzUub9lzoC3ubwLoF+AVQGfQjEwF/kZaIGuZOiXDbogRXXRKjaXSYsDpnRKSXsnl/noSfqOqpqCrQcszlSLvLiW5/WOqbElUU90WfPdlW+O4rK7j9PTWMrimyFbzIEEllLf/xWBc/fTZ5agfPUnFmYssxEAn7ia1R1Q5j6/ykVk/F1vh6f3ZnTYVfsSUiciFdaY81O3M8/GqKV7Zk6UxZVWtLsUgBH2he2vTEhb7wgme8RbcfxGD/CLgj6Ecl4lmIhmHRjBgfuKaCqy+JaQcuETmvXN7SlbEc73Q5dMJl/xG/qqrlWIHD7S4nujy6M/7OQF4JJarOp6eF8e1LEnzpQ7WMqtZxUspbrmD53mPd/ODJLgpu6b53z3T2xJahMm4YVeUwbtSbE1tjakJUxf2dlEVEzpTJW1Zty3L3siQrtmbJuxr6LkXhK8baf1x9gUHuF9yyyDEmZK1dEvSjkZGt5+Jt+vgwn3hLJbctTihxJSJvkCtYUlnL8U7v9UTVsQItRwscOuHSdjJRlStYPM//np4kVc+vUJlcwPU8jMdXp6mIGf74g7VUxMrkwYmcwVp46JUUP3qmu6ySV3Baa/Jpj6ngWtq7/c0jdrQWgCyOA9GwoSpuGFXtML4+xMQGvw1x4pgQY+tOJrYS/u7KIjJyxSOG6+bGuXRalEdWpvnRM90cOOYWXcu1jDiLrZ+fKpzviy6YwLLW1gNzg340MnJZC9GI4W1LEnzqtiqmjdNW8SIjWb5gSeUsbV0eh0/486n2HS3QctQ9lajqTHnkChb3bIkqGDEl8xZ/YT9xTJjfvKVKF6dSltbtzvG9x7pJ5+yIqSI4W2IrX7C0dflJ/G0H/MRWyPErtqrihtE1ISaMCjFpjF+tNakhTENtiDE1J3dlVmJLZESpqXD42I2VzJ8a4TsPd/HKliyW4Od5yog1BykRXwUAAIAASURBVGNGAUfO90W9yATYqcDkoB+NjEyehdHVDr/7tmref00FiagOqSIjRcH1K6raujyOdri0HDs5p+pIgdY2l+MnE1XZ/NkTVTByElXnYoCCCz96pps5UyJcMSsWdEgig6oz5fG9x7s4dMId8e93eOPxr8fpia2tLXnAPzZGw4bqCsPo6hATRvutiBNPJrfG1fkzthIxQ6RcSlNF5KzmTonyl5+s598f7eLnL6fIl9gMQSkbk4BpDCSBteSzB7HYeUBd0I9GRh7PgynjwvzxB2q4fl5cB1KRMuV6kM56tHV7HOvwOHC8wL4jBfYdcTnQVuB45+uJqoLrf48SVb1nDBzr9PivJ7q5eGJE7ddSVp5oTvPqlqyOARdwtsRWrmA51mE52u6xef/ria1YxFBT4TC6xqFxVIiJY8In2xH9VsRRVX5iK6zElkjZGF3j8L/fX0N9tcMPn+omk1MSS4ZdLTB/yecOvbr6O+PP+UXnTWAZjLHYxYAuC2RYeR7MaAzz9Y/WsXhmNOhwRGQQeB6kc/7clmMdLi3HC+w/6nLgmL/z39EOl47k64mqnjJ2JaoGLuTA6u1ZnlqT4YPXVgQdjsigONLu8sCLKfIF1B7bT2dLbGXzliPtLodPuGzc6ye2wiE/sVVb4e+K2DjaHxw/eWyYiWPCNNQ6jKpyiEcd7QgtUqISMcPvvLWKsAP/+Xg32bySWDKsHGAx1hhe34/oTc6bwPIcrwq4NOhHIiOLZ2HquDB/+rE6Fs1Q8kqk1HgWMjlLR9Jv/Ttw3J9TdeCYy/5jBY52uLR3e2Ryryeq4I0zqrQYHXy5gj8P66YFceqr9ARL6XthY5btB/I6XgyBMxNb9uRxPZ11aW1z2XBaYiseMdRWOoyuCdE4yk9qTW4I0XQysVVfFSIeNboBIVIComHDJ2+pIpm1/Ojp7lO7M4sMk0utU6gGOs/1BeefgWVoBGYG/Shk5PAsNNQ4fPFDNUpeiRQ5C2R7ElWdLgdPJqr2H3VpOVbgaIfHiW6XdM5SKChRFbSQA5v351m5NctblySCDkdkQFJZy1Nr0uRdVWYOp7MltlI5SzLr36xYt9s/todDEI8a6iodxtSGaBr9+uD4pjEhGmpC1FY6SmyJFKFYxK/EOnzC5dFV6RGzOYYUhekYJgKbzvUF50xgXfH5FgpwCdAQ9KOQkcHi38X79NuruXZOPOhwROQ02bylM+XPqDrYdrKi6rjf+neozeVEt0cq65F3/QUNKFFVjLJ5y3PrM9y0MK7BzFLSdh3Ks3l/XgurItDT6n361mWehWTW0p1x2X/MZc3Ok4mtMCROJrZG14RoGhNiytgwkxvCNI4OMea0xJZ+tiLBqU44fPZd1ew5XGDzPlW6yrAZA8y59PZDm9YtPfscrHMmsDJhh7BrFwEqg5FhYS2847IE772qQv3WIgHJFSxdKcuxTr9NZP9RP0nVcqzAoRMubV0nE1UFTpWV9ySpjMFfcOj9W7SMgfW7cxw+4TJxTC82IhYpUmt35uhIerpeKGJnTWx50J2xdKVd9h09mdgyEAlBIuZQX+kwptahaYyf1Jo8NkTjqDBjah1qKhxiESW2RIbLpIYwv/eOav7if07QndY8LBkWEWDRxVUt9687xxec8+o14tmYhYVBPwIZGTwLMyaE+a3bqohHdXQUGWq5gqU7bTne5Q/q3Xey7a/lmEvr8QJt3R7daUu+YM+aqDIGVMBTehwDRzs8th0oKIElJcv1YNO+PJ7VcagUnS2x5XrQlfJ3nN1zBFZtz51KbFXEHOqrHRpq/MRWT8XWhFEhxtQ6VCf8xJYW1yKD77o5Md62JMH9L6R0f1KGy8LtycY4kDnbJ8959WotDcDFQUcvI0MkDB+/sZIpY7WgEhlM+YIllbW0dXm0nugZpu7PqTrY5tLW5dJ1MlHlev73nJ6kUqKq/GTzlq0teW5eoFZtKU1daY+9hwtaTJWZnpskZya2OlMeHSmP3YeAbTkc4183VsT8HREbat/YijiuPsSYmtcrtkSk/yJhw0duqOSlTVkOtrmqgJThMNtYOw7Ye7ZPni9bcBHQGHT0Uv5cDxbPjHLrIg0VFumvvGtJn0xUHWl32XdymPr+o6+3/nUkPXLnSFSBBiGPFBbYe6SA6+lnLqWpK+XR1qX2wZHibImtggsdSY/2pMfO1gLAycSWoTJuqK9yGD8qxKQxYSY1+APkx9WFGF0ToiZhiCqxJdJrMyZEeOuSBD94sjvoUGRkmICfi+p9AmvJ5/dj4VKgMujopfxFw/CeKyuordRKSuRCCi6kc/7i7WiHeypJtf9ogdY2l+NdHp1Jj2zeUlCiSs7heKdLJmepjGsRJ6WnPemRzmlv95Hu7IktS3u35UR3T2Iri+NANOQntkZVO0wYFWLiyR0RJ48JM67eHyhfGTdEwzomipzJMfD2JQl+tSLFsQ7dPJAhVwEsWHL7wadWL31zPdXZK7CMDQGL0SheGWKeB7OaIlyjXQdF3sD1IJOztHW7/s5/xwvsPeJXVh08VuDYyYqqbN5ScP3vUaJKesMAXWlLrmCp1GleSlAmZyl4VlepclZnS2zlXcuJbr9KeftBP7EVciAaNlQnDPXVIT+xNSbkz9k62Yo4usahIqbElsj0CWEuuyjGIyvTGi0hw2GJ9XNVhTM/cdYEliVUB8wLOmoZAQxcOyfG6BqttEWSGcuLmzLsai2w/1iBA8dcjnW6dCQ9f8Hm+u1f4N8NU6JK+sXwhplnIqXG9fydi0X64vQbPD1yBcuxTsvRDo+tLXmAU4mtmgqH+iqHqy+J8Zl3VWueloxokZDhurlxnlqT1vWDDIc5BjsKOHLmJ841A2vKyV8iQ8YCVXHDVRfHdBNVBP9C+kfPdLN2Vw7n5FX2qWHqgKNElQySMzYAEykpIQe1sMigOVdi62iHy6ETBa66JKYKLBFg3pQIDbUhWttcHYNlqE22MJWzJLDetBy67PbD4Fdf1QUdtZQ368HEMWGmT4gEHYpIUaircrjq4jghxxBy/EWaY5RokEFmIRY1hENBByLSP1Vxx08oqApLhlhdVYgb58e1WBcBxtWHmD4+jKdjrwy9WmDeks8deNMn3pTAMv7mmIsBXdrKkLLAjAlh6jS8XQTwE1XXzY1RV+moPUaGjAVqK7W9vJSuuip/LpEOkzKUPAuXTIowq0k3WkUAYhHDjEa9H2RYOMASznIf/02ZA5d8Jf4OhCJDyhiYPiGitiiR01zUFGHulIjubsmQGlcXUgJLSlZNhcP4+pAS/TKkQo5/U0m7tYq8bnJDWLNXZbhcah2qz/zgWV5+thG4KOhopfyFHWgarUI/kdMlooYb58fV3iVDxjF+9ataYqRUVcSMxg/IkLIWxtaGuPoS7ZItcroxtQ4RzYST4TEDaDrzg29IYM393BGAi4GGoKOV8maBaMSofVDkLK66OEbjqJCqsGTQWaAybrh4ohb/UrqMgYXTo0TCA/+7RM7Gs7BkVpQpY3U3SeR0/gxCjSCUYTEGuOTSL7S84YNvyB5UhjIAC4FY0NFKmbMQDhniMWXwRc7UODrMVRfH1B4jg856MKkhzAxVr0iJmz81wvh6JfplaCSihpsXJAiHdJ06VLJ5y4luj4PHXfYfLXDohEtX2qPg6k1dzCJh/J2y9WOSoRcBFo9KR9/wwTfcu8rbUNTAoqAjlZHBMaDrguKUzVs6Ux7HOj2OtLsc63DxLFQnHMbVh2gcFWJ0jaMLuyEScuDmhQkeWZUmlbXahVAGj/Er/OqqVP0qpa1xdJhFM2LsP5rSVq0yqDzPb7NeNCM68L9M3qC922PD3hzNO3JsP5DnSIdHOuvhnbyxXVNhGF8fZlJDiCljw0weG2Z8fYj6Km08Uiw8q9yVDKuFHbF8HMj0fOANCSzjtw5eEnSUMjJ4nqXgBh2F5AuWtpN3wHYdKrCrNc/eIwVa21xOdHskMxbXs1jrJ1ZiEUNDbYjZEyNcfUmMy2fFGD8qpPXDIJs3JcKcSRFWbMtpWKYMmrAD08dr/pWUvpADs5vC2ghGBp0xcMP8OPVK9A+ati6Pp9akeWRlmm0H8qSyfgrEnPrNZy2s250HIBKCRMwwujrExIYQMydEmD0pwowJYSbUh6hK6OcThGzO4rpWNw5kuMw2hrHAvp4PnDk9YCbQGHSUUv6MgZwLyaxy+MMtX7Ac7fDYeSjPpr15trbk2XO4wNEOl3Tu9aSiMf656fSFruv5P7PuwwV2HSrw1No0kxvC3DAvztsvS3BRUwRHJ7RBUZVwuGlBgtU7ckGHImXEcQxR3cWWMnHlxTHG1oY40u4qKSuDwloYXeNwwzwNbx8MuYLlhQ1ZfvRsN+v35MgXwHE49425097HnoXujKUrXWD34QLPb8gSDUNtpcOkhjBzJkeYPzXKrIl+O3EiqoPAcOhIemQL6g6QYTMBf4PBNyewFv9BC3hcClQFHaWMDLm8pa1LJVhDzbPQ1uWy+1CBDXvzbNiTY8fBAkc6XDI5v7LKmNcTVheq9jmV1DJ+mf2uQwV2Herm0VVpbl0U5/1XVzCzsXfzdVwP0lmPti6PRMyv7JLXXTs3xk+Xhdh/1FViUAbM82DGxDCLZ2rMpZSHqeP8eYE/fzmlkQQyKDwLl8+KMWOCdgg4XUfS497nk8Qj5lRb35iaEFUJc87WvgPHXH74dDePrEzRlbaEnAtfY57p9GtO8K8bj3d6HO3w2xCj4SSjq0NMHR/m0mlRFs2IMrMxzKjqkK6bhkjrCRfXRTcNZLhUAgsWfaHl6TV3TgROr8AyxgEWo4JAGSaeB/uOFIIOoyzl8pbWNpdN+/Os2pZl/Z48B48XSGUt3smElXPy10Df8T0XCEfaXX78bJJl6zK89+oK3ntVBePq/ISUZyGTs7R3exztdDl43GXvkQL7jhQ4cNzl8AmX6+fF+OpH6tQud5qJo8NcNzfOT59N6sgsA2YMvOXSOKNr9CaT8hAOGW5dFOfJNWnSOVUEyMBVxAxvXZwgEtar6XSb9uf5/uPdZPOWaNhQlTDUVzmMrw8xqcGfVTVlbJjG0SFqKx3W7Mzxvce62LzPbwcczGs7c9oMXdeDw+0urSdcXtmSpTJmaBoTZt6UCItnRpk/NcqE0SEiynAPCmv9G9ee1RxjGVaLsYQAF05PYLnUAfOCjk5GDgvsbC2QL1hdKAyCVNay53CB1TuyrN6eY1tLnmOdLrnCyTtYzhtP+oOtp4Kr5bjLd3/VxfL1Gd66OEHehb1HCrQcK3C03aU96fmtioU3DoFcsTXH4RMujaNVhdXDceC2RQkeWZGmM+Xpbpf0m7XQUBviLZfGtciXsrJgepQ5kyOs1LxAGSDXg9kTIxrefgZr4dUtWTI5i+NA3rW0dVmOd3psP1gAsqdmpNZVOtRWOhxsc+lMesMyo+70a9tUzrKtxR+P8ctXUzTUhpg7JcKVs+MsnBFl4piQhsEPQGfKY+fBvK4jZLjNNYZRwFF44wysycDUoKOTkcMY2Nma52inR+MoJS36oztj2dWaZ9W2HCu3Z9nWkudE0sPz/MooYwb3rldv9FRkbdibZ9O+vL9byclM1emtimde1LS2FXhtd47G0Ymgn9aicskk/2L62XUZ3e2SfvMsXDE7yvTxaouR8lKdcLh1YYI1O3OnzjUi/RFy4JaFcWorlQk9XUfSY9X27Bs+1nM9d7ps3nLohEtrmz+TLogNFnpu2IKfkDzY5nLguMszr2UYUxPi4kkRrpwdY/HMKFPHhZXM6qPdhwvsO6qZgzLsJmPNVE5PYF32hQN4lnlAfdDRycjhGDh8wmPT3hyNo5S06K3ujGVna54VW7K8ujXLztYCHUl/C+KgklZn05PI6m2bYq4AL2/2q7aKIf5iEY8a3rokwUubsxRcrc6k7yx+W8xtixOElQWVMnTt3Dg/XZZk75GC5t5Iv3gWJo0JaXj7WWxtybPnUOFUYuh8zpbYClLPNai1/qiLQydcnt+QYVS1w9wpUa6+JMZlF8WY1BAiqm6QC1qxJUuXOgJk+NUB85b84f6Vq789yU9gGQNYFgMqg5FhlclbXtiY5aYFSlqcTyrrV1q9ujXLK1uybD9QoDN1RtKqxE8mxsBru/IcOuHSpDbCN7hydoxZTWE27Mlry3jpM8/zK/kWTldbjJSnxtEhrp0TY+/hguYFSv9YuGF+nIkNqlI9nbXwytYsyYwt+euP06+Vj3d6PLcuw/MbMjTUhpg3NcI1l8S57KIoTWPCWpOcRVuXx/MbM6c2fxIZRg6wBOwPABsGcF1TibELgo5MRh7HwKtbs+w+lO/1znUjRa5g2XukwKtbsry4KcvWljzt3eWVtDqdY062Ee7K0aQ2wjcYVe3wtiUJNp0chirSF35bTIKaCl2RS3lyDNy6KMGvNC9Q+sHa18+zquB7o46Ux6pt2YH/RUXm9GvoI+0uT61xeW5dhvH1IRbNiHLd3DgLpkUZVx/S8eSklzdn2XagUPKJTClZ860XrgK6/NsMxo4HZgYdlYw8xsDhEy6PrUrzufdERvyFg+vBgeMFVm/P8eLGDOv3+IPYXa88k1ZnOr2NMKwirDd4y6Vx7n8hpRYZ6ZOetpjr5sWCDkVkSPVUGT63XvMCpW/8GYExZk/UjdQzbd2fZ/fh3rUPlqqea2tr4cBxl5ZjaZ5oTtM0JswVs2JcOyfG3ClRRlWX8ZNwAe1Jj5+/nCSXL/1KPClZM7C2EdjaUyc7CxgbdFQyMlng0VVp3rokwaymkXfxYC0c6XB5bVeOFzZmWbMzy6E2l7xbXDOthoMxsHZXjta2ApNUxv8GTaPD3Lwgzn892R10KFJKLFw7J87E0Xo/SXmLRw23Lo7z0uYMrhd0NFIqemYEvv2yhGYgncFaeHFThmR65CQtemZmFVzYfajArtYCD72SYtr4MFddHOOaS+LMnhimKjFCnpCTHluV5rVduRHzOpCiNAY/Z7U1vPgPDoJn5wKaWiiBcIy/S8hPnk3ytY/WjpgdQU50e2zcm+PFTVlWbsuy/6hLNm/9nVtGUNLqdI6BQ20uq7bnlMA6gzHw1sUJHl6R4liHWmTkwqyFmgqHWxbFddEpI8KVs2NMHx9ha4vmBUrveB5cOi3KkpmaEXim410ur27NBR1GYHqSWZm8ZdPJnbXvez7JrKYI18yJc/UlMWZMCJd94nNbS56fPNd96sa6SEBiwNzFtx/8ZdjDOg7MCToiGdmMgSeb0yy5KMp7rqwIOpwhk81bth8ssHx9hpc2Z9h9qEAyM7KTVmfKu/D8hgzvvDwxYpKZvTWzMcL1c+P87MWUWmTkgjwLl06PMHeyFmYyMoypCXHjpXG2HdC8QOmdWATefUVixFXU9Ma63Xl/bMEIf2oMnGqh7E5bVm3P0bwjx0+fc1g0I8YtC+MsuSjKmJrym33RkfT47iNd7D/qKnklxWCOtTYUdiw1wIygo5GRzQCpnOU/Hu1i2rgw86aW14LreKfLim05nl6TZs2uHG1dHlj/hKik1Rs5BtbvybH7cIGLNY/iDcIhePeVFTzzWoaOpKqw5PyiYbhtUYJETC8UGRmMgZsujfPgi0mOdeoYKefneXDxlCjXzlUTyplcD17YkCGTs7pOPc2ZOxk+0Zxm2foMMyb4Yx7ecmmcaeMjZfGcZfOW/3qym+UbMkpeSbGYbgw1oQlXfLEJ+DxQH3REMrIZAx1Jy+7DBRbPiFJbWdpHf9fz++cfeDHJvz7cxQMvpdh+sEA2Z0/NttL54M2MgVTW0jQ6zMIZ5ZXIHAyjaxx2thb8nWD0ApJz8CzMmBDm999RTWW8tI+lIn1RW+mw/YCOkXJhjgO/dWsVl8/SJhdnam1z+d5j3drV8zx6uic8C0fbPVZtz7F8Q5bdhwvEIoZR1SEiJdpemHctP342yQ+f6qbgoteAFAsP+FlowhVfXAD8FqB96yVwxkDrCZd9RwosmB4tyW3fU1lL884cP3iqm39/pItn12U42uFheX0ou5yfZ8H1LDcviBNVG+EbhBxDRcxh+foMuYJeT3J2FvjANRW85dKEXiMyooQcQ8gxLN+gYe5ybp4HMxvDfO7dNWofPItl6zM8vCIVdBglw5y8vu9OWzbty7NsfYb1e3IUXBhV7ZTUjaRs3vLjZ5J87/EuMjmrawgpJhZ4PAxMAqqCjkakh2Pg5c1Z/uonHXz5wzXMbCyNNrIj7S6vbs3y+Oo063bn6ErZUyc0Hfz7xjGwtSXP1pYCSy5SFdaZFs6IcvmsGM+8pu3i5c2shdHVDjcvUPJKRqZFM6LMnhhhzc5cWbTyyOBzHHjH5RWMrS+/uUUDlStYlm/Iki9ozEVf9bQYJjOWFzZmWbE1y4wJEW5aEOfG+XFmTAgTLuILt/Zuj+8/0c19zydPbSwlUkSqgEmhCVd88b3AraibSYqIMdBy3GX97jyNo8NMHBMuyoNoNm/Z2lLgvueTfPeRbn7xcordh13yBf/iqBhjLgXGQDYH9VUOV14c0/N4hkjIEI8ant+QIe/q4C1v5Fm4YV6cD11XQUg9VDICxaOGrrTHiq3ZoEORIuRZmDY+zO3vrSnJSv+htuNggf96oou0qm/6rae90Fo42uGxenuO5euzbD+YBww1lQ4VRTafcsv+PP/0QCe/WplS26AUKwdYG5pwxRd/A1gSdDQiZzLGP+i/uiWL6/kXG/Fo8EdTz/ptjs++luH7T3TzX0928+KmLMc7/V4FtQkODgsksx5vuTReUqXXw2VsXYgt+/PsPqQ5L/JG8Yjh995RxUUlUr0qMhTqKh2Wb8jQmdIiXN7IGPj4Wyq5cX5cr42zeOjlNM+tz+i5GSQ9nRjJjH/Te/n6DK9syXL4hEs4ZKhOmEDHZXSmPB58KcUdD3Swbk/e33VRP3spTgbYFQYag45E5FwcB9q6PP714U5Wbsvy6zdVcvmsGLFhPtC7HhzrcFm/N8fLm7I078xx4FiBXMFPWDkGlcEMMsfA3sMFVm3P8c7LNaLvTBUxwweuqWDltqx/lzTogKQoeB5c1BRmyUwNJZaRbeKYMNfMiXPv8qTOz3KKZ2Hq2DBvW6IW67PpSHos35DBs2hEwSDraS/MFSyb9ubZtC/PPctTXNQY5orZMZbMjDF9Qpi6SmdYXpvdaY9Xt2a5//kUq3dkybvohqiUgvFhYEzQUYicjzm5w8crm7Ns3Jvjurlx3nNlBQumR4e0/DaZsbSecNm4N0fz9hwb9uY4cNw9NdDQMZoNMNRyBXjmtTS3LtQw97O5fFaMyy+K8dz6jF6LAvhJ/5sXJKir0gtCRraQA7cujPPYqhTdaVVhic8Ab78swcQx4aBDKUrr9+TYfjCPo1PIkOp5frtS/u6FzTtyVMa7mdQQZv7UKPOmRpjZGGF8fYjqhBm0uVmeB4dO+DN7n2hO89quHKmsJeQoeSUlY0wYqA06CpHecBx/d49HVqZ5YWOGS6dFuXF+nMsuitE4OjSgqqyCa+lMWVrbXHa25tmyP8+2A3n2Hy3Q1uX5c4aUtBp2joG1O3PsbC1wyWS1Q53pVBXWdlVhiT9rY/yoEDfOjwcdikhRmDc1yvypUV7clFU1ifjVV+PCvPNyVV+djevBc+syJDNW17rDpKcqCyCZtWze51dmPfAiVFc4jK0LMWVsmJkTwsxojDBtXJixdSESUdOrJKPnQSrrcajdY+v+PKu2Z1m7M0fL8cKpeb36WUuJqQ0D1UFHIdJbPQf67rS/u8crW7I01IaY3RRh3tQIsyZGaBwdYlRViETMEHbAcQzm5CBFz7MUPEhnLW1dLq0nXHYcKLB5f469R1yOtLt0p/2EFbw+z0oH92AY47eQLt+YUQLrHK6YHeOqi2M8vVZVWCOdZ+Hqi2NMHqvKguHkedCV9jjW6XGi26UjacnmLeAPE6+tdBhV7TCmxqEqPjytIeKriBluXZRgxbYsnhd0NBI0x8C7r1D11bm0thVYsTWrY1RADGBOXsd51t8R8ESXx5b9eZ4wEA0b6qscJowKMakhxIRRYRpqHWoqHBJRQ8gxeNaSzlk6kh7HOjwOthXYd8TlYFuBE90e+YJuyEvJqwkDlUFHIdJXPYksa+HwCZfWNpdlGzLEIoaaCkNdpUNdpX9Qj0cNoZDBdf2DemfKoz3p0ZH06ExZcnmLZzk1tFAJq+JiLTy/IcNHrq+kXm1Rb5KIGT58XSUrt2XVJjOCWaA6YbhtcULHr2HgerD/aIG1u3Ks2Zljx8E8xzpcutKWgmuxJ7/OAJGwoTrhMK4uxKyJYRbPjLFgWpQJo0J6vw6Dqy+JMWVsmJ2t2vBiJPMszJwQ5h2XVeh9dw4vb85ysM3V+6RI9KxJehRcy5F2l0MnXNbs9M8vIadn13NzqgrfsxbP889TPeci3ZCXMpIIA5r0KiXt9PLbfMFyrMNytN07ddA+6/fw+onh9O+X4uM4sPNggeYdOW5ZqNaos1k8M8p1c+M8sjKt1/II5Xkwd4rfLiVDJ5u3rN2V47FVaVZszXKk3fVbzHnzYqOHm7Oks/6i47XdOX7xcoqm0WGumRPj7ZclmDM5qkXFEBpXF+KGeXF2tnYHHYoEKGTgPVdVMGF0KOhQilIyY3l6bYaCqyRHMTtzzWLxE1WcZdWjOWZSpuJhQFe7UlbOtYiQ0pXOWZ5ck+b6eTGiYf1wzxSL+FVYr2zO0p709PofgcIhuHVRnMq4fvhDwVrYsDfH3c8leWFjho5U3zbzOH3R4Xqw50iBPYcLPL46za2LEnz4ugpmNqpNeigYAzcvjPOLV1Kc6NLxcSTyPLh4csTfeTDoYIrU+j05Nu7NKekhIsUu4gA6VIlIUXMMrNqWZcfBQtChFK350yLctDCOtQP/u6S0eBYmN4S5Zo4qFIdCV9rjB09186XvneBXK9N0pQe+Y5Nj/LvjbV0e9yxP8qX/OMH9LyRJ5/QGHgqzGiMsmRnD09M7IkXC8KFrKxhXp+qrs3E9eHqtf2xTgk9EipzjgI5VIlLcjIHjXR7PvJZWguYcIiHDr11XyfhRIT1HI42F6+fFmVCvxdlg23+0wP/7aQffebiTI+0uIWdwK3x7qrj2Hi3wzZ918s37OzjS7gb9sMtONGK4bVGceFSXvCON68Gl06LcujARdChFq+VogZc3a3i7iJQGB9CVkoiUhGXrMxzp0CHrXGZNjPCuy3WRPpJYC/VVDrcsjGvxMci2tuT5ix+180RzGs8bWMXVhTgGcgXLgy+l+MuftLPviKpNB9tls2Jc1BjWboQjiMXf6OTXrq+kTpvAnNPzGzO0ani7iJQG1wFyQUchInIhjoE9h/27hHJ2joH3XV3BtPFhtcqMEJ6FRTOjzJ6o+UmDafvBPP/vp+0078gN26KuZxD8ixuz/PXdHew/qiTWYKqvcrhpQeLUNvVS/jwPrpwd47q5aq8+l86UxzOvZU4OAhcRKXp5B0gGHYWISG/kC/DUmjSprLIz5zKxIcwHr63QLkIjRCxiuG1RglhEt84HS2ubyz/e38mGPflA3keOAyu2ZbnjgU7aurSqHEw3zo8zrk5t1iOBtVBb6fDRGyq1ucV5NO/IsWV/XsPbRaRUpB0gFXQUIiK94RhYtzvH+j0qHD0XA7z9sgounRpVq0yZ8zyYMSHM5bNiQYdSNtI5y78/2sWqbdlAF3SOgeUbMnz/iS5yBWVbBsuUsWGuuljD3EcCa+HWhXEuu0ibrZ9LrmB5bJV/U1ApPhEpESlVYIlIyTAGOlP+BVfB1QrkXEZXO3z8pkoq4gY9S+XLGLhpQZxRNbp1PlgeW5Xm0VXpotjexlr4+cspnluXCTqUshEOwW2LElTp2FjWPAuNo0N85IZKIuEieDMXqa0teVZuy2r2lYiUkk4HaA86ChGR3nIMvLQpw85WzYc5n+vnxrl+blxVWGXKWmioC/GW+fFiyLWUhX1HCvzomW6yueKoRjAGkmnLD5/q5mCbNq8YLJdOizB3iipUy5lj4L1XVTCrSbMBz8Wz8ERzmrYuTxuAiEgpaXeAw0FHISLSW8bAkQ6PJ5vTmmNyHvGo4RM3VdJQ6+h5KkOehStnR5k2Phx0KGUhV7D88Oludh8qFNUsGMeBLS15/ubudiWxBklVwt+1MxwKOhIZCp4HsydGeN/VFUrMnMeBYwWWr88URbWpiEgfHHGAg0FHISLSV8+85m/7LOc2d0qUd19ZEXQYMsgsUBnzh7eHQ1p9DIaV27I80ZwOOoyzshZe3JTlwZdSmt00SK6dG2fSGO3WWm4s/s2bj7+lkvH1ylCez3PrMrQcc9U+KCKl5qADHACNAhCR0uEY2He0wLL1mg1zPiEHfu26SmY1RdQuU0Y8Dy6eHGHBdA0nHgzdGcs9y5J0pmxRV2w8/GqK7QfyQYdRFiaMCnHdvJiufsuM58G1c2LcsjARdChF7US3x5Nr0rouEJFSY4F9DrAP0JZeIlJSXBceX52mPakrsPNpHB3i12+uJBbV0OJyEXLg1oUJaiqKqNethC1bl2HFthyhIn46HQOH2lzuez5JXhtYDJhj4JaFCeqq1GJdLqyFMTUOv3FzFRWxIs5EF4GXNmXY2pIvqnZpEZFeyHIygbUH6A46GhGRvnAc2LI/z8ubs0GHUvRuWZjgurkx3W0tA56FpjEhrpsbCzqUsnC80+Pe55Nkc8WfxTAGnl6bYe1O3XMcDBdPjLBwRlRthGXkPVdVMH+aKlPPJ5mx/GpFmqyKOUWk9HQD+3taCE8EHY2ISF9l8paHX02RzGgFcj4VMcMnb6lirAa6lz4L186J0zRaw9sHygKPrkqxcW+uJCoRjPFbf+5eliSd1Rt5oOJRf45cTBvVlbyewe2/dn1lUVdSFoNV27O8trs0jnkiImdoA1qck384EHQ0IiJ95TiwdmeOldtUhXUh86dE+cC1lUU940fOz1qoqXS4dWFCi49B0HK0wAMvpnBLqDLRceDlzVle2KT5f4PhitlRpo/XjMBSZoHEyZs0jaM0uP18sqfd9NOlgIiUoP1g2xyD6QJ2BB2NiEhfGSCZtfzy1RSZEmgBCpLjwIevq+DSaVEt1kqUZ2HBtAhzpqhkZKA8Dx58KcWew4WS2oXLAKmsP3S+vVtv5IEaXRPiLZfGldgvYdaDmxbEuXlBPOhQit76PTlWbsuV1DFPROQ0O1zodix4wPqgoxER6Q/HwMptfkm8nF9DbYhP3VZFdYVRK2EJiobh1kUJElGtPgZqa0ueR1amgw6jX0IOrNud44nm0oy/mBj85EeD2qtLkmehcUyIT95SRVzHxfMquP7sq/akp4StiJSqjQas07y0EWAzoCshESk5xkBnyq/Cyhe0ArmQay6J8c7LK4IOQ/rIszB1XJirLtbw9oHKFyz3Pp/k8Am3ZBdy+QL87MUkrW1u0KGUvGnjw1w+O6Zh7iUoHIKP3VDJ7CZVpV7ItgMFXtiYUfWViJSqJLBx7dKJ9EzR2AkcDToqEZH+cAy8tCnLpn3aVudCImHDr99UyczGsFoJS8yN8+M01GrGy0Ct3pHjmdcyJZu8Ar8leMfBAg+9klLiZYAiIX+Ye0XMoKeydLgeXDU7xnuvqijp9/JwcD345aspjnWq+kpEStZh/JyVn8Cyhlb8KiwRkZJjDJzo8njolRQFV0uQC5nUEOa3b6umIq5WwlJgLYyudrhpQUKLjwFKZfz5UR1l0EbjWXjolRQ7W5W4H6hFM6JcPEnD3EuFtTC21uF33lZNbaV2tLiQHQfzPPtaRoPbRaSUbcZPYvkJrCP3bk4BK4OOSkSkv4yB59ZnVIXVSzcvjPP2JQlVHJQAz8Jls2LMbAwHHUrJW74xwytbsmWxi6Nj4GCby/3PK3E/UDUV/u6eoTJ4XYwEjgO/dkMlC6ZHgw6l6HkePPxqisPtpdsyLSICrMzlTAZOJrCafutSgFcB7UUvIiXJGGjr9Pj5y1rM9UYsYvjNW6uYOUGthMUuETW8dVGCaFirj4Fo6/K4d3mSTK58tpA3wJNr0ry2W4n7gbpuXoym0SG1ZBY514MlM2N86NpKzXPqhZ2teZ5aq+orESlpKeCVeMI/QTsAK/5hLBY2AC1BRyci0l/GwDJVYfXalLFhfvut1f7sFy3aipLnwaymCIsvUqXBQD2+Os363bmyqL7qYYyfmLtnWTfpnN7EAzFxdJhr5sRRWWrxshbG1Dh8+u1VjKouozfyEPEs/GplmkMlvGGFiAiwD9iw6ttNALx+9LccQG2EIlLCTq/CyqsKq1duWRjnHZcngg5DzsFx/HbPOs15GZADx10eeDFJoQyrDR0HXtyU5eVNKqIfCMeBWxfFqalQQr9YOQ589MZKlszUbqy9sftQgSebtcm8iJS8FVhzuOd/Tr8izgNPA9qTWURKVk8V1mZVYfVKLGL41G1VGmBchDwL4+tD3DAvHnQoJc2z8IuXk+w8VCjLliMDJDOWe5b7w+ml/+ZOjnLptKjaCIuQ58GVs2P82nWVZVVFOVQ868++am1zy/K4JyIjhgs8YwyFng+cOgWsuasJ4GVOTncXESlFp6qwXlIVVm9NHBPm995RrcqDImMtXH1JjMljNbx9ILYfyPPwq+myfm2HHFizM8tTa1RtMRCJmOHWRQkiessVFc/CuPoQv/+OauqqlL3qjZ0H8zy+WscDESl5LcDLq5c2nvrAG84C1tqdwKqgoxQRGQhj4Ll1GdZpsHGvXT83xgeurdScjCJhgeqEv5jWzmj9l3ct97+QpPVE+Vch5Atw/wspDp1QIf1AXHVJjKnjwqrCKiKREPzGzZVcOk2zAHvD9eDnL6do1ewrESl9r1jYffoH3nhZbJwM8AhqIxSREmYMtHV73P98kmxeq5DeCIcMv3FTJYtnRtVKWAQ8D+ZNjTJ/qhZsA7F2Z46n1oyMHbgcB7YdyPPLV1NlXW021MbWhrhxvtp2i4Xnwc0LErz/Gt1g6a2tLfkRc9wTkbKWB37luM4bKhLOuK9bAHgG2B90tCIiA+EYeGFjhlXbNNi4t8bUhvjsu2oYV6+t5IMWCcGtC+NUxrUE6a901nLPsiQnur0Rs/D1LDz0copdhwoD/8tGKGP8hMnoakeJwIB5Hkyf4Le4V+lY2CsF1/Lzl5IcaVf1lYiUvF3Ass6L977hg29IYK1ZOhkwu/GTWCIiJcsY6Epb7nshRSqrVUhvLZoR5bdurSIaNtpNPiCehUkNYa6ZoyqQgXhhU4aXNmdH1MBnx0DLcZefvZCkoFr6fpvZGGbJRTEl8gNkLVQmDL/3jmpmTNBQst7auC/PM69llLwSkXLwuDGmZfsfXvWGD77pss5aCsD9QDLoiEVEBsJxYMXWLC9tygQdSskwBt53dQVvXRxX9UFQLFw/L874+lDQkZSs9qTHPcuTpLJ2xLXRGODx5jQb9uSCDqVkRcOGty6Ok4iOtFdP8TAG3n91BTcvUCK/t3IFywMvpjjeOXKqTkWkbHUAD1rsmwabvCmBteauRrC8CLwadNQiIgNhgFTWcv8LKTpTGuzUWxUx/673JZMimoc1zKyF+mqHWxbGtQAZgCeb06zblRuRA/CNgeOdfgIvk1MWur+WzIxxUVNYx8AAeB5cdlGMT52sBpbead6R47l1qr4SkbLwkrGsar6z6U2fOOulXcExncA9nByKJSJSqvzt5XM885qqsPpickOYz727mlGaAzOsPOu3cc6eGAk6lJLV2uZy/wsp8iP4CsYx8PzGDK9s0QzA/qqrcrh5QWJEtaAWA89C4+gQn39PNWNqVYXaW6ms5Z7lSTqSqr4SkZKXA36KY7vP9smznpajftP/o8DWoKMXERmoXN5y3/Ikh9s1FKYvrrkkzm/eWkVYa4hhE4sYblucIBbRCqQ/rIWHXkmx42B+RCcejIHutL+gVfVp/90wP864+pCS+MPEWkhEDZ9+e7V2YO2jFzZmeHXLyJr5JyJla52FJ6x79gPaWT+66q4mPOu04Fdh6bQtIiXNcWBLS56Htb18nzgOfPi6St66OKFhxsPA8/zh0ZfPigUdSsna2Zrnl6+m9HrFrz5t3pHlmbWqPu2vKWPDXH2xhrkPGwPvu6qCd16eUBVRH7R3e9w7Qmf+iUjZcYEfF0zicPN3Gs/6BefM0xusxXIP/vaFIiIlzbPwi5dT7Nb28n1SGTd85l3VzJuieVhDzRi46dI4o6t1C70/Ci7c/0KKA8ddHK3iAMjl4b4XkhxR9Wm/hBy4bVGC6oR2ZR1qngeXXxTjd95WpQrUPnpyTZp1u0fmzD8RKTubgQfCnHsEwjkPdf4wd2cH8BNUhSUiJc4xsP+Yy33aXr7PJo4J84X31jC2PqRKhCFiLYytC3HjfO241V/rdud4sjmtCoTTOA5s2Z/n4RVpVZ/20/xpUeZOiSqBP4Q8C5PGhviD99XQoLlXfXLohMvPRvjMPxEpGy7w3wZ3/5o7J5zzi86bq7fGesAPge1BPxoRkYEywBOr06zfre3l++ryWTF+/x3VJKJGC+Eh4Fm4YnaMaePDQYdSkjI5f97T8S4NMD5TT/XpnsNa4fZHZdxw66K4ZgEOEWuhOmH43LtqmDtFm1f0Rc97e/sIn/knImVjPXA3OOddaZz3cLfmrkYca3cC38fPiImIlCxj4HiXx0+XJUlre/k+MQbec0WCD19XqQTBILP4i+TbFsUJh/Tk9sdLm7O8sDGjRdxZOAb2HS3wwItJXFUR9cs1c+JMbgirAnUIhBz42I1V3LpI1ad9te1Anl+8opl/IlIW8sC/pycdb1m9dOJ5v/CCl3rWb/v/EbAm6EclIjJQjuPv1rN8vQYb91U0Yvjtt1Zx3dy42mkGkefBJZMiLJyuXbf6oyPpcc+yJMmMBhifiwEeW51m415Vn/bH+PoQ18+La6DGIPMs3LIwwW/cXKnkfR/lCpa7lyVp1cw/ESkPL1m4L3Gw7oJfeMEE1uqlE8ml0geApYBWfCJS0gyQzlp+/Gw3RztUWNpX9VUOf/C+Gi6epKHugyXs+Iu46gqVD/XH02szrNmZ1QDj8zAGjnV43LM8STavLExfOQZuWRinvspRC/Ug8Ty4dFqU299bTY2OfX22YmuWZ9amVREtIuWgG/iWwR5r/vbkC35xr84YFbU1GMwDwGNBPzoRkYFyHNi0N88vXk5pMdIPMyaE+d8fqGGchroPmGehaUyY6+bGgg6lJB0+4XL/C0kNMO4FY2D5+gwrtmYH/peNQLMnRlg0M6pj3iDwj3sh/uj9NUwco7l/fdWZ8vjJs0k6U1YJLBEpBw8Aj/e2jr5XCawV/zwWa70u4JvAoaAfoYjIQLkWHngpxbYD+aBDKUlXzIrx2XdXUxnXUPcBsXDtnBhNo7WI6ytr4eEVKba2aIBxbxgDXWl/2H1XWuWTfRWLGG5blCAWUcZgIHqGtn/+PTUsnKG26f54ojnNqu2qOhWRsrAHuANIr1na1Ktv6PWhLxqOAvYV4LtooLuIlDjHQOtxl588p5aa/jAG3nl5gl+/qYpQSKNh+sNaqKl0uGVRQgmYfth9uMAvXtYA474IObBqW45nX9NEiP64fFaMGRPCap/uJwtEwvBbt1Zx26JE0OGUpJZjBe5ZniSvlZiIlL488G1jvXXNvUxeQR8SWK98eyz4iavvAsuDfrQiIgNlDDyzNs3Lm9VS0x+RkOGTN1fyrssrlMHqB8/CgulR5kzW1vF95XrwsxeS7D+mAcZ9lc1b7ns+qRmA/TC6xuGmS+Nq2+onA7zvqko+/pYqwqGgoyk9rgf3Lk+x82BBxz0RKQePWfgBxvRpFdGne77NSydi4DDwl/j/FREpWcZAd9ryP093c7xLt9T7oyrh8Pn3VHPtnJiqEvooGobbFsVJRLUS6asNe3I8vjqtXQf7wXFg8/48j6xMq/23H95yaZyxdSE9d33kWbh+Xpz/9a5qKmJ65/ZH844sD69IBR2GiMhg2Av8lYNtX710Yp++sc9NCxaD43nLgX8BNDZVREqa48Bru3M8+GJSrUj91FAb4o8/WMvcKdqZsLc8D6aND3PlbA1v76ts3p/jdKzTUyVMP7kePPhSin1HdRnXV9PGh7lidkzniz7wPJg3JcIfvb+G0dXql+6PrrTHD5/upq1Lxz0RKXkZ4O9tyK7K0/cZsH0+izQvbcQ6xsPwXeCRoB+9iMhA+e1IKTbv00D3/po2PsyXPlTLpIaQkli9YeDG+XEaatVH01evbs3y/IaMWmgGwDGw70iBB19M4er92ifhkOG2RXF/A4uggykBngeTx/rnhynjtFlFfz22Ks2rWzS4XUTKwk+BH+IZu27p+D5/c78Og6uXTgSPNuAbwKagnwERkYFwDBw64fLfT3WTympJ0l8LZ0T5ow/WMqbWUXXCeVgLY2ocbro0oTvpfdSV9rh7WZKutLaPHwyPrEqxeX8u6DBKzsLpUS6ZpIrTC/EsNNQ6fPGDNSyYrh0H+2vv4QI/fU6D20WkLLwK/BWQXHNn7we3n67feXwTNkQy3nrgz4ATQT8TIiIDYRx4fkOGp9akgw6lpL1lfpzb31NDdcJoRsw5eBYuuyjGzEZVI/TVM69lWL09pyqEQWAMHG33uHd5ilxBb9a+qK5wuGVhgrBeh+dkLVQnDLe/t4br58WDDqdk5QuWnzyXZPdhDW4XkZLXAnzVYnb3ZdfBM/X71Lv6241kEw7WOA8Bd+BvgygiUpIMkMlZfvRMNy3HNBemv4yBd19ZwaffXk0soiTW2SSihtsWJ4iEtRrpi6MdLvc9nySX14tqsBgDz61Ls3KbqrD66rq5MZrGhFRtehbWQjRi+J23VfPOyytULTkAL2/O8uiqlDasEJFS1w38X2CZw8DKlwd072jtnU1gbcEa/gW/l1GncREpWY4DOw4W+MmzSfKqSOi3kAMfvaGST9xUSSikE8PpPA9mTYyweKbaafrCWvjVijRb9udxVPUyaIyBzpTlnmXdJDN6p/ZF0+gw186J6wB3BguEQ/CJt1TysRsrCWvMX78d7XD5rye76UqpZVpESpoLfAfs/wC2r7sOnmnAl4FrljZiLJ34rYTPB/3siIgM1MMrUry4KRt0GCUtFjH8zlur+cA1lWp7OI3jwC0L4tRVKgvTF3uPFPj5yxo4PhRCDqzYluO5dWqf7gvHgVsWJaipdFRpehoDvP/qCn73bdXEIzr495frwf0vpFi3O6ekvYiUup9j7N+DyQ6kdbDHoBwSm5c2YWAf8GVgR8BPkIhIvxkDXSnL95/o4vAJTUwdiMq44fPvruYdlyWCDqUoeBbG14e4Yb7mwfSF68GDL6XYd0QzYIZKNme59/kUxzuVIeyLOZMjLJgWVRvhSdbC25Yk+Nx7aqiM6806EGt35fjZC0klR0Wk1K0Cvga0DUbyCgYpgQVgMRxc2rgC+DrQFsjTIyIyCBwHNu7Nc/eyJAXlsAakttLhf7+/lpsXxEf8hbi1cM2cGJMaNLy9Lzbty/HoylTQYZQ1/5iX49FVKXXE9YE/zy5OVG9pPAs3zIvzRx+oUYXpAHWmPH7wRBfHOj21DopIKduPX+C0PZ+LDNpfOmhnmOaljTR+4QAe9kHgHwFNBBWRkmUt/PzlFCu2qpVwoEbXOHzxg7VcMyc2YisVLP6OXLcuTGgHvT7I5S33Lk9ytEMLuaHmevDASylajmoTi764cnaMaePCeCO4eM2z/vPwpQ/X0lCroVcDYS089EqKV7dmda4QkVLWBfwFlmUA6/9t3KD9xYN6aGy+cyIGU8CyFPgfNNpSREqUMdDe7fGfj3dxrFNlWAM1flSIP/m1Wq6cPTKTWJ4H86ZGmTdVw9v7YuX2HMvWZ5S8GgaOgT2HCjz4UmpEJ2P6qqE2xI2Xxhmp28R5HiyeGeWrH6ll4hglrwZq0748P30uSV6XHSJSugrAnQ7mxxjsYLUO9hj03P6apU1g6Mbwf4DnhuUpEhEZAo7jz6G4d7mGRw+GSQ1hvvqRWpbMjI64BXIkBLcuimsuTB90ZzzuXtZNp3bgGlaPrEyzpSUfdBglwxi4aUGCMTUjb5i758H8aVG+9tE6po5TH+VAdaU9vvd4FwePu5r3JyKl7AHgmxabG+zkFQxBAgtODXVvwe953Dq0z4+IyNCxFu5/PskrW9RKOBimjgvztY/WsWD6yElieRYmjw1zzSUa3t4Xy9ZlWLktpzaaYWQMHD7hct/zSXKFEZaNGYCZE8JcdtHIqi71PLhkcoSvf7SWmROUvBooa+EXL6d4cWNGuw6KSCl7Ffg6mBOrhyB5BUOUwAL/gp28WY0/df74UP07IiJDyRg40e3xH492cbhdNf2DYcaEMF//WC3zp0VGTBLr+nlxxtervaa3jnV63Ls8STY3gjICRcIYeOa1DM07NMq0tyJhw22LEySiI6NsxvPg4kkR/vRjdVw8afAG845kG/bm+PGzah0UkZK2F/iytWYn0eSQ/SNDlsBas7QJG7FYax4C/g5Q+YKIlCTHgXV7cvzo6W7yrhbUg2FWU4RvfLyOS6eVdyWWtVBf5XDLgrja4HrJAo+uSrFxX16VCAEwBjqSHvcsS5LK6HjXW4tnRpk1sfyT8j3Jq298vJa5U5S8GgydKY//fLybQ21qHRSRktUJ/Bkh9wXHeDTfcdGQ/UNDemnoz8OyLoZ/Bf4bDXUXkVJl4RevpFi+Xrn4wTKrKcI3PlFb1u2EnoXFM/yFrfROy9ECD76ouXNBchx4ZUuW5RsyQYdSMuoq/UR1OSdd35i80oYUg8Fa+PlLKV7cpNZBESlZeeBb1nC38Ry7eunEIf3HhvxQucbvfUwC/wd4aqj/PRGRoWAMdKUs33usi5Zj2mZ+sFzU6C+GFs4ozyRWLOK3FsUiuq3eG54HD76UYs/hgioRAmSATM5yz/IkbV1l+MYcIjfM91uFy3EW1qm2QSWvBtXaXTl+8lySgloHRaR03QfcYSC/+s6hTV7BMCSwAJrvbAJjW4GvAJuG498UERlsjgNbW/L81xPdZPJluEIJyMxGv51wyUXRslr4eR7MbAxz+axY0KGUjC0teR5ZmQ46DME/3m3Yk+Px1fp59NakhjDXzImV3W6Engdzp0T4s0/UMU/Jq0FzvMvju490cfiEWgdFpGS9BHwDQ0fznUMztP1Mw1asatwQ1g2vBb4KHB2uf1dEZFAZeHRVmkdWpNUTPYhmTAjzZ5+o4+pLymcnL2PgpkvjjKpWX0hv5AqW+55PcviEq3lhRaLgwc9eTNJyTOUhvRFy4NZFCaoTpmySWJ4HC6ZH+fNP1DFnslqhB0vBhZ88282qbVm1DopIqdoNfBnL7vDB4duNdtgOmau/MwEnksXAr4C/ATRYQURKjgHSOcv3n+hi09580OGUlSljw/zpx+q4cX685Bd/1sLYuhA3XhoPOpSS0bwjxzOvZZS8KiKOgV2tBX7xcrJsEstDbd6UKPOnlkc1qWdhyUVR/uwTdZrjN8he2Jjh/hdSJX+uE5ERqx3404JT8ZJxDCt+Nm7Y/uFhzfmv/pfJWPCAfwf+E//PIiIlxTFw4JjLv/6qkxPdOowNpqbRIb7+0VpuXeQnfkr12t6zcOXsGNPGDd8dqVKWyljuWZakI+kpgVWEHl6RZvsBJex7ozJuuHVRnEgo6EgGxrNw9SUx/uwTdcyYoOPYYGo5VuDfH+2iU8c7ESlNeeAOa+19IZth9Z2Nw/qPD/vptXXFHUy44ot5YDUwDxi6PRZFRIaIMXDguEskBItnxNQCMIgq4w6LL4rR3u2x42Aez1JSF/kWqIgZ/tc7q5k6TlULvfH02gw/ftav8imhH/WI0LOBhcVPaIQ0rOeC6qpCvLgpS1t36SYobloQ56sfqWPSGCWvBlMmZ1n6UBfPb1TroIiUrB+D+QsM6TVLhzd5BcNcgdWjeWkTYA8DfwJsCCIGEZGB8jy4d3mK5zeqI3qwja52+OIHa/jYWyqJhCmpNgvPg0smR1gwXcOOe6Oty+Pe5UkyOavkVZEyxk8yrtmZCzqUkjC+PsQN80qvfdji/6zfdXkFX/9oHY2jSryMrMhYC79ameLRVemSTWyKyIj3PPDnQOeapcMztP1MgeX+HWNwsevxk1iHg4pDRKS/jIGOpMd3f9XFnsOFoMMpO9UVDp97dw2/89Zq4tHSGYocduDWhQmqE7q93huPr06zfk9O1QhFzBg40e1xz/IkqWyJvBEDZAzcvDBOfZVTMscta/1j14evq+SLH6phdI3ekINt3Z4c//m4v4ux8lciUoJ2Al82sLc5gMqrHoGdnVbd2UTUGsA8BvwVkArsWRAR6SfHga0H8nz3kS6605qHNdgSUcNvv7WK299TQ02FU/SDkT0LTWPCXDc3FnQoJeHAMZefvZikoLdO0XMceHlzlhdVcdors5oiLJ5ZGsPcrYV41PCp26r5wntrqK1U8mqwHetw+c4vu2g97qIuXBEpQSeAr3elRr8a9CVboLXBB1fewYQr/thi2YChHrgCjb8QkRJjDOw9XCAeNSyYHtPF6SALOYa5U6KMrw+xcV+erpQt2vYLa+FdVyR425KKoo2xWHgWfvxskqfXZvSeKQEGyBX8Sqwb5sWJR/VDO59wyK8afWFDtqiTWJ6F2gqHz767ht+4uZKEfq6DLlew/NujXTzRrNZBESlJOeBvwfleNJL2gmod7BH4LRZ/HhZpMH8N/CroeERE+qPgwo+eSfL8BlUnDAXHgXdcnuDPP1HH9AlhvKBv/5yFtVBb6XDLwoQSMr2w/UCeh19NlexOkyNRyIF1u3M80ZwOOpSScPmsGDMbi/N4Bf68vnF1Ib7ya7V89IZKomEduIbCE81pHnwpVTLtpCIip7HAjy3cibGFIIa2nynwBBZA811NWDgKfBV4Leh4RET6yhho7/b4zsOd7DqkeVhD5epLYvzlJ+tZMKP4WnM8CwumR7lksnYevJC8a7nv+SStbWqnKTX5Atz/QpKDbW7QoRS9UdUONy2IF2XVjefB9Alh/vzX63jn5QlCRbEiKD+b9+X5j0e7SGWLt3JYROQ8lhn4CwNdzXcGn7yCIklgAYRCULDuJuArQGvQ8YiI9JXjwPaDBf714U46U0V6y70MzJ0S4a8+WcctC/xdvorlrnY0DLcuiqsFpxfW7szx9NqMFnQlyHFgZ2uBh15OFV0SuRjdOD/O2LpQ0RynwE+2L54Z5a9+s55rLtG8vqFyvNNj6S872XdEiXoRKUnbgS9jzP7mgNsGT1c0CaxV326kMhLDOvYp4C+BZNAxiYj0lWPguXUZfvJskoJbRCuWMjOpIcyffrzOb3uJBL9DoefBtPERrrpYi8ELSWctdy9LcqLbUwKrRHkWfvlqip0H80GHUvSmjvOPC8WQ7LPWrxZ+6+IEf/mb9cxRteiQyeYt33+ii1e2ZLXDqoiUouPA16qidpUtsj74QIe4n6nllW/6Q92Ns8FADXAlRZRkExHpDc/6OxM2jgpzUZMWCEMlETUsuShGImbYtC/vb00eUELEAh+8tpIb5xdnu1AxeW59hv95OolrtWtLqTIGOtMWYwxXXxLDUXnJOTkOhEOwbH2GvBvca95aiEYMH7mhkj98fw1ja4tqCVBWrIVfvJLi+090U3DROUFESk0W+H8G+1+ZgmPX3FU81VdQhMmhNXdOxGAzwN8Bvww6HhGRvjIGutKW7/yqk3W7c0GHU9biUcNv3FzF1z9ay8QxoUCGJVsLY2qKd9ZNMWnv9rhnWdKfBxN0MDIgBnhyTZrXdqkK60IWTI8yZ3IksGHungd1VQ5feE81t7+3hrrKorv8LyvNO3L8x6PdpHOaeyUiJccCPzTwHWuMu/au4ph7dbqivP3SuuIOGq/4YgpYC1wDTAg6JhGRvjAGOpKWfUcKXDE7RnVCC4ah4hiY2Rhh7pQoew4XaD3hDuuiwbNw46VxPnRtBSFVopzXQ6+mePClVNBhyCAwBlJZSybncd28OJGQXvvnEosY0lnLK1uyw/5vex5MHR/mKx+u5d1XVejnNMQOHnf5m3s62NVaUOugiJSiZ4D/DRwvprlXpyvKBBbA+Mu/hHE4DuwAbsVvKRQRKRnGQGubS1facsWsmLYoH2Lj60NcPivGiW6P3YcKeHZ4WjfiUcPvv72aGY1qFz2f1jaXf36wk6Ptmn1VLnqOcTMbI0wfHw46nKJWV+XwwsYs7cnhef3bk79dPjvKn36sjitmx/S+G2LJjOVbP+/ghY2aeyUiJWkL8BkD24o1eQVF2ELYY81djeCBtTwL/AXQHXRMIiJ9ZuDRlSnuWZ7ELa4ZiGWpaXSIr320lt95azVVCTPkg5M9D2Y3RVg8Mxr0Qy9qnoWHXkmx42BeC7syYvAX7fcs76YjqQPc+TSODnPtnNjJzNLQshYiIXjf1RX85Sc1rH04FFz4yXPdPL46rUShiJSiY8BX3VhmjVe8KSKgiCuwAFpX3kHjFV8EwyagEriKIk66iYicyeAnObbszzNxTIgZE7SQGGqxiGHRjBhNo8NsO1CgYwh3uzMGPv6WSq6crd0Hz2dHa55/+UUnnSnNhCk3joEj7S4TRoWYM1mJ3HMxBipiDs+ty5Adwg0nPA/qqx1+7+3V/N47qqmv0mXzcHi8Oc1dv+wkk9PQdhEpORng/xpr/8fJx23zXcU9vamoE1jgJ7EmXPFF10AzcBEwJ+iYRET6whjI5C1b9ueZMznK+PqiP/SWPMfx52LNnxblwHGXA8ddGOSWQs9C4+gQn31XDXVaJJ5TwYXvPdbtbyevhV1Zcl040uFx3dw4VZr3d071VQ4b9uTZfbgwJO8Fz4OZTf68q/dcVaG29WGydleOv7+3g2Odno5xIlJqPOB7YP4GY3PNRTi0/UwlsYpqXXEHE6744zSYtfhVWMXblCkichY9Q913HcqzZGaMWu0CNSzG1oW4cnaMbB52Hir429gP0gLDs/C2JQnedUWFFi3nsXZXju8+0kVWO3KVLWOgrcujpsJh8QzNWjqXcMhQ8CwvbMxgB7GV0Fo/aX/D/Dhf+2gti2fqZzBcWo4V+Ou7O9hxQEPbRaQkPQH8EZgTxTz36nQlkcACmHbNV3Gt1wZsA24BaoOOSUSkL4yBw+0eR9pdrpgdIxHVCmM4VMYdrpgdY0yNw/YDBboGoY3NWqhKGD7zrhomNWh49blkcpalD3WxYa9mX5U7z0LrcZcrL44zqlo/7HOpr3J4ZXOOYx2D09rseVBdYfj1m6v4wntraBqt49Fw6Ux5/NPPOnlps4a2i0hJ2gh8BuzOUkleQQnNk3rpW2PxPDDGLAf+HOgKOiYRkb5yDDy3LsP3Husimx+Gab4C+HOxPnRdJX/zqXoumxXFwoAqIDwL86dGmTdFM3/O56XNWV7YlNHibgRwDLQcd7n/hSQFN+hoiteYmhA3XhoftOTV9Alh/uzjdXzmnTWadzWMcgXLfz/ZzVNr06rAFZFSdAT4kxDhdZiSqWkCSqgCC+DQyaHuBjYBceAaSigJJyICfuJk+4ECVXHD3ClRXfwOo/GjQlx1cYx8AXa1Fsj1s6Uw7MBv3VrNgulKYJ1LR9LjWw92Dtm8HylOB9tcFk6PMmFUSV1iDhtjoDrhsGx9hlS2f9Wg1kLIgbcsiPPVj9Zy+ayYksTDyLPwsxdT/Ofj3eQLGtouIiUnDfyFgZ+4uHZNCVVfQYklsABaV/wTjVd80bWYZgPTgXlBxyQi0hfG+IOtN+7L0zgqxMxG7Uw4nHpaChtHhdh1qEB7H3cp9CxMHRfmf72zmmoNrD6nR1amuf+FZNBhyDAyBpIZSzZvuW5unHBIK/uzqa3025m3Heh7crdnl8FP3VrF595TQ+MotQwOt+fWZfjnBzvpTFsl50Wk1HjAv1lr/t4Y8s1LJwYdT5+VXAILeoa6/1HGYNYAVwKl98yLyIhmjD8faNPePDObIkwco0XIcAo5hlkTIyyeGaWty2Pf0cLJNvULf68F3ndVBbcsTOjO+zkcPuFyxwOdHGkfnDk/UjoM0HrCZVZThKnjdFw7m5BjCDmG5RsyuF7vvqen5Xn+tAhf/nAd772qQnMUA/Da7hx/e08Hh9pdJa9EpBQ9iuFLBtpLae7V6UoygQUw46q/xLW5E8AW4GagLuiYRET6whjoSlm2tuS5dFqUMTUle0guWaNrQlx9SYzKuMOOg3lSmfO39FjrD2H+3LurGVevn9fZWAt3L0vy+Oq0klcjkDGQzUNHyuOGeXFiEb0Izqa+ymHV9hwH2y6cCPEsJKKG911dwZc/VMfcKRG9twKw74i/4+D2A9qUQkRK0nrgM8DuUk1eQQnPj3rxX6rwjMW1oReBPwM6go5JRKSvHMefh/WP93dw4LgmHwehpsLhU7dV8Te/7Q94h3MPePcsLJ4ZZVaT2j7PZfehAr94JYWnPQpGrJADzTuyPL02E3QoRau20uGWhXFC57kSt/gtg9PGhfnaR2v50odqaRytxHkQ2ro8/vnnnazfk1PySkRK0SHgKzbibSz18tGSPgseWnEHTVf+MdY4mw02Alxb6o9JREYeY/zBx0faXS6fFVNbSACMgabRYa6ZEyMcMuw6VCBzlgHLsbDhd99WzeyJSmCdjevB95/o4sVN2VK/PpIBKrhwpMPl+nlxKuNa8Z9NbaXD8g0ZOlNvPtZ41t899W2LE/zJR+q46uKYZooFJJmx3PlQp6pKRaRUpYBvGGvuMVnHNn+nMeh4BqTkkz2tK/6JCVd80TOWtRimAJcGHZOISF8ZA7sPF0hmLItnxoiGdZUchIqYw2UXxbioMcyB4y6HO1yw/s/H8+DiSRE+/fZqEjH9fM5m/e4c33m4i0yuf7urSfkwBo53etRVhVg4ParXw1lUJxz2HS2wcW/+VMLXAtaDSQ0hPvvuan73bdWMqyv5y/WSlStY/vOxLu59Poln/RlvIiIlxAX+1Vq+aTD51f9a2skrKIMEFsChFf/E+Cu+mDWGNcBlwOSgYxIR6SsLbDuQx7OwcHpUd9sD4hiYMjbM1ZfECDuGPYcLpLL+blMfuaGSa+fEgw6xKGXzlrse7uK13ZoPIz7PQmtbgasvjlNfpRfFmRwDsahh2foMubx/DoiFDbcsSvCVX6vlhnlxIrqZERjX8+f5/dcT3eQKvdvkQ0SkyPwK+DLQ2XxX6c69Ol1ZJLAAPvOHn2RrS1U7sBl/qHt90DGJiPSFwa/y2bwvTyximDc1gqM+rMBUJRwunxVj1sQIh064YOCz76pmVHXZnDoH1YubsvzgyW4KrhZ64jMGOpKWcAiuvDiuttKzqK8K8dquHHuOFJg+LsLn3l3Dp99ezYRROs4EyVr41coUSx/qJJVVRamIlKS1wGcx7F1TwkPbz1Q2Z8fnHvg3JlzxR1TbUEvO2CPALUAi6LhERPrCGH92zIa9OeqrQ1w8SbtNBckxMLnBr8aaMznC3ClRQlqFv0lXyuNbP+9kZ2tB1VfyJgfbXBbNiGrnzrPoqbCqrQjxpQ/Vcu3cmKquisDzGzN882cdnOi2SryKSClqBT5vjfuqcUO0rvynoOMZNGV1JdG64g4arvxjrGEL/g6L15XbYxSR8mcMZAuwfk+OCaNCzGzUwPCgVcYdJo8NK3l1Do+tSnPv86mgw5AiZIw/BDtXsFw3N67W6LOYOi7M9fPiNNTqkrUYrNmZ42/v6aD1uKuEvIiUoiTwdeuY+8I2yuq7xgcdz6Aqu8PyqqVNYG3BwL8AP8EfKSAiUlIcAye6/aqWFzZqK3opXkc6XO57Pkkur9OtnJ0xsHx9hhVbs0GHUpSiYaONO4rE5v15/u7eDvYdUTWpiJQkF/hXMP9trLUrl44NOp5BV5aH5ualE7HQBfw5sDzoeERE+sMxcOiEyz/c38HKbVr4SfGxFh5ZkWbLfg1ul3MzBrrSlruXJelKe0GHI3JWuw4V+Lt7O9jWouOZiJSsh4C/AzLNd5bP3KvTle3huXlpE45hP/7U/e1BxyMi0h+Ogf1HXP7u3g5e25ULOhyRN9h7pMDPX07hqvhKLiDkwKrtOZ59TRWlUnxajhX4+3vbWbc7p+SViJSq1cBXDfZ489LGoGMZMmV9iHY9Q3TM6JXA14G2oOMREekPx4FdrQX+9p4ONu3LBx2OCOBvMf/Aiym/1UbdT9ILubzlvueTHO1wgw5F5JQj7S7f/FknK7bldCwTkVLVAnwF7LY84aBjGVJlPS3y0Mp/omHuZwg5zlbrz8K6odwfs4iUJ2PgWIfH1gN55k+LMrpahzIJ1sa9Ob7zS20xL71nDBzr9BhVHWLBtKheNxK4ti6Pbz7QyTNrM0peiUip6ga+ig09aAysXToh6HiGVFlXYAGsuWsi1uICdwE/REPdRaREOQ5s3JPnb+/pYM/hQtDhyAiWzVvuXZ7kaIenJIT0ievBgy+l2HdUxzAJVnvS49u/6OTJ5rSOYyJSqgrAUrA/wnh2dRm3DvYo+wQWwMkfZDfwf4Bngo5HRKS/HMff4vuv725nr5JYEpCV27IsW5/Rok/6zDGw70iBB15M4WqeuwSkM+Vx50Od/OrVVNChiIgMxIPAP4DJlvPcq9ONiAQW+EPdDRzAH+q+Jeh4RET6yzH+MOS/ucff6ltkOHWnPe5ZnqQzpdZB6b9HV6XYvE8bU8jw60573PXLLn7xcgrlUEWkhK0Avm6MPdG8tDx3HDybEZPAAnAtGGvXAF8DjgUdj4hIfzkGVmzL8tdKYskwe259hpXbcoRG1BWEDCZj4Gi7x73PJ8nlNdlBhk8yY/nXX3XxwItJPAvKwYtIidoHfNladuRykaBjGVYj6vJz7V1NuMZgLb8E/hbQXs4iUrIcAyu2ZvmbezrYr3kyMgyOdXrctzxFNqekgwyMMfDcugwrt6sKS4ZHKmv5t0e6uO/5pH9TO+iARET6pwv4c8/jeccxrP+3cUHHM6xGVAILYO3SJjC4wL8BPwBVD4tI6XIMvLo1y9/e08H+Y0piydCxwKMrU2zcl8MZcVcPMtiMgc6U5Z5l3XRnlBCVoZXKWv790S7uXtZNwVXySkRKVgH4tvH4qTHY1XeOjLlXpxuRl6Br/B7RJPCXwFNBxyMiMhCOgZe3ZPnrn3ZosLsMmf1HCzz4kgZvy+AJObBiW45l61QQL0MnmbF891dd/OTZk8krZa9EpHTdb+CfrCG35q6RM/fqdCMygQX+UHegFfgKsCnoeEREBqKnEuuvftrOrlYlsWRweR78/KUUew4XcLT4k0GUzVnuXZ7kWKcyozL4ujOWf/1V5+uVVzp+iUjpehn4U6xpbx6hySsYwQksAGstOeO8BvwJcDToeEREBsIxsHpHjr/8STvbDuSDDkfKyJaWPL9amQ46DClDjgMb9+V4dFUKNRLKYOpKe9z1y07uWZ6k4Cl5JSIlbQ/wFWvZZWPJoGMJVCjoAIJ0aOUdTL78j/BCZoexZIC3ACNrjL+IlBVj4FCby+Z9eS6eFKWhdkQf5mUQ5Ar+4OPV2zX7SoaGZ/3j1rVzYtRW6kUmA9eZ8rjrl1387AUNbBeRktcBfAnXPmIcQ/O3pwYdT6BG/Mrm4Mo7mHDFF63BrgMzBrgMnedEpIQZA0faPTbuyzOrKcK4+hF/qJcBWLktx3881k2uYFXBIEPCGGjv9ohHDZfPiul1JgPS3u3xL7/o5MGXU3hKXolIacsD/4Dluxjc5rsmBh1P4HSbC1hzZxNg0gb+H/BY0PGIiAyU48DW/Xn+8iftrNyWDTocKVHJjOXuZUk6kp6SCjLkHlmZZkuL2p+l/451unzzZx38XMkrESkP9wLfwpi8klc+3ZY/qXXFHUy44o+TYNYB1wPjgo5JRGQgjIG2To81u3I0jQ4zZVxYF/PSJ0+vzfCTZ5NaCMqQMwa60xbPwjVzYoS0W4D0UWubyz/c18FTa/xdLfUKEpES9wLwBeDwyQ3oBFVgvYGxDq71NuDvTHg46HhERAbKcaDlmMvf3N3OY6vSeJqSLL3U1uVx7/IkmZzVQlCGhTHwzGsZmrfngg5FSsz+owX++u52nn0tE3QoIiKDYRd+TmJPV2NF0LEUFVVgnaZ15T8x+covgePswtokcBMa6i4iJc4Yfyvx5u05qhKGWU0RHFU3yAX8/OUUv3g5pTIGGTbGQDpn6c5Yrp8XJxrWi08ubGern7x6dWsOndpEpAy0A38cctzHrBdi49+NDTqeoqIE1hkOrriDxiu+aIH1QD1wOapUE5ES17MwXLMjRzRiuGRyRC06ck4txwr884OdHO/S7CsZXj07qU4bH2Zmo+4hyvlt3Jvjr3/aztqdee2SKiLlIAf8nTX237HGa75LrYNnUgLrLFpX/BMTrvhiwUKzgUuA2UHHJCIyUMZArgBrd+XI5S1zpkRV4SBv4ln40TPdPLM2o2oGGXYGyBfgeJfHDfPiJGJ6EcrZvbo1y1/f3cGW/QUlr0SkHFjgx8BfGEymeamGtp+NEljn4A91/2LKwGvAtcD4oGMSERkoY6Dgwro9Odq6POZNiVKhBaKcZmtLnjsf6iKZsaq+kkAYA0c7XMbWhZg/NRp0OFJkPAtPr03z9/d2sO+Iq+SViJSL5cAfAEc1tP3clMA6j6YrvoTneceMMTuBW4HqoGMSERkoY/wFwNaWPPuOFpg7JUJNhVYAAnnX8h+PdrFya06LQgmUa+HQCZdr5sR1fJJTCi784uUUdzzQyZEOT8cpESkXO4DPWNi8Rsmr89Jh/zxWL20kFo/iYJ8G/i+QDDomEZHB0FNY8+y6DP/nR+1s2Z8POiQpAs07cjy1NqPKKwmcY2BXa4Gfv5zE84KORopBNm/5n2e6+ecHO2jr9tTiLCLlog342iN3XrzSsTqwXYgSWBfw6h3jsH4/6n8D/wq4QcckIjJYHAOrt+f48/85wYpt2aDDkQAVXMtz6zJ0pz0861fpiQTFs+B6lidWp9l7pBB0OBKwzpTHdx7u4t8e8dublbwSkTKRA/4R4zz49s9vY/VdjUHHU/TUQtgLJ+dhuUAzMAt/sLuISFkwBo53eqzekWNUVYjpEyJaHIxAxhimj48wZ0qUyrhDJmdJZjwKPbdtzOuVeyKDzQLW8xNX8ahh6tgwNy1M8KHrKpnVFCEW0atvpDp0wuWfH+zkwZdSFFxUISoi5aKnSOYvMWTXKHnVKzoF9MHi2w+An8D6CbAk6HhERAaTZ6GmwuG3b6viYzdWEo/qFDFSuZ6/aFy/J8eqbVnW7spx8LhLKuuXZTlGi0gZOHuy0s8YqIwbJjeEWTQjypUXx7hkUoQxNSG9zka47Qfy/NMDnazYmtVrQUTKzTNYfgtDi4a2955OBX2w6PMHMcYC3AT8ENDeliJSVqyFaNjwgWsr+P13VFNfpU7zkc6zcKzTZev+PCu35Xhtd469Rwp0pjw8z08+qGJPesPiH2OshXAI6qscZjZGWDQjysLpUS5qiuiYI6es2Jrljgc62dqS17B2ESk3W4FPYGluvkvJq77QJWcfLb79ANYaY4z9beBbaGdCESkzFv/k8JZL4/zh+2uY3BAOOiQpIp0pjz2HC6zbnWP1jhzbWvIc6/TI5lWdJW/mnUxYGQMVMcOE+hAXT4qweGaMeVMjTBoTJhHTC0Ze53rwRHOaOx/qpPW4q+SViJSb48DvxeHBjLU036WamL7QFUM/LLr9AAYbBfN/gC8DWt2JSNnxLCyYFuWPPlDDgunRoMORIpQrWA6fcNnakmftrhwb9ubZf7I6K+/6FxlGCa0RpSdhBRCPGMbU+lVW86dGmDclyrQJYUZXhwgpKSFnkc5Z7lmW5L+e7KYzpZ0GRaTsZIFvWGv/2eK4azX3qs90Wuinxbe3ANSD+S7wkaDjEREZCp4HE8eE+Nx7arhtUYKwtv6Q8+hKeRw47rLtQJ7XduXY0pLn4HGXrvTrw+BVoVU+Tm8JNEAsahhd7TBlbJiLJ0WYNzXCRU0RxtWGiGoIu1zAsQ6Xf3u0m4deSZEvWB0nRKTcWODfgS9aSK7R3Kt+0alhABbd3oLBzMAf6n5F0PGIiAwFz0J1wvAbN1fx6zdVURnXqUMuzFroSHocbHPZfiDPpn15trbkOXC8QEfSI1fwv86Y1yu1pLj1DF0HPxGZiBnG1ISYOs5PWF0yKcL0CWHG1oa0CYT0yY6Deb71805e3pw91cYuIlJmngQ+BRzU0Pb+0/lhAK7530fIFPIA1wM/AiYHHZOIyFDoGbr89ssq+Oy7qpkwSqVY0nddKY9D7S67DxXYfiDP1gMF9h0pcLzT3+HQ9fyvU1IreD2VVRb/5xALG6orDBNGhZg6LsKspjAXNUWY3BBmdI1DNKwflvSdtfDy5izf+nkH2w8UNO9KRMrVZuATYNY2L1Xb4EDoamOAFt9+AH+mu/0kcCdQE3RMIiJDxVpYPDPKH76/hvlTNRdLBiZXsLR1eRw87rLncIGdrXl2thZobXM50e2SzlryJ1sPTyW0jC5eBlNPksqeVlkVixiqEoZxdSEmjgkzY0KYGY0RJjeEGFsXoirhaDaRDFiuYPnlKyn+7dEujrZ7Sl6JSLk6Cnza5EIPmUieVXdNCjqekqbLj0Gw+AsHMdZGLPwZ8DU01F1EypjnwaSxIT77rhpuWxQnHNKpRAZPJmc50e1xpN1l/7ECu1oL7D1S4FCby9FOl+60JZt/vVoLVLF1Ifbkbz3JKvCfq2jYkIgZ6qscxtaGmNTgtwNOaggzcYxfWVWdcDRwXQZdW5fHD57s5mcvJkllrRKiIlKuMsDXjMe/2JDnNd+p5NVA6XQxSJbcfgAP6gx8B/h40PGIiAwlz0JV3PCxGyv5jZurqK3UCleGTsG1dKf9xNahEy4Hjhc4cMzlwHGXI+0uxztdOk8mtnJ5e2pOE5yR2CrT6q2e6qnTK6k4+bgjIYhGDJVxh1FVDmNqHMaP8iurmsaEaBwVZnS1Q02lQzxilASUIbftQJ6lD3Xy4qasvwGAXnMiUp484LvAl7Gkmu/S3KvBoFPGIFr8hYNg7TTgx8DVQccjIjKUrAXHgRvnx/n8u2uYPkHFpzK8XA9SWY+u1OtVW0c6XA6fcDnc7nK806Mj6dGR8khlLLmCJV+wFLw3Jnp69CykT10cBZDwsqd+e+P/nxmuwX//RcKGaBjiUUNNhUNNhcOoaodxdSHG1YVoqAsxttZhTE2I6gqHqoQhEja6AJRh53mwbH2Gu37Zyc5WzbsSkbL3mIXfNnBIQ9sHj65fBtGc/7WbWCSKgWvwk1hTg45JRGSoeRZmNYX5/HtquG5uXK0gUhQ8C/mCJZmxpLIenSlLe7fHiaRHe7fLiS6P9qSf4OpKW1IZj1TWks75lVx5F1zXb1X07Mn/em+sdhqIU0Vhxp875TjgOIaQw8lfhljEUBHz2/wqYoaKmENdpUN9lUNdlf/nuiqH+mqH2gqHyrj/NfGoUdufFJVkxnLv8iQ/fLqb9m7NuxKRsrcB+ATGrm++c2LQsZQVLTMG2ZLPH4Sowea9TwB3AXVBxyQiMtQ8D+qrHX7zlio+fH0lVXGdXqT4Wesnugqun7Tyf/nDpdNZSzLrkclZMieTWj3/zRf8r8m7/p9dz+J5/t/levZUkssYPxHVUy0VDhnCIYiEDJGwPyw9FjFEw4ZoxJCInkxWRQ3xmCEe8T8eC/tfFwn7iSm1XEkpaTlW4N8e6eLx1WkKrl6/IlL2DgO/Ew45j+QLsOauCUHHU1Z0ChkCi79wAM+asIP9OvANIBJ0TCIiQ81aCIfg5gUJ/tc7q5k2Xi2FMvK8oQWwTGduifSGtfDKlizfebiTjXvzSlyJyEiQBv7EwF2u63lr/1VD2webTiVDZNHtBzCWGgx3Ar8ZdDwiIsPFs3BRY5jPvLOGGy+Nq5VJRGSESWYsP3sxyQ+f6uZ4p1oGRWRE8IA7LXzNQFpzr4aGElhDaPHnD4KxU4D/Aa4POh4RkeHieVBT6fDRGyr4xE1V1GmXQhGREWHvkQL//kgXT65NUyioZVBERoyHgd+1cGSNkldDJhR0AOXsE7//W+w+XNFhYBNwEzAq6JhERIaDMZDNW9buyrGztcC0cWHG1OqUIyJSrjwPnt+Y4e/v7eDlLVmwSl6JyIjxGvBZYI+SV0NLp5UhtuQLLYyOJDiWy3wE+C5QH3RMIiLDyfNgUkOI335rNe+4LEE8qlOPiEg5aU963LMsyd3LktplUERGmlbgU17Ie8KxIZr/pTHoeMqabocPsdYVd1C/5A8Bu/Xkfajr0fMuIiOIMdCRsry6JcvhdpcZE8LUqqVQRKQsbNiT4x9/1sEvXkmRyVklr0RkJEkBf4r17nNyIdv8HSWvhppugw+TxbcfAGw1mG8Dn0LPvYiMMD27s82eGOH33lHNDfPihJXOFxEpSems5eEVKX7wZDcHj7tKXInISOMC37bwp8baTPNdE4OOZ0RQEmUYLb69BTAT8Ye6vyXoeEREguB5UFNh+OC1lfz6TZWajSUiUmL2HC7w/Se6eaI5TTZvcbSiEJGR5xdYPm0NxzT3avjodDPMltx+AAuXAT8GZgUdj4hIEOzJ4b6LZkT53bdVc8XsGCHdvRcRKWq5guXZ1zL85+PdbD+YxxgtJkRkRFoDfALY0qzk1bAKBx3ASOMZi62IrnKS+a8B/w6MDjomEZHh1rMz1ertOXYdOsEHr63gYzdWMqZG1VgiIsXowDGX/3mmm4dXpEimNetKREasg8CXLe4WiAQdy4ijmyYBWPS5FsIhJ+Ra+8fAXwGxoGMSEQlKTzXW4plRPv32ai6fFVM7iohIkcgXLMvWZ/j+E91s2Z8HXr8JISIywiSBP7Ke/V7YidmVSxuCjmfE0eknIEtuP4jFVgL/DHwa/SxEZITzPBhV7fDh6yv5yPWVjK7R7X0RkSAdPO7y42e7eeiVFN2quhKRkc0F/gn4c2vJrrlLrYNBUNIkQP7OhDQC/w3cGnQ8IiJBsxYcAwtnRPnUbVVcdbF2KhQRGW65guX5DVn+64kuNu1T1ZWICPAAlt/D0Ka5V8HRqShgi24/gIFFwE+Ai4OOR0SkGHge1FY6vPvKBB9/SxVNo5XFEhEZDnsPF/jRs908tiqtqisREd8q4BPGsn21Kq8CpRVBwJqu+BK5tHcoFDEtwC1AZdAxiYgEzRjI5i3r9+Rp3pGjMu4wqSFMOKT7LiIiQyGVtTyyMs0//qyDFzdlyRdQ8kpEBFqAz1rPNBecEIdXfDPoeEY0rQSKwGV/eJBC3jiO4/0h8DdAPOiYRESKhedBRcxwy6IEn7ylkosateOLiMhg2rwvz38/3c2ydRkyeauNNEREfF3AH3qWH8Sinn31nycFHc+Ip9NTkVj0+YM42Apr+EfgM4DueYmInGTx52NNagjxkesrefcVFdRV6TApIjIQ7d0eD72a4p7lSQ4eczGOFgciIicVgH/A8n+tsbk1SycGHY+gc1RRWXL7AaxhPJYfAG8LOh4RkWLjWQg7sOSiGJ+8pYorZ0fVVigi0kd517JiS5YfPp2keUeWgoeqrkRE3uhe4DNYTjRr7lXR0KmqyCz+wgGwzAd+CswNOh4RkWLkeVBT6fD2JQk+dmMlU8eFtUOWiEgv7DpU4O7nunm8OUNn0tOcKxGRN3sV+HUMO5vvVPKqmISDDkDeyHoWa816x+FPgO8DY4OOSUSk2DgOdKU87n0+yeodWf7i1+uYPzUadFgiIkWrPenx2Ko09yxPsudwAYOGtIuInMU+4MvATmu9oGORM+i0VWTW3DWRUNjgGB4F/h+QDjomEZFi1FNxlcxYKmI6nYmInIu18ONnuvnmzzrYc7iAY1DVqojIm3UC37DGvoCxrFmqoe3FRlf8RWj1vzRiLR7Y7wH/ASj1KyJyFtbCdXNjTB2ngmIRkXMxBiY2+K3WmnUlInJWeeBbWO42YJvv1ND2YqQEVpFavbQJMGkDfw08GnQ8IiLFxlqoThhuXZQgpLOZiMh5XTk7xuSGMJ4NOhIRkaJ0H3AHkFfyqnjpkr+INS9twsIR4E+AdUHHIyJSTDwL86dFNftKRKQXxtaFuPriGCiBJSJyppeAb2Dp0I6DxU0JrGJnLK7jbAS+AhwKOhwRkWIRCcFtixJUxNQPIyJyIY6BG+bHqUoY5bBERF63G39o+243lgo6FrkAJbCKXPOdE4m5BayxTwL/F9C7SkRGPM/ClHFhrr4kFnQoIiIl45LJEWZPjOBpuqqICEAH8A0K9iWA1+64KOh45AKUwCoBK+6ahAEPww+A7wJu0DGJiATtxvlxxtWFgg5DRKRkVCccbpwf19xAERF/aPsdBnMfIX98jxQ/nb5KRPOdE8GSAf4WeDjoeEREgmItjK52uHlBQtvAi4j00XXz4oyvD2mYu4iMdHdby7eAfPNdGtpeKpTAKiH+UHd7DPgqsCboeEREguBZWHJRjIuawkGHIiJSciY3hLnq4hhWCSwRGbmeB/7MQOfqpY1BxyJ9oARWiTGeg3XtFvxBcweDjkdEZLhVxAxvXZwgGlb5lYhIX4UceOcVFYyqdpTEEpGRaCf+Wnpv94xE0LFIHymBVWKav9NIrDKKhWeA/wMkg45JRGS4WAv1VQ6zJ6r6SkSkv+ZOjnDxxIjaCEVkpDkBfN3Uea9aa9n2x6OCjkf6SAmsEvTKN8diwGL4IXAXGuouIiOEMdDW5bHtQCHoUEREStahEy77jhZwVMgqIiNHDvimNfYBOg1rNPeqJCmBVaKalzaBJQv8PfDzoOMRERku6Zzl+Q0ZXG0DLyLSLy9szNDa5mojDBEZKSzwYwt3GmsKq/9FyatSpQRWCTuZxGoDvgasDDoeEZHhYAys3ZnjSLuKT0VE+qo77fHcOt0EEJERZRnwF0BX89KmoGORAVACq8R5MQcL24GvAPuDjkdEZKg5Bg62uWzalw86FBGRkrN5f56tLXm1D4rISLEd+DKW/WuUvCp5SmCVuLV3TCAW8nCscyqrHHRMIiJDLZu3rNmZ1Q5aIiJ9tGJrlu60VfugiIwEbcDXDnaMWaWsfXlQAqsMvPLtSVhjrTX2x8CdgKYbi0jZ27w/TyqrDJaISG+lspbXdufQkVNERoAs8PfWsT9vqjtK852NQccjg0AJrDKxemkj5uTOCsDPgo5HRGQoOQYOHHM50qE5WCIivXW0w2XfEVeFCCJS7izwQ+A7BtzVd2poe7lQAquMNN85EbAngD8FXg06HhGRoWIMdKY8DrUpgSUi0luH21260x4ogSUi5e0Z4P8C3c3acbCsKIFVZsJeDGAn8CVgb9DxiIgMlWzeclg7EYqI9FpXypItWOWvRKScbcEf2n5AOw6WHyWwysyK7zQAYEz4ReAbQEfQMYmIDAVroSOpfeBFRHrL9aw2vxCRcnYM+GpXLrNGmfrypARWGWpe2oS1rjXG3gN8C9Be8yJSdiyQyWslJiLSW7GIIaQBWCJSnjLA33qefbg2VoGqr8qTElhlqnlpI0Dewj8D9wYdj4jIUIhHtBATEemt+iqHeNSoCktEyo0H/BfwXWOMu+rOCUHHI0NECawytvrOiRi/hfAbwItBxyMiMphCDjTUhoIOY9B0pjxe3ZLlWKfaIkWKiVtGb8mxdSHqqxyUvxKRMvMk8FdAas1dqrwqZ+GgA5ChlcnniEdie8B+GfgxMC3omEREBspav5Jg+vjyOY09sjLN0oc6mTQ2zDWXxLhubpzZEyNUxFRlJjLccgXLnsMFXtiYJZnx+PTbqkmUwXtxVLV/3NxzuKCdCEWkXGwCvgKm9WQXkpSx8rnyl7Pa9G/TWPz5FrxQ6GXH8/4U+A5QF3RcIv+/vTuPs7Ou7/7/+l5nziyZSQIJW2YSFkHABZVEwapVUVut3rZ327t3W/Sut7bWWmK9u4Coda8/21pAmQmLWq1WUQStSxWXumHYMzMhkBBCNpJMNrJOMsvZru/vj5NgoCxZZuY6y+v5eEQwBvIWZq5zrvf5fD+XdCzSCM87o5UzGqTAGtpZ4RuLRxgZj6zcUGLlxhI3Lx7lOafmefl57bzo7DZOPTFHvsU7TmmypBG27qqw5KECt94/zrJ1RXbsTWnLB541L89rzu/IOuIxa20JXHhOG7feN+4UlqRGsB14TyjlltFazjqLpkBjvPPXUxpYNJfzFw4B3AScCXwQyGedS5KOVmsLvOb8DtoaYAdWGuE7d46yZmuZ5JCD/ftGU25/oMBdDxY4cWaO807P87LntrPgrFbmzGoh5xIAaUI8srfCfetK3PbAOAMPFdm0s0ypDEmAEGCsGLnx1hFeeHYbx3XW/zferz27je7ZOTbuqOA+d0l1bAz4OPD92FpioHde1nk0BRpneYie0ta7r2TOBX+bQlgKzAWej8PjkupQmsLZPXne/ltdTGur/5vJhzaXuPrbw+wbi4RDrsoh8OjN5ch4ZM2WMretGOfW+8ZZtalMqRKZ1pYwrS3xJlQ6Qrv2pfSvLnDjrSN87of7+ebto9y3rsTe0erCq4Pl1cE/376nwsnH53jOaa1ZRz9mXR0JG7ZXuP/hktcOSfUqBT5D4J8ilAb75madR1PECawmMtDXw/yFQ8MEPkjkDODlWWeSpCMVArz6Be3MnlH/n8GUK5GbfznCll1PPQkRAuRCtbzbuKPChkdG+UH/GN2zczz/jFZ+7VltPO+MVk4+LveYKS5Jv7JrX8rKjSXufLBA/6oC67eVGSnER8vip5pqLJXhG4tHeNlz2umeVd/XnlwCvzG/nR/0j7FvNH1McS5JdeIHwD8AY4N9Lm1vJvX9Cqwj1nb+J+jIje4FlgMXAbOyziRJhyuN0D0rxyVvnMGsrvpvagbWFLn++/splOJh30QevNlOI+zeX70h/+X949x6f4FVQyXGi5G21sC0tkDO8Qo1sTRWjwf2ry7y9VtH+Ncf7ufmxSP0ryryyN6USnzspNVTCaFagHW1J8x/Zlvdlz7HT8+x/OES67aVncKSVG/uA94Jcd2Ak1dNxwmsJrP++jZmvWuI/r7uexYs3Pw+4DossSTViwiveF47p51U/y9fB/fq7NqfHvU+qyQAAcoVWL+tzLqtZb539ygnH5/j2ae2csE5rTz/Ga3MO6GlIfaFSU+nVIls351y/8NF7llV4N61RTbtrDBeqK4sDwlHPaWYRvjuXaO86gXtnN1T36tEO1oDr39RB3euLFAqu85dUt3YCrwnlyT3l6Pva5qR/9ab1IJLNhND2gLh74CPAPW/1EFSQ4ux+gj4T71jFs89vf4vWT9ZOs4H/303Y8U44S/Gaaz+82rJwezpOc6Zm2f+Wa0874xWnjGnpSEWUUsHjYxHNu4os2xtkf7VRR7YUGTbngqF0mN3yU2ENMIfvGwal/3BTFpy9f02eu9Iyl9/ZhcDq4s+FEJSPRgFLiNwbaWcpvde69L2ZlT/H2HrqPQv6mb+wqEy0AecBbwNC01JNSyN8LLntHPOvPqefAAYHk258db9jIzHSblxPDiZFQ8codq2p8Li5eN0dQROO6mF805vZf5ZrZw7L8+JM3NOZ6muVFLYOVxh9eYyS9cWGVxTYN3WMrv3p1RSDmun1dEKwI8Hx/nNBR288JltWf+jOCYzOxPecME07ltfJE2zTiNJT6m6tB0+T8Tyqon5jrXJzV84BNWnEn4ReFXWeSTpicRYvdm64u2zmH9W/U5fpRF270v57l2jXPu9YcqVqf39IxDT6h/b8oETZyacNSfPC85s5bzT85xxSp7junyqoWrP8GjKxkcqrNhQ5N61RR7YWGLLrgpjxUg8gl1WEyFN4eXntfNXvzODeSfkaK3jAnjncMq7r9/J8vUlHwAhqZZ9F/hT4JEBl7Y3tfp9xdWEWbBwM5G4APgKcE7WeSTp8SopvPHCDj5w8XG0ttTXS1e5Etm0o8KydUUG1xRZsaHExkfKjJcm/ujgkTp41DAJ0Nke6DmhhWfNy3Pe6dXprJ4TcszoSOp+YbXqz8h4ZMuuMquGyty3vvp9s2F7meHRx05ZZSUEOHFmjnPn5nnh2W3MP6uVM05uob21/r5ZvvaLEa74xl5SV2FJqk1LgYsJPDDQa3nV7OrvVVYT7vx3bWJ/qcL0lpbfBT4LzM46kyQdFCMc15Vw5dtn8YIz62f6ang0ZcmqIj9ZOsbg2iKP7KlQqlRfeGtx0uHQ6ayWBGZ0JvTMru7Peu5prZwzL0/3rBzTpzmhpYm3fzyybXeFNVtK3L++xIoNRTZsL7N7JKVUrn7fhCmcsjocMVZL4FwCx3clPPvUPBc9v4OXPaeNE2fWz4O+dwxX+Ovrd3G/U1iSas8W4C0xpD8m5hjs6846jzJWQ28DlKUXvmsICLk0xr8G/gGo78UOkhpGmsLvvXQal//hTPJ1sDS5WI4svr/AjbeOsGxdkbFinNLjTRMlHpjOilSXwc+cljBndo5ndud51rw8Z/fkmXtijpmdSV38e1HtqKSwbzRl864KD20u8cCGEquGSmzaUWbP/pRiufrr6un75mCZlW+BZ3bn+b2XTuN1Czro6qiPRuibt43yj1/fQ8VdWJJqxwjwtyl8JlcOsf86yytZYOkQB44SdgJXAH+OXx+SMhYjzJ6RcNU7ZvHc02p/+mrHcIV//eF+vnvnKPsnaUF7Vg4ttHJJ9cjhycflOP2UFp7ZXS20Tj2phZNmJnS2e+xQvzJaiOwYrrDxkWph9dBQiXVby2zdXWF4NH10F1w9FVZPJU2hNQ+//tx23vmGGZw5p/afmbR7f8rfftYnEkqqGRXgqgAfSGF80L1XOqAB3iZoIh1Y6j6H6lL338g6j6Tmlkb4o1d08ne/P7Pmb6q276nwTzft5Wf3jgONcSP+VCK/KrVCgNaWwHFdCd2zcjzjlBbOnJPnjFNa6JmdY/aMHNPaQsP/M1G1rNq9P2XLrjLrtpZZs6XM2q0lhnZU2LU/pVCMpLE2jwROtDSFc+flec8fzKyL48//efcoH7thL+WKy7AkZe5bwNsD7Oi3vNIhGvhtg47WgRLr+cANwLOzziOpOaURumfl+NQ7ZvHMnnzWcZ7SaCHyyZv38u07Rhv6hvzpHDxGBdU9X+35aql1yvE5Tj+5hTNOaeG0k1o45fgcJ87M0dke6m4pv6rKFRgtpAfKqgrrt5VZu7XMw9vKbN5VZve+lLFifPRIWqNMVx2pSgpndbfw4TcfV/NTpMOjKZd/fje3P1Co+Q8MJDW0AeDiAA9aXunxan+mWVMvBkrF8r35ttzlwL8CJ2YdSVLzSQK88cXTOLO7tsurNIWbF4/w/XvGmv5joRDg0HVYhVJk664Km3dWGFhdJDkwqdU1LTB7eo6e2TlOO6mF005uoXtWtdSaNT1hWlsgb7FVE0qVyHghsnc05ZG9KUM7qyXVxh0VhnaU2TGcsnckpVD6VVl1cLIqQNMXIbkEVm8uc+U3h/n4W45nzqzaXe4+Y1rCH72ik/vWFxkZj01ZOErK3BBwKSF58ODxculQvjTpCb3w3ZsJ5ZBUQvpXwCeA9qwzSWoeaQpnz83zqXfMqukbPoA7VxZ4/xd3s3tf6g3fYTp0nxZUn3rYmg/MmJYwa3rCnFk5umfn6JldndaaPT3hhJk5pncE2lsDLS6Nn1DlSmS8BCPjKbv3pewcrrB5V4WhHRWGdlZ3Ve3al7JvLGW0EKlUqv/umuEY4ESJEf7w5Z38ze/NqOlytlCKfPSGPXz/7jGfSChpqu0H/l8Sks/H0njsv+6MrPOoBjmBpSe05NPdLLhkcwp8BjgLeCfgWxlJUyLfAv/rZdNqvrx6ZG+Fz96yj13DqTd7R+DxpUekeuO8fU+FbbsrrNhQAqrTK7kEprUlTJ8WmDU9x8nHJZw4M8eJx+U4eWaO2TMTju9MmNmZ0NFWPZLY2uK+rUMVy5FiGcYK1WmpPSMpO4dTHtlbYdueCtv3pGzfUy2p9o+njIxHSuVDJqoO/MfBqSq/1o/OLUvGeOXz2rnw3Np90HNbPvCHL+/k7gcL7By2lJc0ZcpAXwx8OcZoeaUn5cuSntL8hUMQwsnE+AXgt7LOI6nxVVJ40dmtfPLPZnFcZ+3eKVdSuPZ7w3zhR/uzjtLwHp3WOmRqKwnVIqWtJTCtPdDZnjBjWuD4rhzHdVUnuWZPT5g1PcfMzoSu9kBne6CrI6HjwBRXSw5acqHujrmlsTo1VS4fOOJXjIyMR0YKKfvHIntGUnbtqxZSu/ZVC6vd+1P27k8ZGU8ZKUSKB478pYfs6z5YUFlaTI5KCq98Xjsff8vxdLbX7j/kSgqf/tZevvzTEb8WJE2Vm4F3RNjlEwf1VJzA0lMa6Oth/sLN24D3APOA52adSVLjihG6OgIXv7KrpssrgPvWF/n2HaOPPoVPk+dgsfL4j91ihPFSZKwY2TGcHii4So/+O0mSatHVkgTa8tDWGmjPBzraEqZ3VEuvzvZAZ1ugsyOh68DPTWutHlXsaAu05QNtLdWdXAcLr4N/zOeqv0fuQMAnKoDio//xqyc3VtLqMbxKCuUDf16uVKekqtNS1Qmo8WL1/9vIeGT/WHqgpIqMHiih9o1WC6vRQkqhVJ1iK5QipUr1SX9pymO+Ph+f7/E7yzS5kgTuWllg8fJxXrugI+s4TyqXwO+/rJPFywus21Ym8WtE0uS6B3hvJO4a7JubdRbVOAssPa0YIkmM90XCZcAXgJOzziSpMcUIFz2vnZc8u3aP2ED1qYNf+el+Htmb1t30TiN6soILql9TpUqkWIF9Y/FAoVQhPu7XhPCrJ+UdWvTkDhRVLUmollVJdWLr4J8f+tfkEgih+usORjlYJB34napTTylUIqTpr4qmShopV371x3IlPjp5dvDpjgd3hx1akD16vO+QfxYHf96vzdoSgLFi5KZfjnDhuW01XdKfdlILf/jyTq745t5Hj5JK0iTYCFxKCKtbylYTenp+lehpDfb2cP4lmwkx/pCEjwGfBGr3o0NJdSmNcMqsHBe/sou2fG1/5H/7inFuW1FwF1AdeUzR8zRfXoceWaykkULpwE8e+mue8C883CBP+l8fU0YdKglPn1u1L5dUpzd/sWyc3/m1aVnHeUqve2EHP79vnDseKFiGSpoM+4APJCG5NRZS7vmMMxJ6er4c6bAMLuqGQAp8nupidz+PkzShkgD/89emcc68fNZRntLwaMrNi0cZLUT7hCZx6NP2Dv5InuhHchg/HvfXPP7v69dU4yuW4Ft3jLJ7f22/lZrZmfDmV3UxszN5fH8rSceqDFwd4asxprH/M+690uGxwNJhG1jUAzAGfBz4XtZ5JDWONIVnzcvzP18yreb3rfzy/nEG1xSdSJB0VJIElj9c5Bf3jWcd5WldcHYrvzm//bCGCyXpCNwc4V8CFPtd2q4j4NtvHZGB6gXmEeBy4N6s80iqfxHoaAu86aIuTj4ul3Wcp7RvLOU7d45RKHk7J+noFcvwn3eNsnektqew8i2BP35FF6ed1PKYJ1ZK0jG4E3h/gD0Dllc6QhZYOnIhUo6sAC4DtmQdR1J9iym84rx2Xvn89qyjPK07HyiwbJ3TV5KOTS6B+x8ucccDhayjPK0z5rTwR6/oJF/bny9Iqg8PA5eGwNroRhodBd+C64gN9M6lI5ejkvJj4CPASNaZJNWng4vb/8+ru+hore2zg2PFyPfuHmOs6BiCpGM3Xox8/55Rxgq1fU0JwOtf1MEF57T5REJJx2Iv8PfEcFuawmDfvKzzqA5ZYOmo3HX1KSSBCHwRuA6oZJ1JUv3JBfj9l07j3Bpf3A5w//oig2sKNb+jS1J9SAIMri1y77pi1lGe1oxpCW95TRezprvQXdJRKQGfgnAjIcbBRR4d1NGxwNJRO3DhGQc+AXwnl/RpkgAAMUlJREFU6zyS6kuawnlntNbF4vZKCj/sH2PvaCTUeFZJ9SEE2Dca+cGSMcqV2m+F5p/VxhsvnJZ1DEn16evAVRBL7r3SsbDA0jEZ6Oshwk7gvcBA1nkk1YcYoasj8Cev6eKEGbW/WGXjI2XueKBgeSVpQiUBbn9gnNWby1lHeVq5BP7wFZ2cMy9P6lFCSYfvNuDvI+y1vNKxssDSMQtpIMbKg8ClwFDWeSTVvgi87oUdvPTZbVlHOSy/vH+crbsrNT8pJqm+hACP7E35r8Gxujia1z0rx1te3cW0tuoeCUl6GmuBSwOsby171dCxs8DSMRu4ppt80kmM8WfAh4D9WWeSVLvSCGec3MKbLuqitaX2G6Hh0ZSfLRt3ebGkSfOL+8d5ZG99rBO96PntvPr8jroo3CRlag/w/rFy6x0pgbuum5t1HjUACyxNiLt7ZxNCiMCXgUVA7c/CS8pEa0vgTa/q4vSTW7KOcliWP1xi1aYSia+YkiZBEuDhbWXuXFnIOsphacsH/uTVnZx6YgupJZakJ1YEriCNN7e3lBjs6846jxqEb8c1YQ6caS5Ewj8D38o6j6Tak6bwsue08boFHVlHOey8v7hvnP3jkdqfFZNUr4pl+MnSccaL9dEIndmd500XdZKv/RWGkrLxVWL4NIGy5ZUmkgWWJtRAXw8hxl1Ul7rfk3UeSbUjRjjp+BxveU0Xne31UQdt21Phrgdd3i5pciUB7l1b5IGNpayjHJYA/NaLOnjJs9s9Xi3p8W4FPghx38Aijw1qYllgacKlbQlpZDXVpe4bs84jqTYkCfzBy6bx3NNbs45y2AbXFBnaUXZ5u6RJFQLsHUn52b3jdXMsb3pHwlt/o4uTjkvchyXpoNXApRE2dORmZp1FDcgCSxNu6ZVz6GxLgcqtwAeA4awzScpWJYUXPKOV331pZ92UQeVKZPHycYpu9JM0FQLc/kD9LHMHOO+MVv7Xy+rnui5pUu0C3tvf2313Atx2dVfWedSALLA0KW67ch6QxBj4KnA1LnWXmlaMcFxnwlt/czqzp9fPy86mHRWWri16YyZpSiQBNmwv0/9QMesoR5T591/ayfOf0UrqUUKpmRWBTxL51gvfPUR/dTeyNOHq505CdWegby4hHngCBdyUdR5J2Xnjizu48Jz6OToIcM+qAtv3VNx/JWnKFMvw82XjFMv1cyZv9oyEt/5mFzM6PUooNakI/Hsg9AHl/qvde6XJY4GlSVV9MmHcA/w9cEfWeSRNrTSFc+bm+eNXdNGSq58mqFCK3La8QLl+TvJIagBJgKVrC6zfVl+D6xee28b/uKA+ni4racL9DPgwxP0Di5y80uSywNKka0nbiMS1VJe6r886j6SpESN0dQTe9ptddM+ur2etr9tWZvkGjw9KmlohwI69KbevKGQd5Yjkc4E3v6qL55yW9yih1FxWAZcBmzw2qKlggaVJd/c1J5KQUKnkb6M6ibU360ySpsYbL5zGK57XnnWMI3bPgwV27ks9PihpyqURFi8fZ99YfTVBc2blePtvTWemRwmlZrETuLxQ6ugH3zBpalhgaUr093WTJGVC5OvAVUAp60ySJk+awnmnt/Inr+mitaW+3tSMFSJ3rCw4RSApE0mAVUMlHtxUf2+VXvKsdv7Xr09zelVqfAXgH1P4TkfrCAN93VnnUZOwwNKUGVzUDYES1QLrxqzzSJocMcKs6QnveMN0Tjm+vo4OAqzdWmblxpI3YJIyEQLsG63u4au3SaaWHFz8yi4uPLfNDwGkxhWBfwOuDSFWlvTOyzqPmogFlqZUf18PMTJM9Sjh4qzzSJp4uQQuvqiTF5/TlnWUo3L3qgJ79nt8UFK27lxZYNf++muBZk1P+Is3TKd7do60zgo4SYflv4CPAiODvT5xUFPLAktTrrMdQuRhqkvd12adR9LESVN4+Xnt/MGvd5LU4SvMyHjkzgcK3nRJylSSwPptZe5bV8w6ylF57mmtvO2102nPB7ycSg3lAeAyApsHXNquDNTh7YXq3eIrekhDZLQY7gTeB+zOOpOkY5dGOP2UFv7i9dOZMa0+X17WbCmxasjjg5KyN1aMLF4+XpdH8UKAN1zQwRsu6MAGS2oYjwCXl0NxaazD65IaQ33eYajuDfbNpT0fCfAN4AqgPj9ilARU9151tgf+/Lem88yefNZxjtqdKwvsGfH4oKTshQD9q4ts21PJOspRac8H/vS10znvjNa6LOEkPcY48Ikk8p+tdDC4yOkrZcMCS5lZuqgHAuUIVwM34Gd0Ut0KAX7vJdN49Qvas45y1PaNptz5QP0tTZbUmJIAm3eWubdOjxECzJmV4y/fMJ3ZMxKvrVL9SoHPA9fHQLqk95Ss86iJWWApU/29PQTYB3wQuDXrPJKOXJrCgme28iev7qK1pX5Hlx7cVOKhzaW63N0lqTEVSnD78gLl+hzCAuBF57Tx5ld30VJ/D6WVVPUj4GPAaL97r5Qx36Yrc7tLeUJgI9Wl7g9lnUfS4UsjnHRcjr94/QxOmFm/dycxwu0PFNg/FqnfCk5SowkBlq4tsHV3OesoRy0J8PsvncbLn9vuUUKp/iwHLiOy1aXtqgUWWMrcuutPIk1her77HuC9wK6sM0k6PPkcvPlVnZx/ZmvWUY7JnpGUux4sZB1Dkh4jCbBld4XBNfV7jBBgekfCn79+Oqee1OJTXqX6sR24LCbhvpD4javaYIGlmjC4qId9pSES4reAfwa8k5RqXJrCrz+3nd99ybS6X3q+/OEi67eWCb4qSqoxpTLctqJAqVLfN5Bn9+R5y2u6aMsHl55KtW8M+IdI/EEop/T3zs06jwRYYKmGDPTNJUKFwCLgS7jUXapZaYTu2Tn+9LXT6eqo75eSNMLi5QVGCh4flFR7kgDL1hUZ2lHHi7AO+K0XdvCq57cTPUoo1bIU+CyEzxFDOnCN5ZVqR33fdajh9PfNBdgPfAT4adZ5JD2xfA7edFEXz5qXzzrKMdu2u8LdDxbqfopMUmMKAbbvqdC/uv6H0zvaAv/3N7qYe2LOo4RS7boF+DjEscFF7r1SbbHAUs0Z6O0BwhDVpe4rs84j6bEqKbzo7Db+x4UdDVH6DKwusGlHmaQB/r9IakzlCty+okCxVP+tzzO78/zhyzt9KqFUm5YBl0XCdpe2qxZZYKkmhZgyHguDwOXAjqzzSKqKEWZNT3jLa7qYMa3+X0KKpcjPl41TrN8HfElqAkmA+9eX2PBI/V+sQoA3XjiNBWe1UfEooVRLtgCX5WOyIoffnKpN9X/3oYbUv2guHbSTkPwn8Alc6i7VhAi8/kUdzD+rLesoE2LN1jJL1xadvpJU00KAHcMV7llV308jPGhmZ8KbLupkekcg1v9QmdQIRoGPJSQ/Gk0qLOlz75VqkwWWalb/om4iVALheuALuNRdylQa4dQTc/z+Sxvn6Mfi5ePsHE4b4iikpMZWSeGOlQUKDXCMEOCCc9p45fPaLbCk7FWA60LkC5EY7/OJg6phFliqaf19cwBGgI8CP846j9TMcgH+5691cvrJLVlHmRD7xyN3rSy4SFhSXUgCPLipxKYGeBohQFs+8L9f3skJMxNLLClb/xnhEzEw3t/XnXUW6SlZYKnmHbiQbgEuA1ZknUdqRmkKZ/Xkef0FjbG4HeDhbSXWbHF5u6T6EALsHK5w3/rGOEYI8Kx5rVz0/A4LLCk7g8DlIcQdLm1XPbDAUn0IgRi4F3gPsD3rOFKzyeXgjRd2cPJxDXJ2EFi6tsjeUY8PSqof5Qr0P1RomOXnLTn47Rd3OIUlZWMzcBkxrkwrjfP+To3NAkt1YaC3myQmBPg+8HFgLOtMUrNIIzzjlBZe/YKOrKNMmFI5MrC6SNogN4GSmkMIsGJDiZ3DjXGMEODcuXlecZ67sKQpNgJ8OAR+EpMcS6+Zk3Ue6bBYYKlu9PfNIUIKfBb4HPh8V2kqJAFeu6CDk49vnE/ntu1JWTVUcvpKUl1JAmzZVWH15nLWUSZMSy7w2y+exqzpTmFJU6QCLCLGLwFxsNfySvXDAkt15cDZ7DEC/wD8IOs8UqNLI8w9IcdvnN9BI3U9q4ZKPLIndf+VpLozVogsXds4e7AAnjUvz0uf0+5DNaSp8W3gnwkU+nvde6X6YoGlujPQ10Os7sF6D7As6zxSo3v1CzqYe2JjPHnwoHvXFhlvkEfRS2ouEbhvXZGxQuNcw/ItgTde2MHMTqewpEm2BHhvgJ0DfXOzziIdMQss1aVc9fDg/VRLrK1Z55EaUYxw8nE5XvfCjoaaVNo/Frm/gZ7iJam5JAHWbi2xeVfj7MECeN4ZrVxwdqtTWNLk2QRcRhJWlVNrANUnv3JVl5Ys6iHGAPAj4GPAaNaZpEaTRnjZc9o4c04+6ygTatOOMuu3lxuqlJPUPEKAXftSHtjQWEV8Wz7wuhdOo6PVi7M0CfYBHyKX/DyMjnGvS9tVpyywVLcGF3VDdZH754HrqS4klDQBIjC9I/Ab8zvINdgrxYoNJfaOpC5wl1S3ShVYurbYcNNK889q5azuFp8QK02sMtAHfJk0xv7PnZl1HumoNdhtiZrNgaXu48AngO9lnUdqFGkK58zN85xTG2v6qpJW91+Vrbsl1bHAr8r4RnJ8V8KvPaudhnpqiJS9bwKfBIoDvd1ZZ5GOiQWW6t5AXw8EHgEuB5ZmnUdqBEmAF5/bRldHY71M7N5f4YGNRaevJNW1kMDGR8qs3VLOOsqEu+DsVrraAw02XCZl5S7gfZG4+8AH/1Jda6w7EzWtmEYqMX0AuBTYnHUeqZ5FoKsjcP5ZbVlHmXCrN5cZ2lmxwJJU1wKwfzwyuLaQdZQJ94w5eeae0EJsrOEyKQsbgMtiYE2u0lgT9WpeFlhqCIOL5tLRkidGfgJ8BBjJOpNUr2IKc2a1cPrJLVlHmXCDa4qMFqKnUyTVvRhhcHWRsWJjzSod15lwVneLE1jSsRkGPhAq8Zdto4El156cdR5pQlhgqWHc+elTCNWJ8y8C1+BSd+moROCMU1o4rrOxXiJGxiMDqwtE74okNYAkwKqhEhu2N9YxwiSBs3vyPilWOnpl4NMpfC0mId75r+69UuNorLsTNb0DZ7sLAf4J+HbWeaR6FAI845SWhnv64LqtJVZvLntTJKkhhAC79qUMrC5mHWXCnXpSC60tXqylo3RTjFwZoDiwyL1XaiwNdnsiHVzqHnYC7wX6s84j1ZtcAnNPaLzjg0seKrJ3JHX/laSGUUnhzpUFCqXGGi09cWaOae3BiVnpyN0OvD8E9gy6tF0NyAJLDSmWK+QCq6gudd+UdR6pXkSgLR+YPaOxXh5GxiN3riyQejMkqYEkAZY/XGTt1sY6RjizM6E976cN0hFaT/XeZ125wUpt6aDGukORDhi4dh5j5QoVkp8DHwL2ZZ1JqgsR2loC0zsa6+Xhoc0lVm4seXxQUkM5eIzwzgca62mEbXnoaAsucpcO317g/ZUkuR1g2fVzs84jTYrGukORDnH/taeSECOELwN9VBcaSnoauRwN9cl3BG5bPs7eUY8PSmo8aYRfLh9neDTNOsqEySWBfEvABks6LCXgSkK4KYnpwZ3AUkOywFJDG+zrJkIxwieBb2adR6oHSQgkDfTqsHO4wuLlBW+EJDWkJIEHN5W4d21jLXP38wbpsH2NyKeIsTTYa3mlxtZAtyjSExvs6ybAbuB9wF1Z55FqXYyxoXZF3fNgkbVbSw1VyknSQYHqnr8fD45TrjTGxTuNUKpEWyzp6f0S+ACBYSev1Ax8O6+mUCYHsIbqYsMNWeeRalk5hUKxMW6CxouRHw+OUShlnUSSJk8S4K6VBdZsaYxtCaVyZLxBXoekSXTg3iY+HEZte9UcLLDUFJb1ncK0tgpJqCwG/h4YzjqTVJMCFEuRfWONsUvlvvVF+lcXXd4uqaGFANv3VvjBkrGGmKAdHk0ZL0YHsKQntxt433C+chck9H++O+s80pSwwFLTWHzFqUSSGAJfAz5NdeGhpEMEYLwU2bmv/gusUjnynTtH2Tvi8nZJzeG/lo6xYXv9T2Ht2JsyWoheu6UnVgT+hcg3p5cTBvosr9Q8LLDUVPp75wKUYuAK4Kas80i1qJLCph31fwO0YkOJ21YUnL6S1BSSAEM7Kvywf4xY51NYG3eUPUIoPbEI3AD0QiwPVu9tpKZhgaWm09/bAzHspXqU8Pas80i1JkZYu6VMpY6HsMqV6vTV7n1OX0lqHhH4Qf8YQzvr90OIGGHVplJDHIWUJsEvgA9C3DewyPJKzccCS00pyRcA1lFd6r4u6zxSLQnAmi1l9uyv3wZrxYYSv7hv3PJKUlNJAmzYXuYHS+p3Cmt4NOXBoZL7r6T/7iHgMogbO5Ljss4iZcICS02p/6ozgEix2Ho71UmsPVlnkmpFSGDzrjJrttbnmriD01c7h52+ktR80gjfXzLG5p2VrKMclTVbymzYXvb6LT3WLuC9/b0990Dgtqu7ss4jZcICS01roG8u+XyJEPk6cCUudZeA6gTWyHjkngcLWUc5Kis2lPj5MqevJDWnJMDD28rcsmS0Lqew7lxZYN+YC9ylQxSAfyaGby24ZDMDfT1Z55EyY4Glpja4qBsC5UD4NPDVrPNINSPCHQ8U2F1nxwiL5cg3bnP6SlJzSyN8964x1m+rr11YO4dTFi8fry7zkgTV74Z/J8Q+QqwMXOMTB9XcLLDU9Pr7eogwDHwA+GXWeaRakCSwekuZe1bV1xTW3Q8W+Nm9Y5ZXkppaEmDDI2VuvHWEUqV+2qA7Vo6zZkuJxDsU6aCfRvgwMYw4eSVZYEkATGuLENlAdan7mqzzSLVgvBj5z7vGGC3Ux83Prn0pX/qv/ewb9eiJJAXg+/eMctvy+vggYng05Tt3jlJwoYN00IPAZRCGLnr+zqyzSDXBAksCFl/RQ0hgTui8C3gfsDvrTFLWkgSWPFTg9hXjWUd5WpUUbrx1hIE1RT+5lyQgBNg3GvnsLfvY+EjtHyX8r8Fx7l1bJOc1XALYAVxeml4aCCHlirc/L+s8Uk3wJUI6oL+3h61xlJCEbwL/AhSzziRlKQBjhcgNPx9h53Bt78K69b5xbrx1hLS2Y0rSlEoSeGBjieu+v4/9Y7V7gdywvcxXf76fYu33bNJUKAD/GEP63da9rQz0zs06j1QzclkHkGrJlruvoPuCv02JYZBAD/ACqvfxUlMKAbbvqdCWD8w/q42kBr8bVmwo8Y9f38vW3ZWazCdJWQoB1m6tNkMvOLOVXI1dKMeLkb7v7uOOBwpew6Xq0vbPEfh4iBQHFrn3SjqUBZb0ONUS62+KBAaA84Ezss4kZSlGWLOlzDPmtHD6yS1Zx3mMh7eX+cTX9vLARpf+StKTSdPqJFZ7PvDs0/I1U2KlEW5ePMpXfjZCJfqJoQT8GPhrArsH+py8kh7PAkt6Au3zL6cjlw4D9wOvBGZnnUnKSggwVoysGirxvNNbOXFmbbx0bHykzCe+vpclD7n3SpKeSghQrsCydUXaWgLPOrU2SqyfLB3j6m8Ps3/ch29IwArgL4DVPnFQemK+5ZeewLrrTyLEQFdLez/wXsBHf6ipJQHWbinzTzftffQoSpYe2lziozfs4c6VHjmRpMMRAowWItd9fx+fvWUf+8eyfcLsz5eNc8U3h9m1P7W8kmA78J4013Jv9PtBelK18TG6VIO23HMFsxb8FUkIq4AUeDlQW+enpCkUAmzdXeGhoRLnzstzwoypfwmJwF0rC3zixr3ct75keSVJR+DRSaz1RbbsqnB2T56ZnVP7eXYlhVuWjHHFN4fZtsfdhRIwDnwowFeSWI4eHZSenAWW9BS23nMl3Rf8bQxwL3AKMB9XNKiJhQBbdlVYtq5Ez+wW5p7QMmWfnO8fS7nplyN86j+G2bC94rFBSToKIVR3Gz40VGbp2iKzpueYe0JuSo4UDo+m/PtP9nPd94bZtS+1vJKqH5JfD/xjgFK/5ZX0lHzZkA7DgoVDROgGvgi8Jus8UtbSCCfMSLj4oi5+7yXTJvUT/DTCfeuKfOkn+1m8fJxSGY+bSNIESFOYPi3w2gUd/O9f7+Ss7vykXF/TCPeuLfJvP97P7SvGqaRex6UDvk/kbQS2ufdKenq+dEiHaf7CIYAXADcAz8o6j5S1GCGXgxc9s42LL+rkRWe30ZafuJeVNMK6rWW+c+cotywZ5ZE9qVNXkjTBYqwez+6ZneO1Czp43YIOnjEnT24CrrdpCmu2lPjuXaPcsmSMHXu9jkuHuA+4mMj9A4ssr6TDYYElHabzF26ikkZakuS3gc8BJ2adSaoFBz/Bf/G5bbz+RdM4/8zWY5rIGhmPPLipxE+WjvHzZeNs2VUB/LRekiZTGqs3Bicfn+PCc9p4+XntPPe0PLNn5I6ozIrAnv0pD2wo8bNlYyxeXmDbbq/j0uNsA96aJtySVCIDizw6KB0OX0akIzD/XZsghgT4K+ATQHvWmaRaEGP15mdaW+DsnjwXnNPG/DNbOf2UFmZ2JnS0PvnLzVgxsnckZcP2MsvWFblnVZGVm0oMj1SfTOUNjyRNnYPX847WQM/sHOeemufZ8/KccUqeE2cmzOxMaG0Jj16byxXYP56yY2/KhkfKrNhQYvn6Iuu3lxkdj17Hpf9uDLg0hWuTNE0HrpmXdR6pbvhyIh2h6lHCMA3iJ4G/AByGlw6RpkCollknzMjRMzvHKbNyzJqe0NWekEugnFaXsu/al7J1d4Utuyrs2FthpBCJERJveCQpc2nk0Wtye2ugqz3Q0ZYwrS3Qkqv+7+PFyGghsn8sZawQKafVG4yQeKMhPYEUuDpG3geMDXp0UDoivq5IR2H+ws1APAX4AvC6rPNItergzQ8cuKE55FXn4N4VDvx8CL4oSVIte/S6HQ/5yYPXbq/h0uH4LvCnRB5x75V05HydkY7S/IWbiITzQnWp+3OzziNJkiSpZt0LXAxhxUBfd9ZZpLrk0SfpaIUEQrgPeA+wPes4kiRJkmrSFuCyBFYkVLLOItUtCyzpKA30dpNEIJf8APgHqgsZJUmSJOmgUeCjKeHHhRBZ0ufSduloWWBJx6C/rxvSmAKfAz5LdTGjJEmSJFWAawnh3wLE+3rnZp1HqmvuwJImQPXJhJwEfB54Q9Z5JEmSJGXuW8DbIexw75V07CywpAly/sIhAjyb6lL352edR5IkSVJmBoCLIzw42OcTB6WJ4BFCaYLkIoRSXEF1qfuWrPNIkiRJysQQcBnwYC64YUSaKBZY0gRZsqiHyrQcIeVHwEepLmyUJEmS1Dz2Ax8ijT+NIWFJr0vbpYligSVNoKVXzSEGYiD8G3Ad+JxcSZIkqUmUgT7gy4QQB3vnZJ1HaijuwJImwYGl7idQfTrh72SdR5IkSdKkuxl4B7BrwL1X0oSzwJImyYES61zgK8D8rPNIkiRJmjT3ABdH4urBvrlZZ5EakkcIpUmSJpCGdCXVBY6bs84jSZIkaVJsBC4NSVidS1qyziI1LAssaZIsvbqHtkobkfhT4MNUFzpKkiRJahz7gA9WWiq3sn+EJVefknUeqWFZYEmT6K5rTiIQYiB8CbiG6mJHSZIkSfWvDFwdYrwhqSSx//PPzDqP1NDcgSVNgfkLhwgwK8JngN/POo8kSZKkY3Yj8BfEuGdgkXuvpMlmgSVNkQULh4jwTKpL3V+UdR5JkiRJR+1O4E3AWp84KE0NjxBKUyQNkYTkIeBSqoseJUmSJNWfh6m+p19LqGSdRWoaFljSFBnsnct4pUAgdyvwQaoLHyVJkiTVj2Hg7ytJurh9JGGg99Ss80hNwwJLmkL3X3s6kTQSwg1ALy51lyRJkupFCbgqJdyYpAm3f2FO1nmkpmKBJU2xgb5ugCKRTwLfyDqPJEmSpMPy9QhXBWJp0L1X0pRzibuUkQWXbCaGeCbwZeDFWeeRJEmS9KRuA94MrHdpu5QNJ7CkjFRyFQJxDdUFkA9nnUeSJEnSE1oHXAphfbmUZp1FaloWWFJGll49j/HpnUB6G/D3wN6sM0mSJEl6jD3A+9O2yh0QWXb9vKzzSE3LAkvK0PJPHA8hiQFuBD5FdTGkJEmSpOwVgStjCDeFYg6PDkrZssCSMjbQ20M88EQT4OtZ55EkSZIEwNeAT4UYy4O9lldS1lziLtWI+ZdshhBPp7rU/aVZ55EkSZKa2K3A/yGwYcDySqoJTmBJNSK0FgDWU13qvjbrPJIkSVKTWg1cGggbwogzH1KtsMCSakT/VWcAUGgfvwN4P9WFkZIkSZKmzm7gfbOmjd+dktL/+e6s80g6wAJLqiEDfT20FtpIAjcDV1BdHClJkiRp8hWBfyblP3aPtjHYNzfrPJIOYYEl1ZjB3rlEQjnAp4GvAjHrTJIkSVKDi8CXA/QRKPdbXkk1xwO9Uo2av3AzEOcB/w68Ius8kiRJUgP7GfAnEDcNWF5JNckJLKlGTWsrQGAj1aXuq7POI0mSJDWoVcClEDd1JMdlnUXSk7DAkmrU4ivOgBT6+7rvAd4L7Mo6kyRJktRgdgKXT8/t6g8k3HZ1V9Z5JD0JjxBKNW7+JZsJOXIxjZcCHwFas84kSZIkNYAC8IGQhivTJFQG++ZknUfSU3ACS6pxA4u6IVIhhj6q+7Bc6i5JkiQdmwh8MQSuiQHLK6kOOIEl1Yn5lwxBoAf4EvCqrPNIkiRJdey/gLcAmwf6erLOIukwOIEl1YnRchfAENWl7g9mnUeSJEmqUw8Al0bC5hefuyfrLJIOkxNYUh2Zv3AT+ZEcpc70d4HPACdknUmSJEmqI48AfxZj5TsJCf2L5madR9JhcgJLqiMDfXMpdqWEwHeAf6S6eFKSJEnS0xsHPhFJvxeSvOWVVGcssKQ6M9jbA1Ahch3wBVzqLkmSJD2dFPg8xOsDoTLQ69J2qd54hFCqUweWus8Bvgj8RtZ5JEmSpBr2A+CtwFaXtkv1yQJLqmPnv2uIEHk+cAPw7KzzSJIkSTVoOXAxMSwbWNSddRZJR8kjhFIdSyLENN4LXE51IaUkSZKkX9kOXJa2sIwkzTqLpGNggSXVsf6+HkIOQojfAz5OdTGlJEmSJBgD/iHE8INcKTDQ69J2qZ5ZYEl1bqB3LkRS4LPAv1JdUClJkiQ1sxT43IEfab9HB6W65w4sqUHMXzgEcDLVJxP+VtZ5JEmSpAx9D3gbsN2l7VJjsMCSGsj8hZuA8FyqS93PyzqPJEmSlIFlwMXAcssrqXF4hFBqIIEEcvF+4D3AtqzzSJIkSVNsK3BZaGF5dF5DaigWWFID6e/rhlJCDC0/BD5GdXGlJEmS1AxGgY+mJD+KxcBgn3uvpEZigSU1mIFruiGmKfB54Hpc6i5JkqTGVwGuA74QiHHgGssrqdE4Uyk1qPMXDhHgRKpPJnxj1nkkSZKkSfRt4M8g7Bhw8kpqSBZYUgM78GTCZwNfAV6QdR5JkiRpEgwCFxPDyoFFlldSo/IIodTAQggklcoKqkvdt2SdR5IkSZpgm4HLYsLKkHNzhtTILLCkBtbf2025PU8L8cfAR4CRrDNJkiRJE2QE+EiO8JNcGfqvnpt1HkmTyAJLanBLr5pDhRCJ4d+Aa6kuuJQkSZLqWQW4BsIXU4hLrunJOo+kSeYOLKlJzL9kM4Q4G/gs8LtZ55EkSZKOwTeBP4ew06XtUnOwwJKayIKFm4iEc6gudV+QdR5JkiTpKPQDF0dYNdjn5JXULDxCKDWRShKIIT4IXAYMZZ1HkiRJOkKbgEsDrMoFl7ZLzcQJLKnJvOgvt0OohEpI3wZ8CujKOpMkSZJ0GPYD707T5AuVNMT7rjsl6zySppATWFKTueeak0hDjBC+DPQB5awzSZIkSU+jDPQCXw4hWl5JTcgCS2pC/X3dQCwAnwS+lXUeSZIk6Wn8B9X3rsXBRS5tl5qRRwilJrZg4WYi8SyqS90vyDqPJEmS9ATuBi4msmZgkUvbpWblBJbUxNKQUolhNXApsCHrPJIkSdLjbAAujTGsSXK5rLNIypAFltTEBnvn0tUWqcTKL4EPAsNZZ5IkSZIOGAY+kKThl6F1jCVXu/dKamYWWFKTu+3KHpKQRAhfBa7Gpe6SJEnKXhn4NPC1GGIcuOrMrPNIypgFliQG++YCFIErgJuyziNJkqSmdxNwJVDsd++VJFziLukQCxYOEeEZwJeBX8s6jyRJkprSHcCbIKwb6POJg5KqnMCS9KhyjISQrqW61H191nkkSZLUdNYDl4bIOtJK1lkk1RAnsCQ9xll/sZ8Zud0QkjcBi4CZWWeSJElSU9gL/GVbLrlhz8w8D3z0hKzzSKohTmBJeozV13VBSAC+DlwFlLLOJEmSpIZXAq6MhJuKlWh5Jem/scCS9N8M9PUAlCBeBXwt6zySJElqeF8DPhWg1O/eK0lPwCOEkp7U/IVDAKdRXer+sqzzSJIkqSEthvBmiA8f+CBVkv4bJ7AkPalICvAw8HfAmqzzSJIkqeGsAS6F+HApxKyzSKphFliSntRg3zxigNa9w3cB7wd2Z51JkiRJDWM38P5yUrozELivd27WeSTVMAssSU9psLeH0ozpJIFvAP8CFLPOJEmSpLpXBK5IY/hGLs3j3itJT8cCS9LT6l80FwjlQOgFvgI43y1JkqSjFYEbQghXBygPuvdK0mFwibukwzZ/4WYgzgO+BLwy6zySJEmqSz8H/iSEsLG/18krSYfHCSxJh609pgAbgUuBh7LOI0mSpLrzEHBZhI2pt6OSjoBXDEmH7fZFc4kx0DansAR4L7Az60ySJEmqG7uA9w4XjrsnCTDYe0rWeSTVEQssSUdkcFE3hc3tBJJvAf8MFLLOJEmSpJpXoPre8VszWnfT3+veK0lHxgJL0hEbWNQNxAqwiOo+LJe6S5Ik6clE4N+pvnesDCyam3UeSXXIJe6Sjtr5lwwRAj3AF4FXZ51HkiRJNeknwFsIYWjApe2SjpITWJKOWvdJ04kwRHWp+8qs80iSJKnmPAhcRmQo2bs36yyS6pgFlqSj9r0PzSAhUojpIHA5sCPrTJIkSaoZO4DL86E4QBJY8qVnZZ1HUh2zwJJ0TPr75tJRvZT8J/AJYDzrTJIkScrcOPCPEL5bjO14dFDSsbLAknTMlizqAagA1wFfwKXukiRJzSxS3ZF6LVAZ7JuTdR5JDcAl7pImzPyFQwBzqJZYr806jyRJkjLxI+D/AlsG+nqyziKpQTiBJWnCDPT1EGALcBmwPOs8kiRJmnIrqL4X3JLflM86i6QGYoElaULFALSwDHgPsD3rPJIkSZoy24H3tCaVe4lw17dOyjqPpAZigSVpQg309hBLkYR4C/BxYCzrTJIkSZp048D/l8b4/UIlz8Aijw5KmlgWWJIm3OCiuURIgc8Cn6P655IkSWpMKfC5AJ8JkA4ucmm7pInnEndJk+bAUveTqC51f33WeSRJkjQpbgHeGmBbv0vbJU0SCyxJk2r+JUMQeA5wA/C8rPNIkiRpQt0P/HGM3D/osUFJk8gjhJImVxKgJbec6lL3rVnHkSRJ0oTZBlwW0nh/cDRC0iSzwJI0qQZ6u6FQokz4EfAxYDTrTJIkSTpmY8DHcpXww9iSMODRQUmTzAJL0qQbuHYeCaQRPg9cD1SyziRJkqSjlgKfIfKvaSAduLo76zySmoCDnpKmzPkLhwhwAvCvwG9nnUeSJElH5bvAnxHZPuDeK0lTxAJL0pQ68GTCc6kudT8/6zySJEk6IvcCFxNZYXklaSp5hFDSFAvkSFcClwGbs04jSZKkw7YFuIwkrohJzDqLpCZjgSVpSg30dVMgT4jhJ8CHgZGsM0mSJOlpjQIfJeZ+HNMcg71zs84jqclYYEmacsv6TiESY4zxS8A1uNRdkiSpllWAa4F/gzQO9s3JOo+kJuQOLEmZOf+STSQhzI7wGeD3ss4jSZKkJ/QtCG8Hdgz0+cRBSdmwwJKUqQNL3c8GvgK8MOs8kiRJeowB4GLgwYE+l7ZLyo5HCCVlKgFiTFYBlwKbss4jSZKkRw0BlyYxfdDZB0lZs8CSlKklfT0kreOQVn4BfBDYl3UmSZIksR/4cJKr/KwY8nh0UFLWLLAkZa7/qjMgJJEYvgL0AeWsM0mSJDWxCrAowr/HNInL+k7JOo8kOQcqqXYc2Id1PHAd8L+zziNJktSkbgbeAexy75WkWmGBJammLFi4GYhnxupS9wuzziNJktRk7gHeFOGhQcsrSTXEI4SSakolTalE1lBd6r4h6zySJElNZCNwaQIPJTHNOoskPYYFlqSasvSauXS1Qy7PYuADwHDWmSRJkprAPuCDhOTWQqmF/kXzss4jSY9hgSWp5iy+ooe0TIyRrwKfBkpZZ5IkSWpgZeBqAjcQY7zv+pOzziNJ/40FlqSa1N/bQwiUCOEK4Kas80iSJDWwbxC5AigO9HVnnUWSnpBL3CXVtANPJjwD+DLwkqzzSJIkNZg7gTcRw9qBRZZXkmqXE1iSalqSCyQhrqO61H1d1nkkSZIayMPApcSwNoRK1lkk6SlZYEmqaUs+3c2uYisdMX878H5gT9aZJEmSGsAw8AFCXFxpG6W/z6XtkmqbBZakmrf2+pMYD2Ui3AxcCRSzziRJklTHSsBVRL5GDNx75VlZ55Gkp2WBJaku9Pd1E6AUiJ8GvpZ1HkmSpDp2E3AVUBro68k6iyQdFpe4S6or8xduAsKpVJe6/3rWeSRJkurM7cCbIKz3iYOS6okTWJLqSsglABuoLnVfk3UeSZKkOrIOuDTEuJ7Upe2S6osFlqS60v/pbgIwXN5zF/BeYHfWmSRJkurAHuD9SbF8+74zpjFwjUvbJdUXCyxJdae/r4fpLTNJCP8BfBKXukuSJD2VItUH4dyctuZY9Xezss4jSUfMAktSXRrsmwtQBnqBLwEx60ySJEk1KAI3AJ8GSgPV91CSVHdc4i6prs1fOASEbohfAH4z6zySJEk15sfA2wJs6veJg5LqmBNYkupaawwAm4G/AfqzziNJklRDBoG/iYRNpVKadRZJOiYWWJLq2p2LqkvdQ2A58G5gddaZJEmSasBq4N0Q7k9IWXa9S9sl1TcLLEl1r7+vmzKRGNLbgL8CNmadSZIkKUMbgb/KF8IvSSv0u/dKUgOwwJLUEO7tnUuIOdLQdgvw/4AtWWeSJEnKwGbg/+WItxTbIwPXOHklqTFYYElqGAN93SSxSD6U/4NqibU160ySJElTaAvw10lL8h8VAoO9Lm2X1DgssCQ1lIG+bsrkYq6S3kT1OOFQ1pkkSZKmwCbgXWko3xQraRzwiYOSGowFlqSG0987lzRJYvtI/ibgncDarDNJkiRNojXAO8dawjeSmIv9Tl5JakAh6wCSNFkW/OVmxhmjLWm/CLgaeG7WmSRJkibYMuDdIcn9PI0Vjw1KalgWWJIa2oKFm6kACXE+cBXw8qwzSZIkTZCfA38NLI1EBn3aoKQG5hFCSQ2tv6+bFiLAAPB/gRuBSta5JEmSjkEZuAF4K7A0BiyvJDU8J7AkNYUFC4eqNRYcD1wGXAJMzzqXJEnSERoGriZwBZE9xMjAIssrSY3PAktS01hwySZiCERoDfBHwIeBM7LOJUmSdJhWAx8ichOBUgiR/l7LK0nNwQJLUtM5f+EQra2RUjFcCHwUeA0eqZYkSbUrBW4BPpRWYn+SBAYWuaxdUnOxwJLUlF7wziGSHAAnAe8G3gHMzjqXJEnS4zwCLIqERYG4IxDo7+vOOpMkTTkLLElNa/7CzUAkCSGXxvha4O+BF+O1UZIkZS8FbgU+npD8NCWmJCkDV3tkUFJz8iZNUtNbsHAIiERCD/BO4M+Ak7POJUmSmtZm4DoIn4G4zakrSbLAkiQAznnrTjo7xyGQI/JS4G+B1wJtWWeTJElNYxT4HnBVmuTuTNI0QmSgz31XkmSBJUmHmP+uIYgBQpxB5HeBS4AFuORdkiRNnjJwF3A11QJrJIbAYK9TV5J0kAWWJD3O/HdtAkJ180SgB7gYeBtwbtbZJElSQ0mBZcDngJuA7QBpDCxdZHklSYeywJKkJ/Giv95MpRQh5CBWzgT+GHgzcDZePyVJ0tGrAPcDXwJuioSNgUh+Y4G7vv2MrLNJUk3yBkySnsb8SzZBCKSlcZJ8+5nA7wF/BDwPaMk6nyRJqhsFoB/4CvAdYBNAQsqSvnlZZ5OkmmaBJUmHaf67NkOMB1Zk0U11yfsfAi8GZmadT5Ik1awdwK3AjUR+Sog7IECAgV4XtEvS4bDAkqQjtOCdm4m5ePC/dgEvBH4X+E3gTCCfdUZJkpS5cWAF8APgOwHujdWfg3zCwFVzss4nSXXFAkuSjtL5lwwRDlxFc4FQicwDfh14A9WprHl4xFCSpGYyDqyhOm31A+CukOa2xaTy6I1Xf58TV5J0NCywJOkYnb9wA0nIEQ8MZcUQ8yGG04ALgYsO/PF0qtNakiSpsewCHgTuAH4ODACbgQgQk0goVhi47rSsc0pSXbPAkqQJNH/hZmJICbF6eY2BJEROBp5FdSrrhcCzgTnAjKzzSpKkI1IGdgMPA8uAe6gWVqtyKXsqySG/MqQM9LqYXZImigWWJE2S+QuHqlfZ+JifbgVOBM6gWmQ9BzgbOBWYDUwH2oHkSH4vSZI0YSJQBEaAvVSnqR4GVh748RCwIUnC7jSNj77KpwESIgO9c7POL0kNyQJLkqbAgr/cSkwq/+3nkwhpYBowi+pU1qnAXOA0oAc4CTie6rRWJ9ABtAG5Az/qWQpUjvnvomNR4fEVq6ZSher3gbIR8RqUtTLZXIPigd+7CIxRLaqGgZ3AFqqF1dAhP3bFhL0hfezXSxIgjTDgTitJmhL/P9NCIq1yYkRFAAAACHRFWHRjb21tZW50AA+69OkAAAAldEVYdGRhdGU6Y3JlYXRlADIwMjItMTAtMjVUMDE6MDM6NDYrMDk6MDBF/c8pAAAAJXRFWHRkYXRlOm1vZGlmeQAyMDIyLTEwLTI1VDAxOjAzOjQ2KzA5OjAwNKB3lQAAADJ0RVh0RGVzY3JpcHRpb24AImt1YmVjdGwiIGlzIHByb25vdW5jZWQgImt5b29iIGt1dHRlbCLAp9QkAAAAGXRFWHRTb2Z0d2FyZQB3d3cuaW5rc2NhcGUub3Jnm+48GgAAACR0RVh0VGl0bGUAS3ViZXJuZXRlcyBsb2dvIHdpdGggbm8gYm9yZGVyQQFOjAAAAABJRU5ErkJggg==;" parent="1" vertex="1">
          <mxGeometry x="520" y="320.9" width="30" height="29.1" as="geometry" />
        </mxCell>
        <mxCell id="H2bbFuzn8sbZbmYjsPZt-19" value="" style="shape=image;html=1;verticalAlign=top;verticalLabelPosition=bottom;labelBackgroundColor=#ffffff;imageAspect=0;aspect=fixed;image=https://cdn0.iconfinder.com/data/icons/octicons/1024/file-text-128.png" parent="1" vertex="1">
          <mxGeometry x="270" y="240" width="30" height="30" as="geometry" />
        </mxCell>
      </root>
    </mxGraphModel>
  </diagram>
</mxfile>
